{"glyphs":{"0":{"ha":750,"x_min":49,"x_max":701,"o":"m 383 764 q 210 413 210 764 q 253 163 210 238 q 383 89 296 89 q 505 167 469 89 q 540 421 540 246 q 503 680 540 596 q 383 764 465 764 m 381 875 q 701 429 701 886 q 619 94 701 210 q 378 -21 538 -21 q 133 95 218 -21 q 49 422 49 211 q 134 751 49 632 q 381 875 219 869 z "},"1":{"ha":567,"x_min":42,"x_max":524,"o":"m 461 0 l 71 0 l 71 11 q 103 89 71 69 q 132 96 115 96 l 217 99 l 217 688 l 135 663 q 69 683 97 650 q 42 736 40 715 l 258 858 q 328 875 288 875 q 383 803 383 875 l 383 101 l 524 93 q 522 54 528 85 q 461 0 510 0 z "},"2":{"ha":722,"x_min":53,"x_max":676,"o":"m 71 671 q 153 816 71 757 q 360 875 235 875 q 560 807 486 875 q 633 631 633 739 q 604 498 633 567 q 535 376 575 429 q 439 267 494 322 q 265 119 354 185 l 576 119 l 585 197 q 617 247 589 235 q 676 251 644 260 l 676 1 l 71 1 q 53 89 49 67 q 98 128 58 93 q 151 175 138 164 q 203 222 164 186 q 258 276 242 258 q 308 331 275 294 q 356 390 340 367 q 396 449 372 414 q 431 511 419 483 q 457 639 457 583 q 427 731 457 694 q 330 768 397 768 q 235 713 263 768 q 207 563 207 658 q 113 583 154 558 q 71 671 71 608 z "},"3":{"ha":654,"x_min":49,"x_max":626,"o":"m 410 679 q 319 775 410 775 q 230 735 258 775 q 199 642 201 696 q 86 729 86 642 q 151 834 86 793 q 327 875 215 875 q 509 823 439 875 q 579 679 579 771 q 394 465 579 525 q 563 396 500 454 q 626 247 626 338 q 533 58 626 136 q 285 -21 439 -21 q 110 22 172 -21 q 49 128 49 64 q 76 198 49 169 q 153 226 103 226 q 191 126 153 164 q 296 88 229 88 q 407 126 363 88 q 450 233 451 164 q 374 354 449 322 q 190 378 300 386 l 189 499 q 353 554 282 499 q 410 679 410 600 z "},"4":{"ha":692,"x_min":21,"x_max":671,"o":"m 671 274 l 671 163 l 547 163 l 547 0 l 381 -14 l 381 163 l 61 163 q 21 257 29 204 l 424 863 q 547 874 492 879 l 547 274 l 671 274 m 381 274 l 381 621 l 153 274 l 381 274 z "},"5":{"ha":656,"x_min":56,"x_max":621,"o":"m 338 538 q 540 475 458 538 q 621 279 621 413 q 525 63 621 146 q 285 -21 429 -21 q 119 19 183 -21 q 56 126 56 60 q 81 191 56 167 q 144 215 106 215 q 288 82 165 82 q 407 129 361 82 q 453 253 453 176 q 407 365 453 329 q 300 400 361 400 q 150 375 239 400 l 131 385 l 150 861 l 567 861 l 553 729 l 247 729 l 239 528 q 338 538 292 538 z "},"6":{"ha":681,"x_min":49,"x_max":649,"o":"m 226 467 q 412 517 314 517 q 579 453 510 517 q 649 265 649 389 q 567 60 649 142 q 344 -21 485 -21 q 49 376 49 -21 q 149 745 49 615 q 422 875 250 875 q 558 843 510 875 q 607 770 607 811 q 583 701 607 729 q 503 678 558 674 q 406 776 503 776 q 226 467 243 776 m 360 82 q 481 244 481 82 q 339 406 481 406 q 224 374 276 406 q 259 146 225 210 q 360 82 293 82 z "},"7":{"ha":585,"x_min":42,"x_max":571,"o":"m 42 861 l 553 861 q 571 776 571 826 l 229 -24 l 67 32 l 424 718 l 139 718 l 132 660 q 91 622 129 633 q 42 621 53 611 l 42 861 z "},"8":{"ha":664,"x_min":42,"x_max":622,"o":"m 622 253 q 541 64 622 149 q 331 -21 460 -21 q 122 40 201 -21 q 42 201 42 100 q 190 433 42 342 q 85 622 85 514 q 156 802 85 729 q 347 875 226 875 q 531 822 468 875 q 593 682 593 769 q 464 471 593 557 q 579 377 536 428 q 622 253 622 326 m 443 663 q 414 751 443 724 q 343 778 385 778 q 271 753 301 778 q 240 680 240 728 q 269 598 240 632 q 379 518 299 564 l 382 517 q 443 663 443 578 m 206 213 q 239 113 206 150 q 337 76 272 76 q 435 108 401 76 q 469 189 469 140 q 342 344 469 275 q 276 379 338 347 q 206 213 206 310 z "},"9":{"ha":663,"x_min":14,"x_max":614,"o":"m 14 588 q 14 650 14 588 q 96 793 14 711 q 325 875 178 875 q 614 469 614 875 q 513 108 614 236 q 235 -21 411 -21 q 104 11 153 -21 q 56 94 56 43 q 81 153 56 125 q 160 176 106 181 q 256 78 160 78 q 436 388 419 78 q 251 338 349 338 q 83 401 153 338 q 14 588 14 465 m 304 772 q 182 610 182 772 q 319 449 182 449 q 439 481 386 449 q 404 708 438 644 q 304 772 371 772 z "},"\u0000":{"ha":0,"x_min":0,"x_max":0,"o":""},"\r":{"ha":0,"x_min":0,"x_max":0,"o":""}," ":{"ha":372,"x_min":0,"x_max":0,"o":""},"!":{"ha":331,"x_min":56,"x_max":275,"o":"m 243 11 q 227 -5 243 11 q 165 -21 211 -21 q 88 11 119 -21 q 56 89 56 43 q 88 167 56 135 q 165 199 119 199 q 243 167 211 199 q 275 89 275 135 q 243 11 275 43 m 108 304 l 82 971 q 265 981 161 1000 l 222 304 q 108 304 168 289 z "},"\"":{"ha":510,"x_min":75,"x_max":446,"o":"m 107 658 l 75 957 q 242 967 150 983 l 200 658 q 107 658 156 646 m 311 658 l 279 957 q 446 967 354 983 l 404 658 q 311 658 360 646 z "},"#":{"ha":971,"x_min":56,"x_max":915,"o":"m 671 376 l 811 376 q 857 265 853 336 l 649 265 l 597 24 l 469 24 l 521 265 l 333 265 l 282 24 l 154 24 l 206 265 l 101 265 q 56 376 60 306 l 228 376 l 276 603 l 160 603 q 114 714 118 643 l 299 714 l 346 936 l 474 936 l 426 714 l 614 714 l 661 936 l 789 936 l 742 714 l 869 714 q 915 603 911 674 l 719 603 l 671 376 m 543 376 l 592 603 l 404 603 l 356 376 l 543 376 z "},"$":{"ha":697,"x_min":63,"x_max":635,"o":"m 601 718 q 569 641 601 669 q 486 621 538 613 q 453 738 486 700 q 355 776 419 776 q 258 747 290 776 q 225 678 225 717 q 235 619 225 640 q 276 578 246 597 q 427 501 318 550 q 585 403 536 453 q 635 253 635 354 q 567 76 635 151 q 383 -17 499 0 l 397 -160 q 333 -171 376 -171 q 272 -160 290 -171 l 285 -19 q 128 28 193 -11 q 63 139 63 68 q 94 219 63 189 q 193 249 126 249 q 230 120 193 158 q 347 82 267 82 q 496 190 496 82 q 449 301 496 260 q 342 367 403 342 q 264 401 282 393 q 211 428 246 410 q 160 462 176 446 q 125 500 144 478 q 89 613 89 543 q 143 775 89 713 q 286 861 197 838 l 272 1011 q 333 1022 290 1022 q 397 1011 376 1022 l 385 874 q 535 837 468 874 q 601 718 601 800 z "},"%":{"ha":1124,"x_min":63,"x_max":1061,"o":"m 867 476 q 1061 232 1061 476 q 1010 42 1061 106 q 863 -21 958 -21 q 717 41 768 -21 q 665 227 665 103 q 717 414 665 351 q 867 476 769 476 m 864 396 q 781 228 781 396 q 863 60 781 60 q 942 228 942 60 q 864 396 942 396 m 264 876 q 458 632 458 876 q 407 442 458 506 q 260 379 356 379 q 114 441 165 379 q 63 627 63 503 q 115 814 63 751 q 264 876 167 876 m 261 796 q 178 628 178 796 q 260 460 178 460 q 339 628 339 460 q 261 796 339 796 m 886 875 l 392 0 l 246 0 l 740 875 l 886 875 z "},"&":{"ha":1033,"x_min":49,"x_max":1015,"o":"m 896 115 q 954 126 924 115 q 996 154 985 138 q 1015 94 1015 138 q 981 14 1015 51 q 876 -24 946 -24 q 636 68 772 -24 q 363 -25 519 -25 q 127 42 206 -25 q 49 217 49 110 q 219 475 49 382 q 118 706 118 610 q 188 870 118 803 q 372 938 258 938 q 549 884 486 938 q 613 738 613 831 q 555 578 613 644 q 411 481 497 511 l 419 471 q 653 238 532 336 q 711 369 689 293 l 619 376 q 678 465 611 465 l 917 465 l 917 453 q 864 375 917 379 l 818 372 q 735 178 788 260 q 896 115 832 115 m 465 736 q 439 826 465 797 q 374 854 413 854 q 304 822 335 854 q 274 739 274 790 q 363 543 274 663 q 465 736 465 606 m 549 135 q 278 404 436 226 q 208 256 208 338 q 258 133 208 175 q 394 92 308 92 q 549 135 481 92 z "},"'":{"ha":306,"x_min":69,"x_max":236,"o":"m 101 658 l 69 957 q 236 967 144 983 l 194 658 q 101 658 150 646 z "},"(":{"ha":428,"x_min":69,"x_max":386,"o":"m 383 971 q 269 697 313 860 q 226 383 226 533 q 271 74 226 233 q 386 -186 315 -85 l 326 -249 q 140 31 211 -146 q 69 388 69 207 q 140 747 69 568 q 326 1028 211 926 l 383 971 z "},")":{"ha":428,"x_min":42,"x_max":358,"o":"m 288 747 q 323 658 288 747 q 358 388 358 568 q 288 31 358 207 q 101 -249 217 -146 l 42 -186 q 157 74 113 -85 q 201 383 201 233 q 158 697 201 533 q 44 971 115 860 l 101 1028 q 288 747 217 926 z "},"*":{"ha":656,"x_min":56,"x_max":600,"o":"m 364 794 l 556 899 q 586 824 572 876 q 600 740 600 772 l 378 729 l 543 585 q 482 527 526 558 q 407 489 438 496 l 328 685 l 250 492 q 174 530 219 499 q 115 586 129 561 l 278 729 l 56 740 q 69 828 56 776 q 100 900 82 879 l 293 793 l 244 1011 q 325 1021 272 1022 q 407 1010 378 1019 l 364 794 z "},"+":{"ha":706,"x_min":69,"x_max":636,"o":"m 636 426 l 636 315 l 413 315 l 413 88 l 297 88 l 297 315 l 69 315 l 69 426 l 297 426 l 297 654 l 413 654 l 413 426 l 636 426 z "},",":{"ha":356,"x_min":69,"x_max":286,"o":"m 69 90 q 69 113 69 90 q 99 166 69 136 q 177 196 128 196 q 256 165 226 196 q 286 71 286 135 q 231 -76 286 7 q 117 -183 176 -158 q 92 -174 108 -189 q 75 -150 75 -160 q 163 -19 136 -107 q 94 15 119 -14 q 69 90 69 44 z "},"-":{"ha":563,"x_min":56,"x_max":507,"o":"m 56 433 l 507 433 l 507 308 l 56 308 l 56 433 z "},".":{"ha":358,"x_min":69,"x_max":289,"o":"m 257 11 q 241 -5 257 11 q 179 -21 225 -21 q 101 11 133 -21 q 69 89 69 43 q 101 167 69 135 q 179 199 133 199 q 257 167 225 199 q 289 89 289 135 q 257 11 289 43 z "},"/":{"ha":521,"x_min":28,"x_max":493,"o":"m 165 -125 l 28 -125 l 356 968 l 493 968 l 165 -125 z "},":":{"ha":369,"x_min":69,"x_max":300,"o":"m 267 474 q 250 457 267 474 q 185 440 233 440 q 103 474 136 440 q 69 555 69 507 q 103 637 69 603 q 185 671 136 671 q 267 638 233 671 q 300 556 300 604 q 267 474 300 507 m 267 11 q 250 -6 267 11 q 185 -22 233 -22 q 103 11 136 -22 q 69 93 69 44 q 103 175 69 142 q 185 208 136 208 q 267 175 233 208 q 300 93 300 142 q 267 11 300 44 z "},";":{"ha":360,"x_min":69,"x_max":290,"o":"m 74 64 q 74 87 74 64 q 103 140 74 110 q 181 169 132 169 q 260 139 231 169 q 290 44 290 108 q 235 -102 290 -19 q 121 -210 181 -185 q 96 -201 113 -215 q 79 -176 79 -186 q 167 -46 140 -133 q 99 -11 124 -40 q 74 64 74 18 m 257 514 q 241 498 257 514 q 179 482 225 482 q 101 514 133 482 q 69 592 69 546 q 101 669 69 638 q 179 701 133 701 q 257 669 225 701 q 289 592 289 638 q 257 514 289 546 z "},"<":{"ha":703,"x_min":42,"x_max":628,"o":"m 628 585 l 232 382 l 621 188 l 564 78 l 42 346 l 42 421 l 569 693 l 628 585 z "},"=":{"ha":706,"x_min":69,"x_max":636,"o":"m 69 318 l 636 318 l 636 207 l 69 207 l 69 318 m 69 538 l 636 538 l 636 426 l 69 426 l 69 538 z "},">":{"ha":703,"x_min":75,"x_max":661,"o":"m 133 693 l 661 421 l 661 346 l 139 78 l 82 188 l 471 382 l 75 585 l 133 693 z "},"?":{"ha":699,"x_min":56,"x_max":643,"o":"m 204 167 q 220 183 204 167 q 282 199 236 199 q 360 167 328 199 q 392 89 392 135 q 360 11 392 43 q 282 -21 328 -21 q 204 11 236 -21 q 172 89 172 43 q 204 167 172 135 m 56 799 q 131 932 56 871 q 344 993 207 993 q 563 926 482 993 q 643 745 643 858 q 559 548 643 632 q 346 442 475 464 l 338 301 q 226 301 299 292 l 218 521 q 386 590 315 544 q 467 739 467 642 q 433 844 467 801 q 338 888 399 888 q 239 850 278 888 q 175 707 175 789 q 90 730 125 707 q 56 799 56 753 z "},"@":{"ha":1444,"x_min":118,"x_max":1326,"o":"m 1224 481 q 1097 751 1224 649 q 763 853 969 853 q 374 713 521 853 q 226 351 226 574 q 376 -2 226 129 q 771 -133 526 -133 q 1078 -60 965 -133 l 1094 -147 q 751 -231 939 -231 q 292 -72 467 -231 q 118 351 118 86 q 294 783 118 617 q 761 950 471 950 q 1171 827 1015 950 q 1326 507 1326 704 q 1212 192 1326 310 q 910 74 1097 74 q 821 88 850 74 q 786 136 792 101 q 605 74 706 74 q 443 139 504 74 q 399 352 382 204 q 497 592 415 500 q 721 685 578 685 q 854 656 794 685 l 854 657 l 1024 667 l 954 172 q 1149 257 1075 172 q 1224 481 1224 342 m 729 583 q 571 385 600 583 q 672 188 542 188 q 796 240 728 188 l 838 539 q 729 583 790 583 z "},"A":{"ha":917,"x_min":18,"x_max":896,"o":"m 833 0 l 508 0 l 508 11 q 569 93 508 88 l 610 96 l 611 96 l 556 297 l 306 297 l 247 99 l 360 90 q 358 53 364 82 q 297 0 346 0 l 18 0 l 18 11 q 79 93 18 88 l 131 96 l 397 951 q 538 951 457 957 l 799 99 l 896 90 q 894 53 900 82 q 833 0 882 0 m 332 390 l 531 390 l 435 742 l 332 390 z "},"B":{"ha":822,"x_min":57,"x_max":792,"o":"m 111 951 l 426 951 q 673 886 596 951 q 750 729 750 821 q 576 500 750 560 q 733 434 674 486 q 792 290 792 382 q 700 77 792 154 q 433 0 608 0 l 58 0 q 114 92 60 86 l 158 97 l 158 854 l 57 863 q 70 925 53 899 q 111 951 88 951 m 332 863 l 332 531 l 361 531 q 521 575 472 531 q 569 707 569 619 q 519 833 569 794 q 389 865 469 871 l 336 863 l 332 863 m 614 271 q 378 447 614 450 l 332 447 l 332 100 l 399 99 q 614 271 614 97 z "},"C":{"ha":836,"x_min":49,"x_max":794,"o":"m 514 972 q 710 919 635 972 q 786 790 786 865 q 749 704 786 735 q 647 674 711 674 q 497 853 647 853 q 299 749 369 853 q 229 469 229 646 q 297 197 229 292 q 513 103 365 103 q 772 188 660 103 q 794 143 794 174 q 696 33 794 86 q 464 -21 597 -21 q 153 106 258 -21 q 49 464 49 233 q 167 833 49 694 q 514 972 286 972 z "},"D":{"ha":989,"x_min":57,"x_max":940,"o":"m 129 951 l 454 951 q 940 481 940 951 q 814 124 940 247 q 461 0 688 0 l 57 0 q 65 61 53 33 q 106 92 76 89 l 156 97 l 156 853 l 154 853 l 57 861 q 71 931 56 910 q 129 951 86 951 m 419 96 q 679 175 599 85 q 760 474 760 265 q 677 773 760 683 q 407 856 594 863 l 329 853 l 329 101 l 419 96 z "},"E":{"ha":796,"x_min":56,"x_max":754,"o":"m 754 226 l 754 0 l 56 0 q 117 93 56 89 l 157 96 l 157 853 l 57 861 q 58 899 53 869 q 119 951 71 951 l 728 951 l 728 742 q 639 688 728 679 l 626 851 l 331 856 l 331 511 l 579 540 q 581 403 594 474 l 331 417 l 331 99 l 654 110 l 665 281 q 754 226 754 289 z "},"F":{"ha":735,"x_min":56,"x_max":714,"o":"m 714 951 l 714 742 q 625 688 714 679 l 613 846 l 331 856 l 331 519 l 579 549 q 581 411 594 482 l 331 425 l 331 99 l 458 90 q 396 0 467 0 l 56 0 q 56 11 56 0 q 117 93 56 88 l 157 96 l 157 853 l 57 861 q 58 899 53 869 q 119 951 71 951 l 714 951 z "},"G":{"ha":950,"x_min":49,"x_max":928,"o":"m 549 439 l 928 439 q 928 428 928 439 q 867 346 928 351 l 826 343 l 818 343 l 818 128 q 683 20 782 61 q 461 -21 585 -21 q 153 106 258 -21 q 49 464 49 233 q 167 833 49 694 q 511 972 286 972 q 754 920 669 972 q 839 790 839 868 q 801 704 839 735 q 700 674 764 674 q 655 825 700 778 q 494 872 610 872 q 229 482 229 872 q 297 197 229 290 q 515 103 364 103 q 683 157 632 103 l 683 340 l 486 349 q 549 439 478 439 z "},"H":{"ha":1064,"x_min":56,"x_max":1008,"o":"m 944 0 l 632 0 l 632 11 q 693 93 632 88 l 733 96 l 733 424 l 331 424 l 331 99 l 431 90 q 368 0 439 0 l 56 0 l 56 11 q 117 93 56 88 l 157 96 l 157 853 l 57 861 q 58 899 53 869 q 119 951 71 951 l 432 951 l 432 940 q 371 858 432 864 l 331 856 l 331 517 l 733 517 l 733 853 l 633 861 q 696 951 625 951 l 1008 951 l 1008 940 q 947 858 1008 864 l 907 856 l 907 99 l 1007 90 q 1006 53 1011 82 q 944 0 993 0 z "},"I":{"ha":488,"x_min":56,"x_max":432,"o":"m 368 0 l 56 0 l 56 11 q 117 93 56 88 l 157 96 l 157 853 l 156 853 l 57 861 q 58 899 53 869 q 119 951 71 951 l 432 951 l 432 940 q 371 858 432 864 l 331 856 l 331 99 l 332 99 l 431 90 q 368 0 439 0 z "},"J":{"ha":569,"x_min":32,"x_max":544,"o":"m 229 951 l 544 951 q 544 940 544 951 q 483 858 544 864 l 443 856 l 443 193 q 372 -9 443 69 q 179 -87 300 -87 q 72 -53 113 -87 q 32 28 32 -19 q 150 139 32 139 q 219 29 150 29 q 257 62 244 29 q 269 183 269 94 l 269 853 l 268 853 l 167 861 q 229 951 158 951 z "},"K":{"ha":890,"x_min":56,"x_max":872,"o":"m 588 951 l 860 951 q 800 858 860 858 l 744 856 l 485 529 l 785 99 l 872 90 q 866 36 883 72 q 810 0 849 0 l 642 0 l 372 388 l 331 336 l 331 99 l 444 90 q 382 0 453 0 l 56 0 l 56 11 q 117 93 56 88 l 157 96 l 157 853 l 57 861 q 58 899 53 869 q 119 951 71 951 l 432 951 l 432 940 q 371 858 432 864 l 331 856 l 331 483 l 615 856 l 525 861 q 588 951 517 951 z "},"L":{"ha":776,"x_min":56,"x_max":742,"o":"m 742 246 l 742 0 l 56 0 l 56 11 q 117 93 56 88 l 157 96 l 157 853 l 60 861 q 61 899 56 869 q 122 951 74 951 l 463 951 l 463 939 q 431 865 463 885 q 401 858 418 858 l 333 856 l 331 856 l 331 99 l 631 108 l 653 300 q 742 246 742 308 z "},"M":{"ha":1236,"x_min":14,"x_max":1221,"o":"m 1158 0 l 843 0 l 843 11 q 904 93 843 88 l 943 96 l 893 769 l 644 150 q 556 143 594 135 l 288 743 l 247 99 l 360 90 q 358 53 364 82 q 297 0 346 0 l 14 0 l 14 11 q 75 93 14 88 l 131 96 l 181 853 l 85 861 q 86 899 81 869 q 147 951 99 951 l 385 951 l 629 399 l 843 951 l 1097 951 q 1136 940 1121 951 q 1156 911 1151 928 q 1160 861 1164 869 l 1063 853 l 1119 99 l 1221 90 q 1219 53 1225 82 q 1158 0 1207 0 z "},"N":{"ha":964,"x_min":56,"x_max":940,"o":"m 699 951 l 940 951 q 940 940 940 951 q 879 858 940 864 l 839 856 l 839 18 q 732 -1 797 -1 l 261 703 l 261 99 l 361 90 q 299 0 369 0 l 56 0 l 56 11 q 117 93 56 88 l 157 96 l 157 853 l 57 861 q 58 899 53 869 q 119 951 71 951 l 301 951 l 735 306 l 735 853 l 636 861 q 699 951 628 951 z "},"O":{"ha":957,"x_min":49,"x_max":908,"o":"m 478 861 q 229 482 229 861 q 291 192 229 292 q 472 90 353 92 q 663 188 599 92 q 728 474 728 285 q 665 762 728 663 q 478 861 601 861 m 49 470 q 49 587 49 470 q 168 838 49 704 q 490 972 288 972 q 801 844 693 972 q 908 481 908 715 q 788 113 908 247 q 465 -21 668 -21 q 156 108 263 -21 q 49 470 49 236 z "},"P":{"ha":821,"x_min":56,"x_max":793,"o":"m 393 354 l 331 354 l 331 99 l 449 90 q 447 53 453 82 q 386 0 435 0 l 56 0 l 56 11 q 117 93 56 88 l 157 96 l 157 856 l 56 864 q 68 925 54 899 q 110 951 82 951 l 435 951 q 699 880 604 951 q 793 681 793 808 q 688 440 793 526 q 393 354 582 354 m 331 440 l 375 440 q 549 501 486 440 q 613 665 613 563 q 563 818 613 767 q 422 867 513 869 l 331 864 l 331 440 z "},"Q":{"ha":957,"x_min":49,"x_max":908,"o":"m 822 -75 q 893 -53 858 -75 q 904 -103 904 -67 q 869 -168 904 -140 q 781 -196 833 -196 q 636 -158 728 -196 q 492 -92 544 -121 q 347 -10 439 -62 q 126 148 204 25 q 49 465 49 271 q 168 838 49 704 q 490 972 288 972 q 801 844 693 972 q 908 496 908 715 q 815 147 908 276 q 553 -12 722 17 q 822 -75 731 -75 m 229 482 q 291 192 229 292 q 472 90 353 92 q 663 188 599 92 q 728 474 728 285 q 665 762 728 663 q 478 861 601 861 q 229 482 229 861 z "},"R":{"ha":874,"x_min":56,"x_max":875,"o":"m 110 951 l 429 951 q 774 704 774 951 q 712 528 774 600 q 531 431 650 457 q 700 188 610 275 q 875 101 790 101 q 831 14 868 49 q 739 -21 794 -21 q 544 119 646 -21 q 386 417 443 258 l 331 417 l 331 99 l 447 90 q 385 0 456 0 l 56 0 q 56 11 56 0 q 117 93 56 88 l 157 96 l 157 856 l 56 864 q 68 925 54 899 q 110 951 82 951 m 331 864 l 331 504 q 361 503 342 503 q 593 694 593 503 q 548 824 593 779 q 417 867 503 869 l 333 864 l 331 864 z "},"S":{"ha":740,"x_min":35,"x_max":700,"o":"m 617 903 q 657 803 657 863 q 621 713 657 743 q 528 690 585 682 q 374 867 528 867 q 263 835 306 867 q 221 750 221 804 q 240 688 221 708 q 269 659 260 668 q 306 635 279 650 q 345 615 333 621 q 394 594 357 610 q 443 572 431 578 q 642 453 585 510 q 700 294 700 396 q 601 67 700 154 q 335 -21 503 -21 q 81 56 165 -21 q 35 156 35 99 q 72 247 35 214 q 182 281 108 281 q 224 132 182 179 q 358 85 267 85 q 503 127 450 85 q 556 233 556 169 q 506 336 556 297 q 372 411 456 375 q 263 459 289 447 q 193 498 236 471 q 131 550 150 525 q 76 703 76 617 q 174 903 76 835 q 408 972 271 972 q 617 903 546 972 z "},"T":{"ha":883,"x_min":28,"x_max":856,"o":"m 28 951 l 856 951 l 856 756 q 838 712 856 726 q 806 696 819 697 q 767 694 792 694 l 753 847 l 528 847 l 528 99 l 642 90 q 579 0 650 0 l 239 0 q 239 11 239 0 q 300 93 239 88 l 354 96 l 354 847 l 131 847 l 117 694 q 78 696 92 694 q 46 712 64 697 q 28 756 28 726 l 28 951 z "},"U":{"ha":929,"x_min":15,"x_max":915,"o":"m 665 951 l 915 951 q 915 940 915 951 q 854 858 915 864 l 814 856 l 814 403 q 726 81 814 183 q 465 -21 638 -21 q 204 76 293 -21 q 115 404 115 172 l 115 853 l 15 861 q 17 899 11 869 q 78 951 29 951 l 390 951 l 390 940 q 329 858 390 864 l 289 856 l 289 382 q 332 160 289 229 q 483 90 375 90 q 703 365 703 90 l 701 853 l 603 861 q 665 951 594 951 z "},"V":{"ha":897,"x_min":1,"x_max":896,"o":"m 633 951 l 896 951 q 896 940 896 951 q 835 858 896 864 l 801 856 l 508 0 l 368 0 l 90 853 l 1 861 q 3 899 -3 869 q 64 951 15 951 l 383 951 q 371 885 381 897 q 322 858 353 861 l 281 856 l 472 213 l 681 853 l 571 861 q 572 899 567 869 q 633 951 585 951 z "},"W":{"ha":1349,"x_min":0,"x_max":1349,"o":"m 1110 951 l 1347 951 q 1348 938 1347 950 q 1347 915 1349 925 q 1340 892 1344 904 q 1292 858 1331 861 l 1267 856 l 1000 0 l 853 0 l 674 556 l 488 0 l 335 0 l 82 853 l 1 861 q 1 892 0 876 q 17 930 1 908 q 63 951 32 951 l 374 951 q 361 886 369 899 q 313 858 342 861 l 274 856 l 440 201 l 651 856 l 767 856 l 956 201 l 1144 853 l 1047 861 q 1110 951 1039 951 z "},"X":{"ha":957,"x_min":15,"x_max":942,"o":"m 876 0 l 521 0 q 533 67 524 54 q 582 93 551 90 l 626 96 l 629 96 l 446 364 l 278 99 l 279 99 l 394 90 q 332 0 403 0 l 26 0 l 26 11 q 88 93 26 88 l 138 96 l 386 453 l 115 853 l 15 861 q 17 899 11 869 q 78 951 29 951 l 429 951 q 417 885 426 897 q 368 858 399 861 l 324 856 l 322 856 l 510 579 l 689 853 l 575 861 q 638 951 567 951 l 942 951 l 942 940 q 881 858 942 864 l 831 856 l 569 490 l 836 99 l 939 90 q 876 0 947 0 z "},"Y":{"ha":882,"x_min":1,"x_max":881,"o":"m 617 951 l 881 951 q 881 940 881 951 q 819 858 881 864 l 785 856 l 528 400 l 528 99 l 529 99 l 628 90 q 565 0 636 0 l 253 0 l 253 11 q 314 93 253 88 l 354 96 l 354 394 l 90 853 l 1 861 q 3 899 -3 869 q 64 951 15 951 l 400 951 q 388 885 397 897 q 339 858 369 861 l 294 856 l 292 856 l 479 518 l 663 853 l 554 861 q 556 899 550 869 q 617 951 568 951 z "},"Z":{"ha":819,"x_min":19,"x_max":774,"o":"m 772 0 l 46 0 q 19 74 24 49 l 546 847 l 210 836 l 197 721 q 90 644 185 625 l 90 951 l 736 951 q 774 883 774 925 l 253 100 l 651 121 l 668 238 q 701 304 675 289 q 772 311 728 319 l 772 0 z "},"[":{"ha":393,"x_min":111,"x_max":351,"o":"m 244 929 l 244 -125 l 351 -125 l 351 -215 l 111 -215 l 111 1019 l 351 1019 l 351 929 l 244 929 z "},"\\":{"ha":521,"x_min":28,"x_max":493,"o":"m 493 -125 l 356 -125 l 28 968 l 165 968 l 493 -125 z "},"]":{"ha":393,"x_min":42,"x_max":282,"o":"m 149 -125 l 149 929 l 42 929 l 42 1019 l 282 1019 l 282 -215 l 42 -215 l 42 -125 l 149 -125 z "},"^":{"ha":719,"x_min":83,"x_max":636,"o":"m 636 283 l 489 283 l 363 631 l 231 283 l 83 283 l 326 907 l 407 907 l 636 283 z "},"_":{"ha":556,"x_min":-42,"x_max":597,"o":"m -42 -97 l 597 -97 l 597 -201 l -42 -201 l -42 -97 z "},"`":{"ha":514,"x_min":99,"x_max":444,"o":"m 386 767 l 99 919 q 146 976 111 944 q 213 1014 181 1007 l 444 824 q 386 767 429 789 z "},"a":{"ha":724,"x_min":42,"x_max":710,"o":"m 710 63 q 601 -21 710 -21 q 461 51 493 -21 q 268 -21 374 -21 q 102 31 163 -21 q 42 174 42 83 q 113 324 42 265 q 336 382 183 382 q 450 374 396 382 l 450 435 q 419 571 450 531 q 333 611 388 611 q 247 576 279 611 q 214 482 214 542 q 122 499 158 476 q 85 569 85 522 q 154 679 85 636 q 333 722 224 722 q 619 444 619 722 l 619 74 l 710 63 m 450 269 q 345 288 400 288 q 254 262 290 288 q 218 189 218 236 q 318 92 218 92 q 450 132 389 92 l 450 269 z "},"b":{"ha":815,"x_min":15,"x_max":767,"o":"m 290 651 q 488 722 375 722 q 682 641 600 722 q 767 382 764 560 q 681 92 769 204 q 422 -21 593 -21 q 290 3 346 -21 l 121 56 l 121 871 l 67 876 q 15 963 10 882 l 290 993 l 290 651 m 433 92 q 590 351 590 92 q 549 536 590 471 q 433 601 508 601 q 290 539 358 601 l 290 147 q 433 92 357 92 z "},"c":{"ha":656,"x_min":49,"x_max":632,"o":"m 394 722 q 558 680 494 722 q 621 572 621 638 q 582 481 621 507 q 500 460 543 454 q 468 564 499 519 q 370 608 438 608 q 264 544 303 608 q 225 363 225 479 q 424 104 225 104 q 601 179 517 104 q 624 151 615 171 q 632 118 632 132 q 551 26 632 74 q 364 -21 469 -21 q 133 74 217 -21 q 49 342 49 169 q 143 618 49 514 q 394 722 238 722 z "},"d":{"ha":801,"x_min":49,"x_max":788,"o":"m 788 67 q 670 -22 788 -22 q 531 54 553 -22 q 328 -21 442 -21 q 133 60 215 -21 q 49 319 51 142 q 134 610 46 497 q 393 722 222 722 q 525 699 469 722 l 525 871 l 471 876 q 419 963 414 882 l 694 993 l 694 75 l 788 67 m 382 610 q 225 350 225 610 q 266 165 225 231 q 381 100 307 100 q 525 163 456 100 l 525 554 q 382 610 458 610 z "},"e":{"ha":690,"x_min":49,"x_max":647,"o":"m 225 340 l 225 325 q 266 158 225 213 q 408 103 307 103 q 606 179 508 103 q 633 115 633 158 q 556 25 633 71 q 364 -21 479 -21 q 131 67 214 -21 q 49 335 49 156 q 138 619 49 515 q 385 722 228 722 q 584 639 518 722 q 647 419 650 556 l 647 340 l 225 340 m 369 611 q 232 436 256 611 l 485 436 q 453 571 482 531 q 369 611 424 611 z "},"f":{"ha":547,"x_min":42,"x_max":567,"o":"m 144 701 l 144 739 q 218 934 144 856 q 411 1014 292 1013 q 567 919 567 1017 q 536 850 567 872 q 457 828 506 828 q 389 917 457 917 q 313 744 313 917 l 313 701 l 492 701 q 426 604 499 604 l 313 604 l 313 99 l 314 99 l 454 90 q 453 53 458 82 q 392 0 440 0 l 42 0 l 42 11 q 103 93 42 88 l 143 96 l 144 604 l 44 604 q 113 701 44 701 l 144 701 z "},"g":{"ha":671,"x_min":26,"x_max":667,"o":"m 308 203 q 239 210 274 203 q 219 160 219 175 q 251 140 219 144 q 403 131 283 135 q 588 88 522 126 q 654 -43 654 50 q 556 -247 654 -171 q 313 -324 457 -324 q 98 -271 169 -324 q 26 -135 26 -218 q 107 24 26 -51 q 86 90 86 49 q 156 244 86 164 q 49 456 49 314 q 123 647 49 571 q 322 722 197 722 q 467 689 404 722 l 653 739 q 667 682 665 724 q 653 626 668 640 q 544 618 632 615 q 579 452 585 558 q 500 274 574 346 q 308 203 426 203 m 536 -86 q 489 -44 536 -54 q 329 -29 442 -35 q 185 -17 217 -24 q 150 -101 150 -58 q 194 -172 150 -144 q 328 -200 239 -200 q 476 -167 417 -200 q 536 -86 536 -135 m 311 304 q 390 345 361 304 q 419 460 419 386 q 392 576 419 535 q 313 617 364 617 q 234 575 261 617 q 207 458 207 533 q 311 304 207 304 z "},"h":{"ha":901,"x_min":43,"x_max":875,"o":"m 813 0 l 506 0 l 506 11 q 567 93 506 88 l 607 96 l 607 438 q 574 551 607 519 q 467 583 540 583 q 318 519 393 583 l 318 99 l 417 90 q 354 0 425 0 l 44 0 l 44 11 q 106 93 44 88 l 149 96 l 149 869 l 94 875 q 43 961 38 881 l 318 992 l 318 638 q 522 722 417 722 q 702 651 628 722 q 776 431 776 579 l 776 99 l 875 90 q 813 0 883 0 z "},"i":{"ha":443,"x_min":43,"x_max":417,"o":"m 354 0 l 44 0 l 44 11 q 106 93 44 88 l 149 96 l 149 600 l 94 606 q 43 692 38 611 l 318 722 l 318 99 l 417 90 q 354 0 425 0 m 325 888 q 325 866 325 888 q 296 815 325 844 q 223 785 267 785 q 149 815 179 785 q 119 888 119 844 q 149 960 119 931 q 222 990 179 990 q 295 960 265 990 q 325 888 325 931 z "},"j":{"ha":406,"x_min":-114,"x_max":303,"o":"m 127 962 q 142 977 127 962 q 200 992 157 992 q 273 962 243 992 q 303 888 303 932 q 274 815 303 844 q 201 786 244 786 q 127 816 157 786 q 97 889 97 846 q 127 962 97 932 m 294 104 q 215 -220 294 -115 q 4 -324 135 -325 q -56 -311 -26 -324 q -114 -222 -114 -285 q -85 -159 -114 -181 q -11 -137 -56 -137 q 2 -192 -11 -169 q 50 -214 15 -214 q 105 -180 85 -214 q 125 -31 125 -146 l 125 601 l 65 607 q 18 693 18 611 l 294 722 l 294 104 z "},"k":{"ha":814,"x_min":43,"x_max":806,"o":"m 497 701 l 746 701 l 746 690 q 685 608 746 614 l 654 607 l 485 415 l 713 99 l 806 90 q 789 26 810 51 q 736 0 768 0 l 588 0 l 379 296 l 318 228 l 318 99 l 418 90 q 417 53 422 82 q 356 0 404 0 l 46 0 l 46 11 q 107 93 46 88 l 149 96 l 149 871 l 94 876 q 43 963 38 882 l 318 993 l 318 371 l 514 603 l 435 611 q 436 649 431 619 q 497 701 449 701 z "},"l":{"ha":443,"x_min":43,"x_max":417,"o":"m 354 0 l 44 0 l 44 11 q 106 93 44 88 l 149 96 l 149 871 l 94 876 q 43 963 38 882 l 318 993 l 318 99 l 417 90 q 354 0 425 0 z "},"m":{"ha":1336,"x_min":43,"x_max":1310,"o":"m 1247 0 l 940 0 l 940 11 q 1001 93 940 88 l 1042 96 l 1042 438 q 1008 551 1042 518 q 902 583 975 583 q 756 519 829 583 q 765 431 765 476 l 765 99 l 864 90 q 801 0 872 0 l 492 0 l 492 11 q 553 93 492 88 l 596 96 l 596 438 q 563 551 596 518 q 461 583 529 583 q 318 519 393 583 l 318 99 l 417 90 q 354 0 425 0 l 44 0 l 44 11 q 106 93 44 88 l 149 96 l 149 592 l 94 597 q 43 683 38 603 l 294 714 l 304 629 l 308 629 q 365 676 344 661 q 428 707 386 692 q 524 722 471 722 q 632 695 578 722 q 721 613 686 668 q 949 722 836 722 q 1137 651 1063 722 q 1211 431 1211 579 l 1211 99 l 1310 90 q 1308 53 1314 82 q 1247 0 1296 0 z "},"n":{"ha":901,"x_min":43,"x_max":875,"o":"m 813 0 l 506 0 l 506 11 q 567 93 506 88 l 607 96 l 607 438 q 575 551 607 518 q 486 583 543 583 q 393 568 429 583 q 318 519 357 553 l 318 99 l 417 90 q 354 0 425 0 l 44 0 l 44 11 q 106 93 44 88 l 149 96 l 149 592 l 94 597 q 43 683 38 603 l 294 714 l 304 629 l 308 629 q 408 698 360 674 q 521 722 456 722 q 702 651 628 722 q 776 431 776 579 l 776 99 l 875 90 q 813 0 883 0 z "},"o":{"ha":753,"x_min":49,"x_max":704,"o":"m 488 542 q 468 578 488 542 q 376 615 449 615 q 265 543 304 615 q 225 347 225 471 q 265 153 225 222 q 376 85 304 85 q 488 152 449 85 q 528 344 528 219 q 488 542 528 468 m 49 340 q 49 428 49 340 q 137 619 49 517 q 382 722 225 722 q 622 624 539 722 q 704 351 704 525 q 615 78 704 176 q 367 -21 526 -21 q 128 71 208 -21 q 49 340 49 163 z "},"p":{"ha":815,"x_min":17,"x_max":767,"o":"m 281 642 q 485 722 371 722 q 682 641 600 722 q 767 382 764 560 q 681 92 769 204 q 422 -21 593 -21 q 290 3 346 -21 l 290 -204 l 292 -204 l 389 -212 q 326 -303 397 -303 l 17 -303 l 17 -292 q 78 -210 17 -215 l 121 -207 l 121 592 l 61 599 q 18 682 18 604 l 268 714 l 281 642 m 433 92 q 590 351 590 92 q 549 536 590 471 q 433 601 508 601 q 290 539 358 601 l 290 147 q 433 92 357 92 z "},"q":{"ha":779,"x_min":49,"x_max":783,"o":"m 721 -303 l 421 -303 l 421 -292 q 482 -210 421 -215 l 525 -207 l 525 50 q 328 -21 440 -21 q 133 60 215 -21 q 49 319 51 142 q 134 610 46 497 q 393 722 222 722 q 568 676 492 722 l 694 701 l 694 -204 l 696 -204 l 783 -212 q 721 -303 792 -303 m 382 610 q 225 350 225 610 q 266 165 225 231 q 381 100 307 100 q 525 163 456 100 l 525 554 q 382 610 458 610 z "},"r":{"ha":621,"x_min":42,"x_max":618,"o":"m 310 600 q 405 683 343 644 q 512 722 467 722 q 588 693 557 722 q 618 597 618 664 q 572 489 618 529 q 493 478 549 471 q 485 548 493 524 q 467 577 476 572 q 440 582 457 582 q 315 492 371 582 l 315 99 l 428 90 q 365 0 436 0 l 44 0 q 44 11 44 0 q 106 93 44 88 l 146 96 l 146 593 l 85 600 q 42 683 42 604 l 293 715 l 306 600 l 310 600 z "},"s":{"ha":603,"x_min":35,"x_max":568,"o":"m 497 671 q 532 592 532 640 q 501 517 532 543 q 421 497 469 490 q 381 584 421 549 q 291 619 340 619 q 215 601 242 619 q 189 551 189 582 q 227 497 189 521 q 335 444 265 472 q 436 401 406 417 q 501 358 467 385 q 568 210 568 308 q 489 46 568 113 q 278 -21 410 -21 q 108 15 181 -21 q 35 124 35 51 q 69 199 35 172 q 151 226 104 226 q 313 85 169 85 q 428 161 428 85 q 367 242 428 211 q 286 278 333 260 q 212 309 239 296 q 153 343 185 322 q 100 386 121 364 q 54 511 54 438 q 135 667 54 611 q 328 722 215 722 q 497 671 440 722 z "},"t":{"ha":569,"x_min":4,"x_max":554,"o":"m 289 604 l 289 219 q 361 107 289 107 q 449 121 414 107 q 525 168 485 135 q 543 150 532 168 q 554 111 554 132 q 478 18 554 57 q 329 -21 401 -21 q 215 -1 257 -21 q 153 58 174 19 q 119 228 119 122 l 119 604 l 4 604 q 72 701 4 701 l 119 701 l 119 879 l 289 897 l 289 701 l 539 701 q 535 654 542 681 q 471 604 522 604 l 289 604 z "},"u":{"ha":835,"x_min":14,"x_max":800,"o":"m 444 614 q 506 701 444 701 l 722 701 l 722 93 l 753 93 q 800 6 800 92 l 603 -14 l 574 64 q 370 -21 475 -21 q 190 51 265 -21 q 115 271 115 122 l 115 603 l 14 603 l 14 614 q 75 701 14 701 l 285 701 l 285 264 q 318 142 285 178 q 421 106 351 106 q 553 153 490 106 l 553 603 l 444 603 l 444 614 z "},"v":{"ha":725,"x_min":0,"x_max":725,"o":"m 525 701 l 725 701 q 675 608 725 613 l 654 606 l 404 0 l 311 0 l 65 603 l 64 603 l 0 611 q 13 674 -1 647 q 60 701 26 701 l 335 701 q 322 638 332 650 q 274 608 301 611 l 251 606 l 386 256 l 522 604 l 463 611 q 464 649 458 619 q 525 701 476 701 z "},"w":{"ha":1015,"x_min":0,"x_max":1015,"o":"m 815 701 l 1015 701 q 965 608 1015 613 l 944 606 l 708 0 l 615 0 l 492 368 l 353 0 l 260 0 l 64 603 l 0 611 q 13 674 -1 647 q 60 701 26 701 l 335 701 q 322 638 332 650 q 274 608 301 611 l 250 606 l 349 264 l 476 633 l 589 635 l 697 282 l 808 604 l 753 611 q 815 701 744 701 z "},"x":{"ha":729,"x_min":8,"x_max":721,"o":"m 658 0 l 367 0 q 379 64 369 53 q 428 93 400 88 l 444 96 l 447 96 l 328 261 l 225 99 l 297 90 q 235 0 306 0 l 10 0 l 10 11 q 71 93 10 88 l 103 96 l 272 339 l 82 603 l 8 611 q 13 653 6 628 q 71 701 26 701 l 357 701 q 344 640 353 653 q 285 606 326 615 l 283 606 l 401 442 l 504 603 l 501 603 l 443 611 q 444 649 439 619 q 506 701 457 701 l 714 701 l 714 690 q 653 608 714 614 l 624 606 l 460 361 l 649 99 l 721 90 q 719 53 725 82 q 658 0 707 0 z "},"y":{"ha":744,"x_min":1,"x_max":744,"o":"m 546 701 l 744 701 q 744 690 744 701 q 683 608 744 618 l 678 607 l 447 47 l 449 47 q 424 -11 442 32 q 398 -72 406 -54 q 372 -126 390 -89 q 343 -181 354 -164 q 314 -226 332 -199 q 280 -267 296 -254 q 243 -296 264 -281 q 149 -324 206 -324 q 57 -294 92 -324 q 22 -223 22 -265 q 47 -155 22 -181 q 103 -129 72 -129 q 140 -132 133 -129 q 172 -206 125 -206 q 258 -119 213 -206 q 331 58 303 -32 l 85 603 l 78 603 l 1 611 q 3 649 -3 619 q 64 701 15 701 l 351 701 q 339 638 347 650 q 290 608 318 614 l 275 606 l 415 258 l 549 604 l 483 611 q 546 701 475 701 z "},"z":{"ha":621,"x_min":21,"x_max":600,"o":"m 65 701 l 561 701 q 583 664 572 692 q 594 619 594 636 l 233 93 l 485 101 l 497 174 q 533 224 501 211 q 600 228 564 236 l 600 0 l 44 0 q 21 76 21 44 l 390 613 l 178 604 l 168 531 q 133 481 164 493 q 65 476 101 468 l 65 701 z "},"{":{"ha":514,"x_min":69,"x_max":486,"o":"m 140 836 q 199 969 140 918 q 358 1019 258 1019 q 486 1001 457 1019 l 483 925 q 442 928 464 928 q 324 901 368 928 q 281 829 281 874 q 292 716 281 801 q 304 563 304 631 q 283 447 304 494 q 229 389 263 400 l 229 375 q 283 317 263 364 q 304 215 304 269 q 292 64 304 160 q 281 -71 281 -32 q 324 -137 281 -110 q 442 -164 368 -164 q 483 -161 464 -164 l 486 -237 q 340 -256 429 -256 q 196 -205 251 -256 q 140 -72 140 -154 q 151 68 140 -31 q 163 224 163 167 q 131 317 163 281 q 69 356 115 336 l 69 408 q 131 447 115 428 q 163 540 163 483 q 151 694 163 597 q 140 836 140 792 z "},"|":{"ha":411,"x_min":139,"x_max":272,"o":"m 139 -268 l 139 1019 l 272 1019 l 272 -268 l 139 -268 z "},"}":{"ha":514,"x_min":28,"x_max":444,"o":"m 28 1001 q 156 1019 57 1019 q 315 969 256 1019 q 374 836 374 918 q 363 694 374 792 q 351 540 351 597 q 383 447 351 483 q 444 408 399 428 l 444 356 q 383 317 399 336 q 351 224 351 281 q 363 68 351 167 q 374 -72 374 -31 q 318 -205 374 -154 q 174 -256 263 -256 q 28 -237 85 -256 l 31 -161 q 72 -164 50 -164 q 190 -137 146 -164 q 233 -71 233 -110 q 222 64 233 -32 q 210 215 210 160 q 231 317 210 269 q 285 375 251 364 l 285 389 q 231 447 251 400 q 210 563 210 494 q 222 716 210 631 q 233 829 233 801 q 190 901 233 874 q 72 928 146 928 q 31 925 50 928 l 28 1001 z "},"~":{"ha":833,"x_min":139,"x_max":694,"o":"m 139 336 q 197 465 151 415 q 301 514 242 514 q 428 473 361 514 q 538 432 496 432 q 607 451 579 432 q 643 503 635 471 l 694 490 q 638 353 681 399 q 523 308 594 308 q 381 344 451 308 q 281 381 310 381 q 228 364 251 381 q 193 319 204 347 l 139 336 z "}," ":{"ha":372,"x_min":0,"x_max":0,"o":""},"¡":{"ha":331,"x_min":56,"x_max":275,"o":"m 82 0 l 108 667 q 222 667 168 682 l 265 -10 q 82 0 161 -29 m 88 960 q 103 976 88 960 q 165 992 119 992 q 243 960 211 992 q 275 882 275 928 q 243 804 275 836 q 165 772 211 772 q 88 804 119 772 q 56 882 56 836 q 88 960 56 928 z "},"¢":{"ha":725,"x_min":69,"x_max":656,"o":"m 451 721 q 590 672 539 713 q 642 569 642 632 q 603 481 642 507 q 521 460 564 454 q 489 564 519 519 q 392 608 458 608 q 285 544 325 608 q 246 363 246 481 q 290 174 246 246 q 441 103 335 103 q 625 172 547 103 q 647 144 638 164 q 656 115 656 125 q 596 37 656 76 q 450 -17 536 -3 l 464 -161 q 400 -172 443 -172 q 339 -161 357 -172 l 351 -21 q 145 83 221 -11 q 69 335 69 176 q 142 597 69 494 q 350 718 215 699 l 339 847 q 400 858 357 858 q 464 847 443 858 l 451 721 z "},"£":{"ha":757,"x_min":64,"x_max":694,"o":"m 614 0 l 72 0 q 64 79 60 29 q 158 149 129 97 q 197 364 189 206 l 83 364 l 83 457 l 200 457 q 203 540 200 515 q 486 875 217 875 q 626 840 571 875 q 681 747 681 804 q 649 665 681 689 q 564 644 617 640 q 469 778 564 778 q 353 540 365 778 l 350 457 l 563 457 l 563 364 l 344 364 q 321 192 336 256 q 276 108 306 128 l 694 108 q 614 0 700 0 z "},"¤":{"ha":836,"x_min":63,"x_max":774,"o":"m 276 397 q 276 365 276 397 q 314 294 276 333 q 413 254 351 254 q 514 294 475 254 q 553 397 553 333 q 514 499 553 460 q 413 539 475 539 q 314 500 351 539 q 276 397 276 461 m 639 556 q 682 396 682 489 q 639 236 682 303 l 774 126 q 724 72 757 104 q 675 31 692 40 l 561 165 q 418 129 503 129 q 274 163 333 129 l 161 31 q 112 72 144 40 q 63 126 79 104 l 194 233 q 146 394 146 297 q 194 560 146 492 l 63 665 q 113 719 81 688 q 161 760 144 751 l 271 631 q 419 665 336 665 q 563 628 503 665 l 675 760 q 724 719 692 751 q 774 665 756 688 l 639 556 z "},"¥":{"ha":924,"x_min":22,"x_max":904,"o":"m 613 861 l 904 861 q 904 850 904 861 q 843 768 904 774 l 793 765 l 789 765 l 592 457 l 703 457 l 703 364 l 551 364 l 551 293 l 703 293 l 703 200 l 551 200 l 551 99 l 553 99 l 651 90 q 650 53 656 82 q 589 0 638 0 l 282 0 l 282 11 q 343 93 282 88 l 383 96 l 383 200 l 224 200 l 224 293 l 383 293 l 383 364 l 224 364 l 224 457 l 331 457 l 115 764 l 22 771 q 85 861 14 861 l 404 861 q 392 794 401 807 q 343 768 374 771 l 310 767 l 488 492 l 653 764 l 550 771 q 613 861 542 861 z "},"¦":{"ha":411,"x_min":139,"x_max":272,"o":"m 139 499 l 139 1019 l 272 1019 l 272 499 l 139 499 m 272 253 l 272 -268 l 139 -268 l 139 253 l 272 253 z "},"§":{"ha":804,"x_min":69,"x_max":735,"o":"m 735 -96 q 636 -324 735 -236 q 369 -411 538 -411 q 117 -333 200 -411 q 69 -234 69 -292 q 106 -143 69 -176 q 217 -110 143 -110 q 259 -258 217 -211 q 393 -306 301 -306 q 538 -263 485 -306 q 590 -157 590 -221 q 540 -54 590 -93 q 407 21 490 -15 q 297 69 324 57 q 228 108 271 81 q 164 160 185 135 q 111 313 111 226 q 207 513 111 438 q 111 710 111 585 q 208 903 111 835 q 439 972 306 972 q 651 903 581 972 q 692 803 692 863 q 656 713 692 743 q 563 690 619 682 q 408 867 563 867 q 298 835 340 867 q 256 750 256 804 q 275 688 256 708 q 304 659 294 668 q 341 635 314 650 q 380 615 368 621 q 428 594 392 610 q 478 572 465 578 q 677 453 619 510 q 735 282 735 396 q 654 83 735 168 q 735 -96 735 17 m 256 360 q 275 298 256 318 q 304 269 294 278 q 341 245 314 260 q 380 225 368 231 q 428 203 392 219 q 494 176 465 188 q 557 144 522 164 q 590 240 590 182 q 540 336 590 297 q 381 422 490 375 q 310 453 367 428 q 256 360 256 422 z "},"¨":{"ha":833,"x_min":124,"x_max":585,"o":"m 585 894 q 585 874 585 894 q 556 826 585 854 q 487 797 528 797 q 417 826 446 797 q 389 894 389 854 q 418 963 389 933 q 488 992 447 992 q 556 963 528 992 q 585 894 585 935 m 291 826 q 277 811 291 826 q 222 797 263 797 q 153 826 182 797 q 124 894 124 854 q 153 963 124 935 q 222 992 182 992 q 291 963 263 992 q 319 894 319 935 q 291 826 319 854 z "},"©":{"ha":994,"x_min":69,"x_max":925,"o":"m 522 650 q 621 625 583 650 q 658 563 658 600 q 635 510 658 525 q 588 499 613 494 q 569 548 588 525 q 514 571 550 571 q 456 538 478 571 q 435 451 435 506 q 542 301 435 301 q 647 343 601 301 q 665 301 665 331 q 617 245 665 271 q 494 219 568 219 q 370 275 421 219 q 319 430 319 331 q 374 590 319 529 q 522 650 428 650 m 803 432 q 803 506 803 432 q 719 665 803 579 q 495 750 635 750 q 274 663 356 750 q 193 430 193 576 q 275 199 193 283 q 498 114 357 114 q 721 199 639 114 q 803 432 803 285 m 69 426 q 69 523 69 426 q 185 740 69 619 q 494 861 301 861 q 806 744 688 861 q 925 432 925 626 q 808 120 925 238 q 497 3 692 3 q 186 118 303 3 q 69 426 69 233 z "},"ª":{"ha":524,"x_min":51,"x_max":503,"o":"m 503 463 q 429 404 503 404 q 333 451 356 404 q 204 404 276 404 q 92 438 132 404 q 51 531 51 471 q 100 627 51 590 q 253 664 149 664 q 325 658 293 664 l 325 683 q 250 797 325 797 q 172 717 172 797 q 108 729 133 713 q 83 784 83 746 q 130 851 83 822 q 260 879 176 879 q 449 692 449 879 l 449 469 l 503 463 m 264 592 q 183 535 183 592 q 246 490 183 490 q 325 515 286 490 l 325 582 q 264 592 294 592 z "},"«":{"ha":863,"x_min":61,"x_max":835,"o":"m 479 613 l 257 356 l 257 343 l 488 86 l 400 17 l 61 308 q 61 390 49 350 l 400 682 l 479 613 m 826 613 l 604 356 l 604 343 l 835 86 l 747 17 l 408 308 q 408 390 396 350 l 747 682 l 826 613 z "},"¬":{"ha":706,"x_min":69,"x_max":636,"o":"m 69 433 l 636 433 l 636 322 l 635 154 l 524 154 l 525 322 l 69 322 l 69 433 z "},"­":{"ha":563,"x_min":56,"x_max":507,"o":"m 56 433 l 507 433 l 507 308 l 56 308 l 56 433 z "},"®":{"ha":876,"x_min":69,"x_max":807,"o":"m 69 637 q 69 720 69 637 q 174 906 69 804 q 444 1008 278 1008 q 708 903 610 1008 q 807 633 807 799 q 705 366 807 467 q 439 264 603 265 q 172 367 275 265 q 69 637 69 469 m 174 636 q 174 572 174 636 q 247 431 174 507 q 438 356 319 356 q 630 430 557 356 q 703 633 703 504 q 633 840 703 763 q 442 917 563 917 q 247 841 321 917 q 174 636 174 765 m 314 828 l 440 828 q 581 735 581 828 q 492 632 581 654 q 626 517 556 517 q 606 479 624 493 q 567 465 589 465 q 483 515 522 465 q 419 624 443 564 l 408 624 l 408 524 l 457 521 q 454 491 460 510 q 428 472 449 472 l 292 472 q 318 522 292 519 l 331 522 l 331 775 l 290 779 q 297 812 290 796 q 314 828 303 828 m 408 671 l 411 671 q 501 729 501 671 q 440 779 501 779 l 408 779 l 408 671 z "},"¯":{"ha":833,"x_min":153,"x_max":563,"o":"m 153 900 l 563 900 l 563 803 l 153 803 l 153 900 z "},"°":{"ha":542,"x_min":83,"x_max":458,"o":"m 213 864 q 202 853 213 864 q 192 806 192 842 q 214 745 192 769 q 272 721 236 721 q 328 744 307 721 q 350 804 350 768 q 328 863 350 840 q 270 886 306 886 q 213 864 235 886 m 136 674 q 110 699 136 674 q 83 804 83 724 q 137 935 83 885 q 272 985 190 985 q 406 935 354 985 q 458 806 458 886 q 406 674 458 725 q 271 624 353 624 q 136 674 189 624 z "},"±":{"ha":706,"x_min":69,"x_max":636,"o":"m 411 426 l 636 426 l 636 315 l 411 315 l 411 179 l 297 179 l 297 315 l 69 315 l 69 426 l 297 426 l 297 654 l 411 654 l 411 426 m 69 0 l 69 111 l 636 111 l 636 0 l 69 0 z "},"²":{"ha":490,"x_min":53,"x_max":444,"o":"m 444 386 l 69 386 q 53 450 49 438 q 93 482 60 456 q 140 519 126 508 q 184 557 154 531 q 228 601 214 583 q 261 644 243 619 q 294 728 294 689 q 280 787 294 767 q 242 807 265 807 q 181 774 200 807 q 161 694 161 740 q 65 761 65 692 q 115 844 65 811 q 246 876 165 876 q 374 839 326 876 q 422 731 422 801 q 351 583 422 660 q 200 461 279 507 l 378 461 l 383 511 q 404 539 385 532 q 444 540 424 546 l 444 386 z "},"³":{"ha":451,"x_min":49,"x_max":424,"o":"m 271 764 q 258 795 271 783 q 221 807 244 807 q 147 735 158 807 q 78 786 78 735 q 117 851 78 825 q 235 876 157 876 q 358 847 313 876 q 404 768 404 818 q 282 654 404 685 q 387 613 350 647 q 424 523 424 579 q 368 424 424 467 q 225 381 313 381 q 93 406 138 381 q 49 467 49 432 q 67 504 49 489 q 119 519 86 519 q 144 470 119 490 q 206 450 168 450 q 267 470 244 450 q 290 522 290 490 q 142 599 290 610 l 140 672 q 228 694 185 672 q 271 764 271 717 z "},"´":{"ha":833,"x_min":219,"x_max":565,"o":"m 565 919 l 278 767 q 219 824 235 789 l 451 1014 q 518 976 483 1007 q 565 919 553 944 z "},"µ":{"ha":814,"x_min":83,"x_max":779,"o":"m 779 63 q 671 -21 779 -21 q 531 51 563 -21 q 344 -21 443 -21 q 250 -6 299 -21 l 257 -314 q 165 -328 236 -328 q 83 -314 94 -328 l 90 222 q 88 271 88 253 l 88 701 l 257 701 l 257 264 q 290 142 257 178 q 392 106 324 106 q 519 149 460 106 l 519 701 l 689 701 l 689 74 l 779 63 z "},"¶":{"ha":1043,"x_min":63,"x_max":981,"o":"m 335 951 l 926 951 q 967 928 953 951 q 981 864 982 904 l 879 856 l 879 -125 l 708 -125 l 708 856 l 557 856 l 557 -125 l 386 -125 l 386 382 q 149 460 235 382 q 63 668 63 539 q 138 874 63 797 q 335 951 213 951 z "},"·":{"ha":342,"x_min":56,"x_max":286,"o":"m 253 308 q 236 292 253 308 q 171 275 219 275 q 89 308 122 275 q 56 390 56 342 q 89 472 56 439 q 171 506 122 506 q 253 472 219 506 q 286 390 286 439 q 253 308 286 342 z "},"¸":{"ha":833,"x_min":294,"x_max":538,"o":"m 421 -64 q 508 -94 479 -64 q 538 -171 538 -125 q 499 -251 538 -217 q 395 -285 460 -285 q 294 -246 331 -285 q 299 -211 293 -231 q 311 -187 304 -192 q 381 -208 336 -208 q 426 -167 426 -208 q 407 -131 426 -143 q 331 -119 388 -119 l 368 25 l 443 25 l 421 -64 z "},"¹":{"ha":408,"x_min":42,"x_max":365,"o":"m 324 386 l 65 386 l 65 394 q 71 425 65 410 q 106 453 79 450 l 154 456 l 154 747 l 101 731 q 58 747 76 724 q 42 783 40 769 l 181 860 q 247 871 201 871 q 279 825 279 871 l 279 457 l 365 451 q 324 386 365 386 z "},"º":{"ha":557,"x_min":57,"x_max":489,"o":"m 274 796 q 209 755 232 796 q 186 640 186 714 q 273 488 186 488 q 360 631 360 488 q 274 796 360 796 m 57 636 q 57 693 57 636 q 115 815 57 750 q 278 879 172 879 q 437 810 385 879 q 489 633 489 742 q 431 464 489 524 q 266 404 372 404 q 108 463 160 404 q 57 636 57 522 z "},"»":{"ha":863,"x_min":28,"x_max":801,"o":"m 258 356 l 36 613 l 115 682 l 454 390 q 454 308 467 350 l 115 17 l 28 86 l 258 343 l 258 356 m 606 356 l 383 613 l 463 682 l 801 390 q 801 308 814 350 l 463 17 l 375 86 l 606 343 l 606 356 z "},"¼":{"ha":1028,"x_min":42,"x_max":972,"o":"m 972 153 l 972 83 l 910 83 l 910 -14 l 785 -21 l 785 83 l 586 83 q 560 139 567 107 l 806 485 q 910 490 861 496 l 910 153 l 972 153 m 785 153 l 785 331 l 661 153 l 785 153 m 701 875 l 847 875 l 353 0 l 207 0 l 701 875 m 322 386 l 67 386 l 67 394 q 72 425 67 410 q 107 453 81 450 l 154 456 l 154 747 l 101 731 q 58 747 76 724 q 42 783 40 769 l 181 860 q 247 871 201 871 q 279 825 279 871 l 279 457 l 364 451 q 322 386 364 386 z "},"½":{"ha":1028,"x_min":26,"x_max":1001,"o":"m 1001 0 l 626 0 q 610 64 606 51 q 650 96 617 69 q 697 133 683 122 q 741 171 711 144 q 785 215 771 197 q 818 258 800 233 q 851 342 851 303 q 837 401 851 381 q 799 421 822 421 q 738 388 757 421 q 718 308 718 354 q 622 375 622 306 q 672 458 622 425 q 803 490 722 490 q 931 453 883 490 q 979 344 979 415 q 908 197 979 274 q 757 75 836 121 l 935 75 l 940 125 q 961 153 942 146 q 1001 154 981 160 l 1001 0 m 685 875 l 831 875 l 336 0 l 190 0 l 685 875 m 307 383 l 51 383 l 51 392 q 57 422 51 407 q 92 450 65 447 l 139 453 l 139 744 l 86 728 q 43 744 61 721 q 26 781 25 767 l 165 857 q 232 868 186 868 q 264 822 264 868 l 264 454 l 349 449 q 307 383 349 383 z "},"¾":{"ha":1028,"x_min":49,"x_max":981,"o":"m 981 153 l 981 83 l 918 83 l 918 -14 l 793 -21 l 793 83 l 594 83 q 568 139 575 107 l 814 485 q 918 490 869 496 l 918 153 l 981 153 m 793 153 l 793 331 l 669 153 l 793 153 m 729 875 l 875 875 l 381 0 l 235 0 l 729 875 m 271 764 q 258 795 271 783 q 221 807 244 807 q 147 735 158 807 q 78 786 78 735 q 117 851 78 825 q 235 876 157 876 q 358 847 313 876 q 404 768 404 818 q 282 654 404 685 q 387 613 350 647 q 424 523 424 579 q 368 424 424 467 q 225 381 313 381 q 93 406 138 381 q 49 467 49 432 q 67 504 49 489 q 119 519 86 519 q 144 470 119 490 q 206 450 168 450 q 267 470 244 450 q 290 522 290 490 q 142 599 290 610 l 140 672 q 228 694 185 672 q 271 764 271 717 z "},"¿":{"ha":699,"x_min":56,"x_max":643,"o":"m 494 783 q 478 767 494 783 q 417 751 463 751 q 339 783 371 751 q 307 861 307 815 q 339 939 307 907 q 417 971 371 971 q 494 939 463 971 q 526 861 526 907 q 494 783 526 815 m 643 151 q 567 18 643 79 q 354 -43 492 -43 q 136 24 217 -43 q 56 205 56 92 q 140 402 56 318 q 353 508 224 486 l 361 649 q 472 649 400 658 l 481 429 q 313 360 383 406 q 232 211 232 308 q 266 106 232 149 q 360 63 300 63 q 460 100 421 63 q 524 243 524 161 q 608 220 574 243 q 643 151 643 197 z "},"À":{"ha":917,"x_min":18,"x_max":896,"o":"m 833 0 l 508 0 l 508 11 q 569 93 508 88 l 610 96 l 611 96 l 556 297 l 306 297 l 247 99 l 360 90 q 358 53 364 82 q 297 0 346 0 l 18 0 l 18 11 q 79 93 18 88 l 131 96 l 397 951 q 538 951 457 957 l 799 99 l 896 90 q 894 53 900 82 q 833 0 882 0 m 332 390 l 531 390 l 435 742 l 332 390 m 369 1264 l 601 1074 q 543 1017 586 1039 l 256 1169 q 303 1226 268 1194 q 369 1264 338 1257 z "},"Á":{"ha":917,"x_min":18,"x_max":896,"o":"m 833 0 l 508 0 l 508 11 q 569 93 508 88 l 610 96 l 611 96 l 556 297 l 306 297 l 247 99 l 360 90 q 358 53 364 82 q 297 0 346 0 l 18 0 l 18 11 q 79 93 18 88 l 131 96 l 397 951 q 538 951 457 957 l 799 99 l 896 90 q 894 53 900 82 q 833 0 882 0 m 332 390 l 531 390 l 435 742 l 332 390 m 699 1169 l 411 1017 q 353 1074 368 1039 l 585 1264 q 651 1226 617 1257 q 699 1169 686 1194 z "},"Â":{"ha":917,"x_min":18,"x_max":896,"o":"m 833 0 l 508 0 l 508 11 q 569 93 508 88 l 610 96 l 611 96 l 556 297 l 306 297 l 247 99 l 360 90 q 358 53 364 82 q 297 0 346 0 l 18 0 l 18 11 q 79 93 18 88 l 131 96 l 397 951 q 538 951 457 957 l 799 99 l 896 90 q 894 53 900 82 q 833 0 882 0 m 332 390 l 531 390 l 435 742 l 332 390 m 467 1124 l 272 1004 q 224 1057 242 1022 l 417 1232 q 522 1232 474 1244 l 710 1057 q 658 1004 686 1019 l 467 1124 z "},"Ã":{"ha":917,"x_min":18,"x_max":896,"o":"m 833 0 l 508 0 l 508 11 q 569 93 508 88 l 610 96 l 611 96 l 556 297 l 306 297 l 247 99 l 360 90 q 358 53 364 82 q 297 0 346 0 l 18 0 l 18 11 q 79 93 18 88 l 131 96 l 397 951 q 538 951 457 957 l 799 99 l 896 90 q 894 53 900 82 q 833 0 882 0 m 332 390 l 531 390 l 435 742 l 332 390 m 556 1031 q 439 1067 500 1031 q 353 1103 378 1103 q 307 1086 328 1103 q 278 1042 286 1069 l 231 1058 q 281 1187 242 1138 q 371 1236 319 1236 q 480 1195 422 1236 q 574 1154 538 1154 q 634 1174 610 1154 q 665 1225 658 1193 l 710 1213 q 556 1031 686 1031 z "},"Ä":{"ha":917,"x_min":18,"x_max":896,"o":"m 833 0 l 508 0 l 508 11 q 569 93 508 88 l 610 96 l 611 96 l 556 297 l 306 297 l 247 99 l 360 90 q 358 53 364 82 q 297 0 346 0 l 18 0 l 18 11 q 79 93 18 88 l 131 96 l 397 951 q 538 951 457 957 l 799 99 l 896 90 q 894 53 900 82 q 833 0 882 0 m 332 390 l 531 390 l 435 742 l 332 390 m 397 1076 q 382 1061 397 1076 q 328 1047 368 1047 q 258 1076 288 1047 q 229 1144 229 1104 q 258 1213 229 1185 q 328 1242 288 1242 q 397 1213 368 1242 q 425 1144 425 1185 q 397 1076 425 1104 m 690 1144 q 690 1124 690 1144 q 662 1076 690 1104 q 592 1047 633 1047 q 523 1076 551 1047 q 494 1144 494 1104 q 524 1213 494 1183 q 593 1242 553 1242 q 662 1213 633 1242 q 690 1144 690 1185 z "},"Å":{"ha":917,"x_min":18,"x_max":896,"o":"m 833 0 l 508 0 l 508 11 q 569 93 508 88 l 610 96 l 611 96 l 556 297 l 306 297 l 247 99 l 360 90 q 358 53 364 82 q 297 0 346 0 l 18 0 l 18 11 q 79 93 18 88 l 131 96 l 397 951 q 538 951 457 957 l 799 99 l 896 90 q 894 53 900 82 q 833 0 882 0 m 332 390 l 531 390 l 435 742 l 332 390 m 603 1138 q 602 1109 603 1138 q 565 1045 601 1081 q 469 1010 528 1010 q 374 1044 410 1010 q 339 1135 339 1078 q 376 1227 339 1192 q 473 1263 413 1263 q 569 1228 533 1263 q 603 1138 604 1194 m 531 1135 q 531 1149 531 1135 q 515 1178 531 1163 q 472 1194 499 1194 q 428 1179 444 1194 q 413 1136 413 1164 q 428 1092 413 1108 q 471 1076 444 1076 q 514 1092 497 1076 q 531 1135 531 1108 z "},"Æ":{"ha":1256,"x_min":18,"x_max":1213,"o":"m 1213 226 l 1213 0 l 513 0 q 574 93 513 89 l 614 96 l 614 404 l 394 404 l 250 99 l 360 90 q 358 53 364 82 q 297 0 346 0 l 18 0 l 18 11 q 79 93 18 88 l 133 96 l 549 951 l 1185 951 l 1185 742 q 1096 688 1185 679 l 1083 851 l 788 856 l 788 511 l 1036 540 q 1038 403 1051 474 l 788 417 l 788 99 l 1113 110 l 1124 281 q 1213 226 1213 289 m 614 497 l 614 853 l 606 854 l 438 497 l 614 497 z "},"Ç":{"ha":836,"x_min":49,"x_max":794,"o":"m 428 -19 q 144 118 240 -8 q 49 469 49 244 q 167 833 49 694 q 514 972 286 972 q 710 919 635 972 q 786 790 786 865 q 749 704 786 735 q 647 674 711 674 q 497 853 647 853 q 299 749 369 853 q 229 469 229 646 q 297 197 229 292 q 513 103 365 103 q 772 188 660 103 q 794 143 794 174 q 708 40 794 92 q 503 -19 622 -11 l 492 -64 q 579 -94 550 -64 q 608 -171 608 -125 q 569 -251 608 -217 q 466 -285 531 -285 q 365 -246 401 -285 q 369 -211 364 -231 q 382 -187 375 -192 q 452 -208 407 -208 q 497 -167 497 -208 q 478 -131 497 -143 q 401 -119 458 -119 l 428 -19 z "},"È":{"ha":796,"x_min":56,"x_max":754,"o":"m 522 1017 l 235 1169 q 282 1226 247 1194 q 349 1264 317 1257 l 581 1074 q 522 1017 565 1039 m 754 226 l 754 0 l 56 0 q 117 93 56 89 l 157 96 l 157 853 l 57 861 q 58 899 53 869 q 119 951 71 951 l 728 951 l 728 742 q 639 688 728 679 l 626 851 l 331 856 l 331 511 l 579 540 q 581 403 594 474 l 331 417 l 331 99 l 654 110 l 665 281 q 754 226 754 289 z "},"É":{"ha":796,"x_min":56,"x_max":754,"o":"m 678 1169 l 390 1017 q 332 1074 347 1039 l 564 1264 q 631 1226 596 1257 q 678 1169 665 1194 m 754 226 l 754 0 l 56 0 q 117 93 56 89 l 157 96 l 157 853 l 57 861 q 58 899 53 869 q 119 951 71 951 l 728 951 l 728 742 q 639 688 728 679 l 626 851 l 331 856 l 331 511 l 579 540 q 581 403 594 474 l 331 417 l 331 99 l 654 110 l 665 281 q 754 226 754 289 z "},"Ê":{"ha":796,"x_min":56,"x_max":754,"o":"m 754 226 l 754 0 l 56 0 q 117 93 56 89 l 157 96 l 157 853 l 57 861 q 58 899 53 869 q 119 951 71 951 l 728 951 l 728 742 q 639 688 728 679 l 626 851 l 331 856 l 331 511 l 579 540 q 581 403 594 474 l 331 417 l 331 99 l 654 110 l 665 281 q 754 226 754 289 m 446 1124 l 251 1004 q 203 1057 221 1022 l 396 1232 q 501 1232 453 1244 l 689 1057 q 638 1004 665 1019 l 446 1124 z "},"Ë":{"ha":796,"x_min":56,"x_max":754,"o":"m 669 1144 q 669 1124 669 1144 q 641 1076 669 1104 q 572 1047 613 1047 q 502 1076 531 1047 q 474 1144 474 1104 q 502 1213 474 1183 q 572 1242 531 1242 q 641 1213 613 1242 q 669 1144 669 1185 m 376 1076 q 361 1061 376 1076 q 307 1047 347 1047 q 238 1076 267 1047 q 208 1144 208 1104 q 238 1213 208 1185 q 307 1242 267 1242 q 376 1213 347 1242 q 404 1144 404 1185 q 376 1076 404 1104 m 754 226 l 754 0 l 56 0 q 117 93 56 89 l 157 96 l 157 853 l 57 861 q 58 899 53 869 q 119 951 71 951 l 728 951 l 728 742 q 639 688 728 679 l 626 851 l 331 856 l 331 511 l 579 540 q 581 403 594 474 l 331 417 l 331 99 l 654 110 l 665 281 q 754 226 754 289 z "},"Ì":{"ha":488,"x_min":32,"x_max":432,"o":"m 368 0 l 56 0 l 56 11 q 117 93 56 88 l 157 96 l 157 853 l 156 853 l 57 861 q 58 899 53 869 q 119 951 71 951 l 432 951 l 432 940 q 371 858 432 864 l 331 856 l 331 99 l 332 99 l 431 90 q 368 0 439 0 m 146 1264 l 378 1074 q 319 1017 363 1039 l 32 1169 q 79 1226 44 1194 q 146 1264 114 1257 z "},"Í":{"ha":488,"x_min":56,"x_max":475,"o":"m 331 99 l 332 99 l 431 90 q 368 0 439 0 l 56 0 l 56 11 q 117 93 56 88 l 157 96 l 157 853 l 156 853 l 57 861 q 58 899 53 869 q 119 951 71 951 l 432 951 l 432 940 q 371 858 432 864 l 331 856 l 331 99 m 475 1169 l 188 1017 q 129 1074 144 1039 l 361 1264 q 428 1226 393 1257 q 475 1169 463 1194 z "},"Î":{"ha":488,"x_min":0,"x_max":486,"o":"m 299 1232 l 486 1057 q 435 1004 463 1019 l 243 1124 l 49 1004 q 0 1057 18 1022 l 193 1232 q 299 1232 250 1244 m 331 99 l 332 99 l 431 90 q 368 0 439 0 l 56 0 l 56 11 q 117 93 56 88 l 157 96 l 157 853 l 156 853 l 57 861 q 58 899 53 869 q 119 951 71 951 l 432 951 l 432 940 q 371 858 432 864 l 331 856 l 331 99 z "},"Ï":{"ha":488,"x_min":6,"x_max":467,"o":"m 271 1144 q 271 1164 271 1144 q 299 1213 271 1183 q 369 1242 328 1242 q 438 1213 410 1242 q 467 1144 467 1185 q 438 1076 467 1104 q 369 1047 410 1047 q 299 1076 328 1047 q 271 1144 271 1104 m 331 99 l 332 99 l 431 90 q 368 0 439 0 l 56 0 l 56 11 q 117 93 56 88 l 157 96 l 157 853 l 156 853 l 57 861 q 58 899 53 869 q 119 951 71 951 l 432 951 l 432 940 q 371 858 432 864 l 331 856 l 331 99 m 173 1213 q 187 1199 173 1213 q 201 1144 201 1185 q 173 1076 201 1104 q 104 1047 144 1047 q 35 1076 64 1047 q 6 1144 6 1104 q 35 1213 6 1185 q 104 1242 64 1242 q 173 1213 144 1242 z "},"Ð":{"ha":1000,"x_min":57,"x_max":940,"o":"m 129 951 l 454 951 q 940 481 940 951 q 814 124 940 247 q 461 0 688 0 l 57 0 q 65 61 53 33 q 106 92 76 89 l 156 97 l 156 419 l 75 419 l 75 517 l 156 517 l 156 853 l 154 853 l 57 861 q 71 931 56 910 q 129 951 86 951 m 419 96 q 679 175 599 85 q 760 474 760 265 q 677 773 760 683 q 407 856 594 863 l 329 853 l 329 517 l 526 517 l 526 419 l 329 419 l 329 101 l 419 96 z "},"Ñ":{"ha":964,"x_min":56,"x_max":940,"o":"m 699 951 l 940 951 q 940 940 940 951 q 879 858 940 864 l 839 856 l 839 18 q 732 -1 797 -1 l 261 703 l 261 99 l 361 90 q 299 0 369 0 l 56 0 l 56 11 q 117 93 56 88 l 157 96 l 157 853 l 57 861 q 58 899 53 869 q 119 951 71 951 l 301 951 l 735 306 l 735 853 l 636 861 q 699 951 628 951 m 579 1031 q 463 1067 524 1031 q 376 1103 401 1103 q 331 1086 351 1103 q 301 1042 310 1069 l 254 1058 q 304 1187 265 1138 q 394 1236 343 1236 q 503 1195 446 1236 q 597 1154 561 1154 q 658 1174 633 1154 q 689 1225 682 1193 l 733 1213 q 579 1031 710 1031 z "},"Ò":{"ha":957,"x_min":49,"x_max":908,"o":"m 565 1017 l 278 1169 q 325 1226 290 1194 q 392 1264 360 1257 l 624 1074 q 565 1017 608 1039 m 49 470 q 49 587 49 470 q 168 838 49 704 q 490 972 288 972 q 801 844 693 972 q 908 481 908 715 q 788 113 908 247 q 465 -21 668 -21 q 156 108 263 -21 q 49 470 49 236 m 478 861 q 229 482 229 861 q 291 192 229 292 q 472 90 353 92 q 663 188 599 92 q 728 474 728 285 q 665 762 728 663 q 478 861 601 861 z "},"Ó":{"ha":957,"x_min":49,"x_max":908,"o":"m 721 1169 l 433 1017 q 375 1074 390 1039 l 607 1264 q 674 1226 639 1257 q 721 1169 708 1194 m 478 861 q 229 482 229 861 q 291 192 229 292 q 472 90 353 92 q 663 188 599 92 q 728 474 728 285 q 665 762 728 663 q 478 861 601 861 m 49 470 q 49 587 49 470 q 168 838 49 704 q 490 972 288 972 q 801 844 693 972 q 908 481 908 715 q 788 113 908 247 q 465 -21 668 -21 q 156 108 263 -21 q 49 470 49 236 z "},"Ô":{"ha":957,"x_min":49,"x_max":908,"o":"m 49 470 q 49 587 49 470 q 168 838 49 704 q 490 972 288 972 q 801 844 693 972 q 908 481 908 715 q 788 113 908 247 q 465 -21 668 -21 q 156 108 263 -21 q 49 470 49 236 m 472 90 q 728 474 728 93 q 665 762 728 663 q 478 861 601 861 q 229 482 229 861 q 291 192 229 292 q 472 90 353 92 m 489 1124 l 294 1004 q 246 1057 264 1022 l 439 1232 q 544 1232 496 1244 l 732 1057 q 681 1004 708 1019 l 489 1124 z "},"Õ":{"ha":957,"x_min":49,"x_max":908,"o":"m 253 1058 q 303 1187 264 1138 q 393 1236 342 1236 q 502 1195 444 1236 q 596 1154 560 1154 q 656 1174 632 1154 q 688 1225 681 1193 l 732 1213 q 578 1031 708 1031 q 461 1067 522 1031 q 375 1103 400 1103 q 329 1086 350 1103 q 300 1042 308 1069 l 253 1058 m 478 861 q 229 482 229 861 q 291 192 229 292 q 472 90 353 92 q 663 188 599 92 q 728 474 728 285 q 665 762 728 663 q 478 861 601 861 m 49 470 q 49 587 49 470 q 168 838 49 704 q 490 972 288 972 q 801 844 693 972 q 908 481 908 715 q 788 113 908 247 q 465 -21 668 -21 q 156 108 263 -21 q 49 470 49 236 z "},"Ö":{"ha":957,"x_min":49,"x_max":908,"o":"m 713 1144 q 713 1124 713 1144 q 684 1076 713 1104 q 615 1047 656 1047 q 545 1076 574 1047 q 517 1144 517 1104 q 546 1213 517 1183 q 615 1242 575 1242 q 684 1213 656 1242 q 713 1144 713 1185 m 419 1076 q 405 1061 419 1076 q 350 1047 390 1047 q 281 1076 310 1047 q 251 1144 251 1104 q 281 1213 251 1185 q 350 1242 310 1242 q 419 1213 390 1242 q 447 1144 447 1185 q 419 1076 447 1104 m 478 861 q 229 482 229 861 q 291 192 229 292 q 472 90 353 92 q 663 188 599 92 q 728 474 728 285 q 665 762 728 663 q 478 861 601 861 m 49 470 q 49 587 49 470 q 168 838 49 704 q 490 972 288 972 q 801 844 693 972 q 908 481 908 715 q 788 113 908 247 q 465 -21 668 -21 q 156 108 263 -21 q 49 470 49 236 z "},"×":{"ha":622,"x_min":69,"x_max":553,"o":"m 553 529 l 392 368 l 550 210 l 471 131 l 313 289 l 151 128 l 69 210 l 231 371 l 69 532 l 149 611 l 310 450 l 471 611 l 553 529 z "},"Ø":{"ha":972,"x_min":49,"x_max":908,"o":"m 768 878 q 908 499 908 750 q 788 113 908 247 q 454 -21 668 -21 q 269 18 351 -21 l 243 -26 l 146 26 l 179 83 q 49 457 49 210 q 168 838 49 704 q 500 972 288 972 q 675 938 600 972 l 703 986 l 801 936 l 768 878 m 478 861 q 229 482 229 861 q 268 238 229 328 l 608 822 q 478 861 556 861 m 472 90 q 663 188 599 92 q 728 459 728 285 q 682 731 728 633 l 338 138 q 472 90 390 93 z "},"Ù":{"ha":929,"x_min":15,"x_max":915,"o":"m 549 1017 l 261 1169 q 308 1226 274 1194 q 375 1264 343 1257 l 607 1074 q 549 1017 592 1039 m 665 951 l 915 951 q 915 940 915 951 q 854 858 915 864 l 814 856 l 814 403 q 726 81 814 183 q 465 -21 638 -21 q 204 76 293 -21 q 115 404 115 172 l 115 853 l 15 861 q 17 899 11 869 q 78 951 29 951 l 390 951 l 390 940 q 329 858 390 864 l 289 856 l 289 382 q 332 160 289 229 q 483 90 375 90 q 703 365 703 90 l 701 853 l 603 861 q 665 951 594 951 z "},"Ú":{"ha":929,"x_min":15,"x_max":915,"o":"m 704 1169 l 417 1017 q 358 1074 374 1039 l 590 1264 q 657 1226 622 1257 q 704 1169 692 1194 m 665 951 l 915 951 q 915 940 915 951 q 854 858 915 864 l 814 856 l 814 403 q 726 81 814 183 q 465 -21 638 -21 q 204 76 293 -21 q 115 404 115 172 l 115 853 l 15 861 q 17 899 11 869 q 78 951 29 951 l 390 951 l 390 940 q 329 858 390 864 l 289 856 l 289 382 q 332 160 289 229 q 483 90 375 90 q 703 365 703 90 l 701 853 l 603 861 q 665 951 594 951 z "},"Û":{"ha":929,"x_min":15,"x_max":915,"o":"m 665 951 l 915 951 q 915 940 915 951 q 854 858 915 864 l 814 856 l 814 403 q 726 81 814 183 q 465 -21 638 -21 q 204 76 293 -21 q 115 404 115 172 l 115 853 l 15 861 q 17 899 11 869 q 78 951 29 951 l 390 951 l 390 940 q 329 858 390 864 l 289 856 l 289 382 q 332 160 289 229 q 483 90 375 90 q 703 365 703 90 l 701 853 l 603 861 q 665 951 594 951 m 472 1124 l 278 1004 q 229 1057 247 1022 l 422 1232 q 528 1232 479 1244 l 715 1057 q 664 1004 692 1019 l 472 1124 z "},"Ü":{"ha":929,"x_min":15,"x_max":915,"o":"m 696 1144 q 696 1124 696 1144 q 667 1076 696 1104 q 598 1047 639 1047 q 528 1076 557 1047 q 500 1144 500 1104 q 529 1213 500 1183 q 599 1242 558 1242 q 667 1213 639 1242 q 696 1144 696 1185 m 402 1076 q 388 1061 402 1076 q 333 1047 374 1047 q 264 1076 293 1047 q 235 1144 235 1104 q 264 1213 235 1185 q 333 1242 293 1242 q 402 1213 374 1242 q 431 1144 431 1185 q 402 1076 431 1104 m 665 951 l 915 951 l 915 940 q 854 858 915 864 l 814 856 l 814 403 q 726 81 814 183 q 465 -21 638 -21 q 204 76 293 -21 q 115 404 115 172 l 115 853 l 15 861 q 17 899 11 869 q 78 951 29 951 l 390 951 l 390 940 q 329 858 390 864 l 289 856 l 289 382 q 332 160 289 229 q 483 90 375 90 q 703 365 703 90 l 701 853 l 603 861 q 665 951 594 951 z "},"Ý":{"ha":882,"x_min":1,"x_max":881,"o":"m 617 951 l 881 951 q 881 940 881 951 q 819 858 881 864 l 785 856 l 528 400 l 528 99 l 529 99 l 628 90 q 565 0 636 0 l 253 0 l 253 11 q 314 93 253 88 l 354 96 l 354 394 l 90 853 l 1 861 q 3 899 -3 869 q 64 951 15 951 l 400 951 q 388 885 397 897 q 339 858 369 861 l 294 856 l 292 856 l 479 518 l 663 853 l 554 861 q 556 899 550 869 q 617 951 568 951 m 696 1169 l 408 1017 q 350 1074 365 1039 l 582 1264 q 649 1226 614 1257 q 696 1169 683 1194 z "},"Þ":{"ha":815,"x_min":56,"x_max":776,"o":"m 379 200 l 331 200 l 331 99 l 332 99 l 431 90 q 368 0 439 0 l 56 0 q 56 11 56 0 q 117 93 56 88 l 157 96 l 157 853 l 156 853 l 57 861 q 58 899 53 869 q 119 951 71 951 l 432 951 l 432 940 q 371 858 432 864 l 331 856 l 331 781 l 408 781 q 679 706 582 781 q 776 495 776 632 q 672 279 776 358 q 379 200 567 200 m 399 693 l 331 693 l 331 286 l 351 286 q 533 342 468 286 q 599 493 599 397 q 546 641 599 589 q 399 693 493 693 z "},"ß":{"ha":910,"x_min":43,"x_max":875,"o":"m 147 621 q 233 914 147 814 q 482 1014 319 1014 q 683 963 611 1014 q 754 824 754 911 q 725 724 754 771 q 661 651 696 678 q 568 544 568 581 q 710 426 568 494 q 838 335 801 383 q 875 218 875 286 q 803 50 875 121 q 608 -21 731 -21 q 444 15 517 -21 q 371 124 371 51 q 406 199 371 172 q 488 226 440 226 q 535 124 494 164 q 628 85 575 85 q 708 110 681 85 q 735 169 735 135 q 706 231 735 204 q 622 285 676 257 q 542 329 568 313 q 481 374 515 346 q 431 438 447 403 q 415 515 415 472 q 435 594 415 558 q 483 654 454 629 q 539 703 511 679 q 607 818 607 758 q 493 906 607 906 q 317 614 317 906 l 317 0 l 43 0 l 43 11 q 104 93 43 88 l 147 94 l 147 621 z "},"à":{"ha":724,"x_min":42,"x_max":710,"o":"m 710 63 q 601 -21 710 -21 q 461 51 493 -21 q 268 -21 374 -21 q 102 31 163 -21 q 42 174 42 83 q 113 324 42 265 q 336 382 183 382 q 450 374 396 382 l 450 435 q 419 571 450 531 q 333 611 388 611 q 247 576 279 611 q 214 482 214 542 q 122 499 158 476 q 85 569 85 522 q 154 679 85 636 q 333 722 224 722 q 619 444 619 722 l 619 74 l 710 63 m 450 269 q 345 288 400 288 q 254 262 290 288 q 218 189 218 236 q 318 92 218 92 q 450 132 389 92 l 450 269 m 247 1014 l 479 824 q 421 767 464 789 l 133 919 q 181 976 146 944 q 247 1014 215 1007 z "},"á":{"ha":724,"x_min":42,"x_max":710,"o":"m 710 63 q 601 -21 710 -21 q 461 51 493 -21 q 268 -21 374 -21 q 102 31 163 -21 q 42 174 42 83 q 113 324 42 265 q 336 382 183 382 q 450 374 396 382 l 450 435 q 419 571 450 531 q 333 611 388 611 q 247 576 279 611 q 214 482 214 542 q 122 499 158 476 q 85 569 85 522 q 154 679 85 636 q 333 722 224 722 q 619 444 619 722 l 619 74 l 710 63 m 450 269 q 345 288 400 288 q 254 262 290 288 q 218 189 218 236 q 318 92 218 92 q 450 132 389 92 l 450 269 m 576 919 l 289 767 q 231 824 246 789 l 463 1014 q 529 976 494 1007 q 576 919 564 944 z "},"â":{"ha":724,"x_min":42,"x_max":710,"o":"m 710 63 q 601 -21 710 -21 q 461 51 493 -21 q 268 -21 374 -21 q 102 31 163 -21 q 42 174 42 83 q 113 324 42 265 q 336 382 183 382 q 450 374 396 382 l 450 435 q 419 571 450 531 q 333 611 388 611 q 247 576 279 611 q 214 482 214 542 q 122 499 158 476 q 85 569 85 522 q 154 679 85 636 q 333 722 224 722 q 619 444 619 722 l 619 74 l 710 63 m 450 269 q 345 288 400 288 q 254 262 290 288 q 218 189 218 236 q 318 92 218 92 q 450 132 389 92 l 450 269 m 344 874 l 150 754 q 101 807 119 772 l 294 982 q 400 982 351 994 l 588 807 q 536 754 564 769 l 344 874 z "},"ã":{"ha":724,"x_min":42,"x_max":710,"o":"m 710 63 q 601 -21 710 -21 q 461 51 493 -21 q 268 -21 374 -21 q 102 31 163 -21 q 42 174 42 83 q 113 324 42 265 q 336 382 183 382 q 450 374 396 382 l 450 435 q 419 571 450 531 q 333 611 388 611 q 247 576 279 611 q 214 482 214 542 q 122 499 158 476 q 85 569 85 522 q 154 679 85 636 q 333 722 224 722 q 619 444 619 722 l 619 74 l 710 63 m 450 269 q 345 288 400 288 q 254 262 290 288 q 218 189 218 236 q 318 92 218 92 q 450 132 389 92 l 450 269 m 433 781 q 317 817 378 781 q 231 853 256 853 q 185 836 206 853 q 156 792 164 819 l 108 808 q 158 937 119 888 q 249 986 197 986 q 358 945 300 986 q 451 904 415 904 q 512 924 488 904 q 543 975 536 943 l 588 963 q 433 781 564 781 z "},"ä":{"ha":724,"x_min":42,"x_max":710,"o":"m 710 63 q 601 -21 710 -21 q 461 51 493 -21 q 268 -21 374 -21 q 102 31 163 -21 q 42 174 42 83 q 113 324 42 265 q 336 382 183 382 q 450 374 396 382 l 450 435 q 419 571 450 531 q 333 611 388 611 q 247 576 279 611 q 214 482 214 542 q 122 499 158 476 q 85 569 85 522 q 154 679 85 636 q 333 722 224 722 q 619 444 619 722 l 619 74 l 710 63 m 450 269 q 345 288 400 288 q 254 262 290 288 q 218 189 218 236 q 318 92 218 92 q 450 132 389 92 l 450 269 m 274 826 q 260 811 274 826 q 206 797 246 797 q 136 826 165 797 q 107 894 107 854 q 136 963 107 935 q 206 992 165 992 q 274 963 246 992 q 303 894 303 935 q 274 826 303 854 m 568 894 q 568 874 568 894 q 540 826 568 854 q 470 797 511 797 q 401 826 429 797 q 372 894 372 854 q 401 963 372 933 q 471 992 431 992 q 540 963 511 992 q 568 894 568 935 z "},"å":{"ha":724,"x_min":42,"x_max":710,"o":"m 710 63 q 601 -21 710 -21 q 461 51 493 -21 q 268 -21 374 -21 q 102 31 163 -21 q 42 174 42 83 q 113 324 42 265 q 336 382 183 382 q 450 374 396 382 l 450 435 q 419 571 450 531 q 333 611 388 611 q 247 576 279 611 q 214 482 214 542 q 122 499 158 476 q 85 569 85 522 q 154 679 85 636 q 333 722 224 722 q 619 444 619 722 l 619 74 l 710 63 m 450 269 q 345 288 400 288 q 254 262 290 288 q 218 189 218 236 q 318 92 218 92 q 450 132 389 92 l 450 269 m 481 888 q 480 859 481 888 q 442 795 479 831 q 347 760 406 760 q 252 794 288 760 q 217 885 217 828 q 253 977 217 942 q 351 1013 290 1013 q 447 978 411 1013 q 481 888 482 944 m 408 885 q 408 899 408 885 q 392 928 408 913 q 349 944 376 944 q 306 929 322 944 q 290 886 290 914 q 306 842 290 858 q 349 826 322 826 q 392 842 375 826 q 408 885 408 858 z "},"æ":{"ha":1092,"x_min":42,"x_max":1049,"o":"m 450 435 q 332 611 450 611 q 244 575 275 611 q 214 482 214 539 q 121 499 157 476 q 85 569 85 522 q 154 679 85 636 q 335 722 224 722 q 560 639 488 722 q 783 722 644 722 q 986 638 921 722 q 1049 419 1051 553 l 1049 340 l 626 340 l 626 325 q 667 158 626 213 q 810 103 707 103 q 1007 179 913 103 q 1035 115 1035 158 q 958 25 1035 71 q 765 -21 881 -21 q 515 88 597 -21 q 260 -21 407 -21 q 101 31 161 -21 q 42 174 42 83 q 113 324 42 265 q 338 382 183 382 q 450 374 396 382 l 450 435 m 450 269 q 345 288 400 288 q 254 262 290 288 q 218 183 218 236 q 322 92 218 92 q 450 132 390 92 l 450 269 m 771 611 q 633 436 657 611 l 886 436 q 771 611 881 611 z "},"ç":{"ha":656,"x_min":49,"x_max":632,"o":"m 315 -18 q 119 90 189 -3 q 49 349 49 183 q 143 618 49 514 q 394 722 238 722 q 558 680 494 722 q 621 572 621 638 q 582 481 621 507 q 500 460 543 454 q 468 564 499 519 q 370 608 438 608 q 264 544 303 608 q 225 363 225 479 q 424 104 225 104 q 601 179 517 104 q 624 151 615 171 q 632 118 632 132 q 560 31 632 76 q 390 -19 488 -14 l 379 -64 q 467 -94 438 -64 q 496 -171 496 -125 q 457 -251 496 -217 q 353 -285 418 -285 q 253 -246 289 -285 q 257 -211 251 -231 q 269 -187 263 -192 q 340 -208 294 -208 q 385 -167 385 -208 q 365 -131 385 -143 q 289 -119 346 -119 l 315 -18 z "},"è":{"ha":690,"x_min":49,"x_max":647,"o":"m 225 340 l 225 325 q 266 158 225 213 q 408 103 307 103 q 606 179 508 103 q 633 115 633 158 q 556 25 633 71 q 364 -21 479 -21 q 131 67 214 -21 q 49 335 49 156 q 138 619 49 515 q 385 722 228 722 q 584 639 518 722 q 647 419 650 556 l 647 340 l 225 340 m 369 611 q 232 436 256 611 l 485 436 q 453 571 482 531 q 369 611 424 611 m 288 1014 l 519 824 q 461 767 504 789 l 174 919 q 221 976 186 944 q 288 1014 256 1007 z "},"é":{"ha":690,"x_min":49,"x_max":647,"o":"m 225 340 l 225 325 q 266 158 225 213 q 408 103 307 103 q 606 179 508 103 q 633 115 633 158 q 556 25 633 71 q 364 -21 479 -21 q 131 67 214 -21 q 49 335 49 156 q 138 619 49 515 q 385 722 228 722 q 584 639 518 722 q 647 419 650 556 l 647 340 l 225 340 m 369 611 q 232 436 256 611 l 485 436 q 453 571 482 531 q 369 611 424 611 m 617 919 l 329 767 q 271 824 286 789 l 503 1014 q 569 976 535 1007 q 617 919 604 944 z "},"ê":{"ha":690,"x_min":49,"x_max":647,"o":"m 225 340 l 225 325 q 266 158 225 213 q 408 103 307 103 q 606 179 508 103 q 633 115 633 158 q 556 25 633 71 q 364 -21 479 -21 q 131 67 214 -21 q 49 335 49 156 q 138 619 49 515 q 385 722 228 722 q 584 639 518 722 q 647 419 650 556 l 647 340 l 225 340 m 369 611 q 232 436 256 611 l 485 436 q 453 571 482 531 q 369 611 424 611 m 385 874 l 190 754 q 142 807 160 772 l 335 982 q 440 982 392 994 l 628 807 q 576 754 604 769 l 385 874 z "},"ë":{"ha":690,"x_min":49,"x_max":647,"o":"m 225 340 l 225 325 q 266 158 225 213 q 408 103 307 103 q 606 179 508 103 q 633 115 633 158 q 556 25 633 71 q 364 -21 479 -21 q 131 67 214 -21 q 49 335 49 156 q 138 619 49 515 q 385 722 228 722 q 584 639 518 722 q 647 419 650 556 l 647 340 l 225 340 m 369 611 q 232 436 256 611 l 485 436 q 453 571 482 531 q 369 611 424 611 m 315 826 q 300 811 315 826 q 246 797 286 797 q 176 826 206 797 q 147 894 147 854 q 176 963 147 935 q 246 992 206 992 q 315 963 286 992 q 343 894 343 935 q 315 826 343 854 m 608 894 q 608 874 608 894 q 580 826 608 854 q 510 797 551 797 q 441 826 469 797 q 413 894 413 854 q 441 963 413 933 q 510 992 469 992 q 580 963 551 992 q 608 894 608 935 z "},"ì":{"ha":443,"x_min":13,"x_max":417,"o":"m 354 0 l 44 0 l 44 11 q 106 93 44 88 l 149 96 l 149 600 l 94 606 q 43 692 38 611 l 318 722 l 318 99 l 417 90 q 354 0 425 0 m 126 1014 l 358 824 q 300 767 343 789 l 13 919 q 60 976 25 944 q 126 1014 94 1007 z "},"í":{"ha":443,"x_min":43,"x_max":456,"o":"m 354 0 l 44 0 l 44 11 q 106 93 44 88 l 149 96 l 149 600 l 94 606 q 43 692 38 611 l 318 722 l 318 99 l 417 90 q 354 0 425 0 m 456 919 l 168 767 q 110 824 125 789 l 342 1014 q 408 976 374 1007 q 456 919 443 944 z "},"î":{"ha":443,"x_min":-19,"x_max":467,"o":"m 279 982 l 467 807 q 415 754 443 769 l 224 874 l 29 754 q -19 807 -1 772 l 174 982 q 279 982 231 994 m 354 0 l 44 0 l 44 11 q 106 93 44 88 l 149 96 l 149 600 l 94 606 q 43 692 38 611 l 318 722 l 318 99 l 417 90 q 354 0 425 0 z "},"ï":{"ha":443,"x_min":-14,"x_max":447,"o":"m 251 894 q 251 914 251 894 q 280 963 251 933 q 349 992 308 992 q 419 963 390 992 q 447 894 447 935 q 419 826 447 854 q 349 797 390 797 q 280 826 308 797 q 251 894 251 854 m 354 0 l 44 0 l 44 11 q 106 93 44 88 l 149 96 l 149 600 l 94 606 q 43 692 38 611 l 318 722 l 318 99 l 417 90 q 354 0 425 0 m 153 963 q 168 949 153 963 q 182 894 182 935 q 153 826 182 854 q 85 797 125 797 q 15 826 44 797 q -14 894 -14 854 q 15 963 -14 935 q 85 992 44 992 q 153 963 125 992 z "},"ð":{"ha":774,"x_min":47,"x_max":725,"o":"m 725 413 q 628 97 725 215 q 363 -21 531 -21 q 135 64 219 -21 q 48 301 50 149 q 135 560 46 453 q 396 667 225 667 q 503 651 454 667 q 397 793 465 735 l 261 701 l 217 781 l 318 846 q 168 896 251 881 l 215 981 q 422 914 326 964 l 536 988 l 581 917 l 504 865 q 725 413 725 707 m 365 100 q 500 185 451 100 q 549 415 549 271 q 544 489 549 453 q 386 554 474 554 q 225 318 225 554 q 262 156 225 211 q 365 100 299 100 z "},"ñ":{"ha":901,"x_min":43,"x_max":875,"o":"m 242 808 q 292 937 253 888 q 382 986 331 986 q 491 945 433 986 q 585 904 549 904 q 645 924 621 904 q 676 975 669 943 l 721 963 q 567 781 697 781 q 450 817 511 781 q 364 853 389 853 q 318 836 339 853 q 289 792 297 819 l 242 808 m 813 0 l 506 0 l 506 11 q 567 93 506 88 l 607 96 l 607 438 q 575 551 607 518 q 486 583 543 583 q 393 568 429 583 q 318 519 357 553 l 318 99 l 417 90 q 354 0 425 0 l 44 0 l 44 11 q 106 93 44 88 l 149 96 l 149 592 l 94 597 q 43 683 38 603 l 294 714 l 304 629 l 308 629 q 408 698 360 674 q 521 722 456 722 q 702 651 628 722 q 776 431 776 579 l 776 99 l 875 90 q 813 0 883 0 z "},"ò":{"ha":753,"x_min":49,"x_max":704,"o":"m 458 767 l 171 919 q 218 976 183 944 q 285 1014 253 1007 l 517 824 q 458 767 501 789 m 49 340 q 49 428 49 340 q 137 619 49 517 q 382 722 225 722 q 622 624 539 722 q 704 351 704 525 q 615 78 704 176 q 367 -21 526 -21 q 128 71 208 -21 q 49 340 49 163 m 488 542 q 468 578 488 542 q 376 615 449 615 q 265 543 304 615 q 225 347 225 471 q 265 153 225 222 q 376 85 304 85 q 488 152 449 85 q 528 344 528 219 q 488 542 528 468 z "},"ó":{"ha":753,"x_min":49,"x_max":704,"o":"m 488 542 q 468 578 488 542 q 376 615 449 615 q 265 543 304 615 q 225 347 225 471 q 265 153 225 222 q 376 85 304 85 q 488 152 449 85 q 528 344 528 219 q 488 542 528 468 m 49 340 q 49 428 49 340 q 137 619 49 517 q 382 722 225 722 q 622 624 539 722 q 704 351 704 525 q 615 78 704 176 q 367 -21 526 -21 q 128 71 208 -21 q 49 340 49 163 m 614 919 l 326 767 q 268 824 283 789 l 500 1014 q 567 976 532 1007 q 614 919 601 944 z "},"ô":{"ha":753,"x_min":49,"x_max":704,"o":"m 49 340 q 49 428 49 340 q 137 619 49 517 q 382 722 225 722 q 622 624 539 722 q 704 351 704 525 q 615 78 704 176 q 367 -21 526 -21 q 128 71 208 -21 q 49 340 49 163 m 265 153 q 284 119 265 153 q 376 85 304 85 q 488 152 449 85 q 528 344 528 219 q 488 542 528 468 q 376 615 449 615 q 265 543 304 615 q 225 347 225 471 q 265 153 225 222 m 382 874 l 188 754 q 139 807 157 772 l 332 982 q 438 982 389 994 l 625 807 q 574 754 601 769 l 382 874 z "},"õ":{"ha":753,"x_min":49,"x_max":704,"o":"m 146 808 q 196 937 157 888 q 286 986 235 986 q 395 945 338 986 q 489 904 453 904 q 549 924 525 904 q 581 975 574 943 l 625 963 q 471 781 601 781 q 354 817 415 781 q 268 853 293 853 q 222 836 243 853 q 193 792 201 819 l 146 808 m 488 542 q 468 578 488 542 q 376 615 449 615 q 265 543 304 615 q 225 347 225 471 q 265 153 225 222 q 376 85 304 85 q 488 152 449 85 q 528 344 528 219 q 488 542 528 468 m 49 340 q 49 428 49 340 q 137 619 49 517 q 382 722 225 722 q 622 624 539 722 q 704 351 704 525 q 615 78 704 176 q 367 -21 526 -21 q 128 71 208 -21 q 49 340 49 163 z "},"ö":{"ha":753,"x_min":49,"x_max":704,"o":"m 488 542 q 468 578 488 542 q 376 615 449 615 q 265 543 304 615 q 225 347 225 471 q 265 153 225 222 q 376 85 304 85 q 488 152 449 85 q 528 344 528 219 q 488 542 528 468 m 49 340 q 49 428 49 340 q 137 619 49 517 q 382 722 225 722 q 622 624 539 722 q 704 351 704 525 q 615 78 704 176 q 367 -21 526 -21 q 128 71 208 -21 q 49 340 49 163 m 606 894 q 606 874 606 894 q 577 826 606 854 q 508 797 549 797 q 438 826 467 797 q 410 894 410 854 q 438 963 410 933 q 508 992 467 992 q 577 963 549 992 q 606 894 606 935 m 312 826 q 298 811 312 826 q 243 797 283 797 q 174 826 203 797 q 144 894 144 854 q 174 963 144 935 q 243 992 203 992 q 312 963 283 992 q 340 894 340 935 q 312 826 340 854 z "},"÷":{"ha":706,"x_min":69,"x_max":636,"o":"m 433 539 q 417 523 433 539 q 356 507 401 507 q 278 539 310 507 q 246 617 246 571 q 278 694 246 663 q 356 726 310 726 q 433 694 401 726 q 465 617 465 663 q 433 539 465 571 m 433 50 q 417 34 433 50 q 356 18 401 18 q 278 50 310 18 q 246 128 246 82 q 278 206 246 174 q 356 238 310 238 q 433 206 401 238 q 465 128 465 174 q 433 50 465 82 m 69 428 l 636 428 l 636 317 l 69 317 l 69 428 z "},"ø":{"ha":746,"x_min":49,"x_max":704,"o":"m 607 639 q 704 359 704 542 q 615 78 704 176 q 360 -21 526 -21 q 238 -1 293 -21 l 221 -32 l 124 21 l 143 56 q 49 331 49 146 q 137 619 49 517 q 392 722 225 722 q 515 700 463 722 l 538 739 l 636 689 l 607 639 m 376 615 q 265 543 304 615 q 225 372 225 471 q 239 221 225 272 l 451 589 q 376 615 418 615 m 376 85 q 488 152 449 85 q 528 317 528 219 q 513 475 528 414 l 301 108 q 376 85 333 85 z "},"ù":{"ha":835,"x_min":14,"x_max":800,"o":"m 481 767 l 193 919 q 240 976 206 944 q 307 1014 275 1007 l 539 824 q 481 767 524 789 m 444 614 q 506 701 444 701 l 722 701 l 722 93 l 753 93 q 800 6 800 92 l 603 -14 l 574 64 q 370 -21 475 -21 q 190 51 265 -21 q 115 271 115 122 l 115 603 l 14 603 l 14 614 q 75 701 14 701 l 285 701 l 285 264 q 318 142 285 178 q 421 106 351 106 q 553 153 490 106 l 553 603 l 444 603 l 444 614 z "},"ú":{"ha":835,"x_min":14,"x_max":800,"o":"m 444 614 q 506 701 444 701 l 722 701 l 722 93 l 753 93 q 800 6 800 92 l 603 -14 l 574 64 q 370 -21 475 -21 q 190 51 265 -21 q 115 271 115 122 l 115 603 l 14 603 l 14 614 q 75 701 14 701 l 285 701 l 285 264 q 318 142 285 178 q 421 106 351 106 q 553 153 490 106 l 553 603 l 444 603 l 444 614 m 636 919 l 349 767 q 290 824 306 789 l 522 1014 q 589 976 554 1007 q 636 919 624 944 z "},"û":{"ha":835,"x_min":14,"x_max":800,"o":"m 444 614 q 506 701 444 701 l 722 701 l 722 93 l 753 93 q 800 6 800 92 l 603 -14 l 574 64 q 370 -21 475 -21 q 190 51 265 -21 q 115 271 115 122 l 115 603 l 14 603 l 14 614 q 75 701 14 701 l 285 701 l 285 264 q 318 142 285 178 q 421 106 351 106 q 553 153 490 106 l 553 603 l 444 603 l 444 614 m 404 874 l 210 754 q 161 807 179 772 l 354 982 q 460 982 411 994 l 647 807 q 596 754 624 769 l 404 874 z "},"ü":{"ha":835,"x_min":14,"x_max":800,"o":"m 444 614 q 506 701 444 701 l 722 701 l 722 93 l 753 93 q 800 6 800 92 l 603 -14 l 574 64 q 370 -21 475 -21 q 190 51 265 -21 q 115 271 115 122 l 115 603 l 14 603 l 14 614 q 75 701 14 701 l 285 701 l 285 264 q 318 142 285 178 q 421 106 351 106 q 553 153 490 106 l 553 603 l 444 603 l 444 614 m 628 894 q 628 874 628 894 q 599 826 628 854 q 530 797 571 797 q 460 826 489 797 q 432 894 432 854 q 460 963 432 933 q 530 992 489 992 q 599 963 571 992 q 628 894 628 935 m 334 826 q 320 811 334 826 q 265 797 306 797 q 196 826 225 797 q 167 894 167 854 q 196 963 167 935 q 265 992 225 992 q 334 963 306 992 q 363 894 363 935 q 334 826 363 854 z "},"ý":{"ha":744,"x_min":1,"x_max":744,"o":"m 546 701 l 744 701 q 744 690 744 701 q 683 608 744 618 l 678 607 l 447 47 l 449 47 q 424 -11 442 32 q 398 -72 406 -54 q 372 -126 390 -89 q 343 -181 354 -164 q 314 -226 332 -199 q 280 -267 296 -254 q 243 -296 264 -281 q 149 -324 206 -324 q 57 -294 92 -324 q 22 -223 22 -265 q 47 -155 22 -181 q 103 -129 72 -129 q 140 -132 133 -129 q 172 -206 125 -206 q 258 -119 213 -206 q 331 58 303 -32 l 85 603 l 78 603 l 1 611 q 3 649 -3 619 q 64 701 15 701 l 351 701 q 339 638 347 650 q 290 608 318 614 l 275 606 l 415 258 l 549 604 l 483 611 q 546 701 475 701 m 646 919 l 358 767 q 300 824 315 789 l 532 1014 q 599 976 564 1007 q 646 919 633 944 z "},"þ":{"ha":815,"x_min":17,"x_max":767,"o":"m 290 651 q 488 722 375 722 q 682 641 600 722 q 767 382 764 560 q 681 92 769 204 q 422 -21 593 -21 q 290 3 346 -21 l 290 -204 l 292 -204 l 389 -212 q 326 -303 397 -303 l 17 -303 l 17 -292 q 78 -210 17 -215 l 121 -207 l 121 868 l 61 875 q 18 958 18 881 l 290 990 l 290 651 m 433 92 q 590 351 590 92 q 549 536 590 471 q 433 601 508 601 q 290 539 358 601 l 290 147 q 433 92 357 92 z "},"ÿ":{"ha":744,"x_min":1,"x_max":744,"o":"m 546 701 l 744 701 q 744 690 744 701 q 683 608 744 618 l 678 607 l 447 47 l 449 47 q 424 -11 442 32 q 398 -72 406 -54 q 372 -126 390 -89 q 343 -181 354 -164 q 314 -226 332 -199 q 280 -267 296 -254 q 243 -296 264 -281 q 149 -324 206 -324 q 57 -294 92 -324 q 22 -223 22 -265 q 47 -155 22 -181 q 103 -129 72 -129 q 140 -132 133 -129 q 172 -206 125 -206 q 258 -119 213 -206 q 331 58 303 -32 l 85 603 l 78 603 l 1 611 q 3 649 -3 619 q 64 701 15 701 l 351 701 q 339 638 347 650 q 290 608 318 614 l 275 606 l 415 258 l 549 604 l 483 611 q 546 701 475 701 m 344 826 q 330 811 344 826 q 275 797 315 797 q 206 826 235 797 q 176 894 176 854 q 206 963 176 935 q 275 992 235 992 q 344 963 315 992 q 372 894 372 935 q 344 826 372 854 m 638 894 q 638 874 638 894 q 609 826 638 854 q 540 797 581 797 q 470 826 499 797 q 442 894 442 854 q 471 963 442 933 q 540 992 500 992 q 609 963 581 992 q 638 894 638 935 z "},"Ā":{"ha":917,"x_min":18,"x_max":896,"o":"m 833 0 l 508 0 l 508 11 q 569 93 508 88 l 610 96 l 611 96 l 556 297 l 306 297 l 247 99 l 360 90 q 358 53 364 82 q 297 0 346 0 l 18 0 l 18 11 q 79 93 18 88 l 131 96 l 397 951 q 538 951 457 957 l 799 99 l 896 90 q 894 53 900 82 q 833 0 882 0 m 332 390 l 531 390 l 435 742 l 332 390 m 671 1150 l 671 1053 l 261 1053 l 261 1150 l 671 1150 z "},"ā":{"ha":724,"x_min":42,"x_max":710,"o":"m 710 63 q 601 -21 710 -21 q 461 51 493 -21 q 268 -21 374 -21 q 102 31 163 -21 q 42 174 42 83 q 113 324 42 265 q 336 382 183 382 q 450 374 396 382 l 450 435 q 419 571 450 531 q 333 611 388 611 q 247 576 279 611 q 214 482 214 542 q 122 499 158 476 q 85 569 85 522 q 154 679 85 636 q 333 722 224 722 q 619 444 619 722 l 619 74 l 710 63 m 450 269 q 345 288 400 288 q 254 262 290 288 q 218 189 218 236 q 318 92 218 92 q 450 132 389 92 l 450 269 m 549 900 l 549 803 l 139 803 l 139 900 l 549 900 z "},"Ă":{"ha":917,"x_min":18,"x_max":896,"o":"m 833 0 l 508 0 l 508 11 q 569 93 508 88 l 610 96 l 611 96 l 556 297 l 306 297 l 247 99 l 360 90 q 358 53 364 82 q 297 0 346 0 l 18 0 l 18 11 q 79 93 18 88 l 131 96 l 397 951 q 538 951 457 957 l 799 99 l 896 90 q 894 53 900 82 q 833 0 882 0 m 332 390 l 531 390 l 435 742 l 332 390 m 628 1087 q 599 1057 628 1087 q 468 1026 569 1026 q 308 1087 367 1026 q 239 1231 250 1147 l 289 1258 q 351 1181 307 1217 q 469 1144 396 1144 q 647 1258 599 1144 l 697 1231 q 628 1087 686 1147 z "},"ă":{"ha":724,"x_min":42,"x_max":710,"o":"m 710 63 q 601 -21 710 -21 q 461 51 493 -21 q 268 -21 374 -21 q 102 31 163 -21 q 42 174 42 83 q 113 324 42 265 q 336 382 183 382 q 450 374 396 382 l 450 435 q 419 571 450 531 q 333 611 388 611 q 247 576 279 611 q 214 482 214 542 q 122 499 158 476 q 85 569 85 522 q 154 679 85 636 q 333 722 224 722 q 619 444 619 722 l 619 74 l 710 63 m 450 269 q 345 288 400 288 q 254 262 290 288 q 218 189 218 236 q 318 92 218 92 q 450 132 389 92 l 450 269 m 506 837 q 476 807 506 837 q 346 776 447 776 q 186 837 244 776 q 117 981 128 897 l 167 1008 q 229 931 185 967 q 347 894 274 894 q 525 1008 476 894 l 575 981 q 506 837 564 897 z "},"Ą":{"ha":917,"x_min":18,"x_max":919,"o":"m 781 -114 q 797 -165 781 -147 q 843 -182 813 -182 q 910 -153 874 -182 q 919 -177 915 -157 q 919 -210 922 -197 q 815 -256 888 -256 q 708 -224 743 -256 q 674 -146 674 -192 q 756 0 674 -62 l 508 0 l 508 11 q 569 93 508 88 l 610 96 l 611 96 l 556 297 l 306 297 l 247 99 l 360 90 q 358 53 364 82 q 297 0 346 0 l 18 0 l 18 11 q 79 93 18 88 l 131 96 l 397 951 q 538 951 457 957 l 799 99 l 896 90 q 896 65 894 82 q 885 27 897 47 q 849 1 872 7 q 781 -114 781 -39 m 332 390 l 531 390 l 435 742 l 332 390 z "},"ą":{"ha":724,"x_min":42,"x_max":740,"o":"m 601 -117 q 617 -167 601 -150 q 664 -185 633 -185 q 731 -156 694 -185 q 740 -180 736 -160 q 740 -212 743 -200 q 636 -258 708 -258 q 529 -226 564 -258 q 494 -149 494 -194 q 558 -18 494 -75 q 461 51 486 -7 q 268 -21 374 -21 q 102 31 163 -21 q 42 174 42 83 q 113 324 42 265 q 336 382 183 382 q 450 374 396 382 l 450 435 q 419 571 450 531 q 333 611 388 611 q 247 576 279 611 q 214 482 214 542 q 122 499 158 476 q 85 569 85 522 q 154 679 85 636 q 333 722 224 722 q 619 444 619 722 l 619 74 l 710 63 q 651 -14 710 4 q 601 -117 601 -51 m 450 269 q 345 288 400 288 q 254 262 290 288 q 218 189 218 236 q 318 92 218 92 q 450 132 389 92 l 450 269 z "},"Ć":{"ha":836,"x_min":49,"x_max":794,"o":"m 714 1169 l 426 1017 q 368 1074 383 1039 l 600 1264 q 667 1226 632 1257 q 714 1169 701 1194 m 514 972 q 710 919 635 972 q 786 790 786 865 q 749 704 786 735 q 647 674 711 674 q 497 853 647 853 q 299 749 369 853 q 229 469 229 646 q 297 197 229 292 q 513 103 365 103 q 772 188 660 103 q 794 143 794 174 q 696 33 794 86 q 464 -21 597 -21 q 153 106 258 -21 q 49 464 49 233 q 167 833 49 694 q 514 972 286 972 z "},"ć":{"ha":656,"x_min":49,"x_max":632,"o":"m 394 722 q 558 680 494 722 q 621 572 621 638 q 582 481 621 507 q 500 460 543 454 q 468 564 499 519 q 370 608 438 608 q 264 544 303 608 q 225 363 225 479 q 424 104 225 104 q 601 179 517 104 q 624 151 615 171 q 632 118 632 132 q 551 26 632 74 q 364 -21 469 -21 q 133 74 217 -21 q 49 342 49 169 q 143 618 49 514 q 394 722 238 722 m 611 919 l 324 767 q 265 824 281 789 l 497 1014 q 564 976 529 1007 q 611 919 599 944 z "},"Ĉ":{"ha":836,"x_min":49,"x_max":794,"o":"m 794 143 q 696 33 794 86 q 464 -21 597 -21 q 153 106 258 -21 q 49 464 49 233 q 167 833 49 694 q 514 972 286 972 q 710 919 635 972 q 786 790 786 865 q 749 704 786 735 q 647 674 711 674 q 497 853 647 853 q 299 749 369 853 q 229 469 229 646 q 297 197 229 292 q 513 103 365 103 q 772 188 660 103 q 794 143 794 174 m 482 1124 l 288 1004 q 239 1057 257 1022 l 432 1232 q 538 1232 489 1244 l 725 1057 q 674 1004 701 1019 l 482 1124 z "},"ĉ":{"ha":656,"x_min":49,"x_max":632,"o":"m 632 118 q 551 26 632 74 q 364 -21 469 -21 q 133 74 217 -21 q 49 342 49 169 q 143 618 49 514 q 394 722 238 722 q 558 680 494 722 q 621 572 621 638 q 582 481 621 507 q 500 460 543 454 q 468 564 499 519 q 370 608 438 608 q 264 544 303 608 q 225 363 225 479 q 424 104 225 104 q 601 179 517 104 q 624 151 615 171 q 632 118 632 132 m 379 874 l 185 754 q 136 807 154 772 l 329 982 q 435 982 386 994 l 622 807 q 571 754 599 769 l 379 874 z "},"Ċ":{"ha":836,"x_min":49,"x_max":794,"o":"m 514 972 q 710 919 635 972 q 786 790 786 865 q 749 704 786 735 q 647 674 711 674 q 497 853 647 853 q 299 749 369 853 q 229 469 229 646 q 297 197 229 292 q 513 103 365 103 q 772 188 660 103 q 794 143 794 174 q 696 33 794 86 q 464 -21 597 -21 q 153 106 258 -21 q 49 464 49 233 q 167 833 49 694 q 514 972 286 972 m 563 1065 q 548 1051 563 1065 q 490 1036 533 1036 q 417 1066 447 1036 q 388 1139 388 1096 q 417 1212 388 1182 q 490 1242 447 1242 q 563 1212 533 1242 q 593 1138 593 1182 q 563 1065 593 1094 z "},"ċ":{"ha":656,"x_min":49,"x_max":632,"o":"m 460 815 q 445 801 460 815 q 388 786 431 786 q 315 816 344 786 q 285 889 285 846 q 315 962 285 932 q 388 992 344 992 q 460 962 431 992 q 490 888 490 932 q 460 815 490 844 m 394 722 q 558 680 494 722 q 621 572 621 638 q 582 481 621 507 q 500 460 543 454 q 468 564 499 519 q 370 608 438 608 q 264 544 303 608 q 225 363 225 479 q 424 104 225 104 q 601 179 517 104 q 624 151 615 171 q 632 118 632 132 q 551 26 632 74 q 364 -21 469 -21 q 133 74 217 -21 q 49 342 49 169 q 143 618 49 514 q 394 722 238 722 z "},"Č":{"ha":836,"x_min":49,"x_max":794,"o":"m 794 143 q 696 33 794 86 q 464 -21 597 -21 q 153 106 258 -21 q 49 464 49 233 q 167 833 49 694 q 514 972 286 972 q 710 919 635 972 q 786 790 786 865 q 749 704 786 735 q 647 674 711 674 q 497 853 647 853 q 299 749 369 853 q 229 469 229 646 q 297 197 229 292 q 513 103 365 103 q 772 188 660 103 q 794 143 794 174 m 722 1204 l 535 1029 q 429 1029 486 1017 l 236 1204 q 285 1257 254 1239 l 479 1138 l 671 1257 q 722 1204 699 1242 z "},"č":{"ha":656,"x_min":49,"x_max":632,"o":"m 632 118 q 551 26 632 74 q 364 -21 469 -21 q 133 74 217 -21 q 49 342 49 169 q 143 618 49 514 q 394 722 238 722 q 558 680 494 722 q 621 572 621 638 q 582 481 621 507 q 500 460 543 454 q 468 564 499 519 q 370 608 438 608 q 264 544 303 608 q 225 363 225 479 q 424 104 225 104 q 601 179 517 104 q 624 151 615 171 q 632 118 632 132 m 619 954 l 432 779 q 326 779 383 767 l 133 954 q 182 1007 151 989 l 376 888 l 568 1007 q 619 954 596 992 z "},"Ď":{"ha":989,"x_min":57,"x_max":940,"o":"m 129 951 l 454 951 q 940 481 940 951 q 814 124 940 247 q 461 0 688 0 l 57 0 q 65 61 53 33 q 106 92 76 89 l 156 97 l 156 853 l 154 853 l 57 861 q 71 931 56 910 q 129 951 86 951 m 419 96 q 679 175 599 85 q 760 474 760 265 q 677 773 760 683 q 407 856 594 863 l 329 853 l 329 101 l 419 96 m 690 1204 l 503 1029 q 397 1029 454 1017 l 204 1204 q 253 1257 222 1239 l 447 1138 l 639 1257 q 690 1204 667 1242 z "},"ď":{"ha":974,"x_min":49,"x_max":932,"o":"m 932 1035 q 908 878 935 954 q 833 747 882 803 q 797 756 825 742 q 768 778 768 769 q 790 920 790 838 q 772 1057 789 1003 q 855 1072 790 1079 q 932 1035 919 1065 m 788 67 q 670 -22 788 -22 q 531 54 553 -22 q 328 -21 442 -21 q 133 60 215 -21 q 49 319 51 142 q 134 610 46 497 q 393 722 222 722 q 525 699 469 722 l 525 871 l 471 876 q 419 963 414 882 l 694 993 l 694 75 l 788 67 m 382 610 q 225 350 225 610 q 266 165 225 231 q 381 100 307 100 q 525 163 456 100 l 525 554 q 382 610 458 610 z "},"Đ":{"ha":1000,"x_min":57,"x_max":940,"o":"m 129 951 l 454 951 q 940 481 940 951 q 814 124 940 247 q 461 0 688 0 l 57 0 q 65 61 53 33 q 106 92 76 89 l 156 97 l 156 419 l 75 419 l 75 517 l 156 517 l 156 853 l 154 853 l 57 861 q 71 931 56 910 q 129 951 86 951 m 419 96 q 679 175 599 85 q 760 474 760 265 q 677 773 760 683 q 407 856 594 863 l 329 853 l 329 517 l 526 517 l 526 419 l 329 419 l 329 101 l 419 96 z "},"đ":{"ha":819,"x_min":49,"x_max":806,"o":"m 806 749 l 694 749 l 694 75 l 788 67 q 670 -22 788 -22 q 531 54 553 -22 q 328 -21 442 -21 q 133 60 215 -21 q 49 319 51 142 q 134 610 46 497 q 393 722 222 722 q 525 699 469 722 l 525 749 l 425 749 l 425 832 l 525 832 l 525 871 l 471 876 q 419 963 414 882 l 694 993 l 694 832 l 806 832 l 806 749 m 382 610 q 225 350 225 610 q 266 165 225 231 q 381 100 307 100 q 525 163 456 100 l 525 554 q 382 610 458 610 z "},"Ē":{"ha":796,"x_min":56,"x_max":754,"o":"m 240 1150 l 650 1150 l 650 1053 l 240 1053 l 240 1150 m 754 226 l 754 0 l 56 0 q 117 93 56 89 l 157 96 l 157 853 l 57 861 q 58 899 53 869 q 119 951 71 951 l 728 951 l 728 742 q 639 688 728 679 l 626 851 l 331 856 l 331 511 l 579 540 q 581 403 594 474 l 331 417 l 331 99 l 654 110 l 665 281 q 754 226 754 289 z "},"ē":{"ha":690,"x_min":49,"x_max":647,"o":"m 225 340 l 225 325 q 266 158 225 213 q 408 103 307 103 q 606 179 508 103 q 633 115 633 158 q 556 25 633 71 q 364 -21 479 -21 q 131 67 214 -21 q 49 335 49 156 q 138 619 49 515 q 385 722 228 722 q 584 639 518 722 q 647 419 650 556 l 647 340 l 225 340 m 369 611 q 232 436 256 611 l 485 436 q 453 571 482 531 q 369 611 424 611 m 589 900 l 589 803 l 179 803 l 179 900 l 589 900 z "},"Ĕ":{"ha":796,"x_min":56,"x_max":754,"o":"m 754 226 l 754 0 l 56 0 q 117 93 56 89 l 157 96 l 157 853 l 57 861 q 58 899 53 869 q 119 951 71 951 l 728 951 l 728 742 q 639 688 728 679 l 626 851 l 331 856 l 331 511 l 579 540 q 581 403 594 474 l 331 417 l 331 99 l 654 110 l 665 281 q 754 226 754 289 m 449 1144 q 626 1258 578 1144 l 676 1231 q 607 1087 665 1147 q 447 1026 549 1026 q 288 1087 346 1026 q 218 1231 229 1147 l 268 1258 q 331 1181 286 1217 q 449 1144 375 1144 z "},"ĕ":{"ha":690,"x_min":49,"x_max":647,"o":"m 225 340 l 225 325 q 266 158 225 213 q 408 103 307 103 q 606 179 508 103 q 633 115 633 158 q 556 25 633 71 q 364 -21 479 -21 q 131 67 214 -21 q 49 335 49 156 q 138 619 49 515 q 385 722 228 722 q 584 639 518 722 q 647 419 650 556 l 647 340 l 225 340 m 369 611 q 232 436 256 611 l 485 436 q 453 571 482 531 q 369 611 424 611 m 546 837 q 517 807 546 837 q 386 776 488 776 q 226 837 285 776 q 157 981 168 897 l 207 1008 q 269 931 225 967 q 388 894 314 894 q 565 1008 517 894 l 615 981 q 546 837 604 897 z "},"Ė":{"ha":796,"x_min":56,"x_max":754,"o":"m 527 1065 q 512 1051 527 1065 q 454 1036 497 1036 q 381 1066 411 1036 q 351 1139 351 1096 q 381 1212 351 1182 q 454 1242 411 1242 q 527 1212 497 1242 q 557 1138 557 1182 q 527 1065 557 1094 m 754 226 l 754 0 l 56 0 q 117 93 56 89 l 157 96 l 157 853 l 57 861 q 58 899 53 869 q 119 951 71 951 l 728 951 l 728 742 q 639 688 728 679 l 626 851 l 331 856 l 331 511 l 579 540 q 581 403 594 474 l 331 417 l 331 99 l 654 110 l 665 281 q 754 226 754 289 z "},"ė":{"ha":690,"x_min":49,"x_max":647,"o":"m 225 340 l 225 325 q 266 158 225 213 q 408 103 307 103 q 606 179 508 103 q 633 115 633 158 q 556 25 633 71 q 364 -21 479 -21 q 131 67 214 -21 q 49 335 49 156 q 138 619 49 515 q 385 722 228 722 q 584 639 518 722 q 647 419 650 556 l 647 340 l 225 340 m 369 611 q 232 436 256 611 l 485 436 q 453 571 482 531 q 369 611 424 611 m 466 815 q 451 801 466 815 q 393 786 436 786 q 320 816 350 786 q 290 889 290 846 q 320 962 290 932 q 393 992 350 992 q 466 962 436 992 q 496 888 496 932 q 466 815 496 844 z "},"Ę":{"ha":796,"x_min":56,"x_max":763,"o":"m 754 0 l 696 0 q 624 -118 624 -40 q 640 -169 624 -151 q 686 -186 656 -186 q 753 -157 717 -186 q 762 -181 758 -161 q 763 -214 765 -201 q 658 -260 731 -260 q 551 -228 586 -260 q 517 -150 517 -196 q 606 0 517 -61 l 56 0 q 117 93 56 89 l 157 96 l 157 853 l 57 861 q 58 899 53 869 q 119 951 71 951 l 728 951 l 728 742 q 639 688 728 679 l 626 851 l 331 856 l 331 511 l 579 540 q 581 403 594 474 l 331 417 l 331 99 l 654 110 l 665 281 q 754 226 754 289 l 754 0 z "},"ę":{"ha":690,"x_min":49,"x_max":647,"o":"m 501 -83 q 517 -134 501 -117 q 564 -151 533 -151 q 631 -122 594 -151 q 640 -147 636 -126 q 640 -179 643 -167 q 536 -225 608 -225 q 429 -193 464 -225 q 394 -110 394 -161 q 429 -17 394 -60 q 364 -21 397 -21 q 131 67 214 -21 q 49 335 49 156 q 138 619 49 515 q 385 722 228 722 q 584 639 518 722 q 647 419 650 556 l 647 340 l 225 340 l 225 325 q 266 158 225 213 q 408 103 307 103 q 606 179 508 103 q 633 121 633 158 q 586 44 633 83 l 588 42 q 501 -83 501 0 m 369 611 q 232 436 256 611 l 485 436 q 453 571 482 531 q 369 611 424 611 z "},"Ě":{"ha":796,"x_min":56,"x_max":754,"o":"m 754 226 l 754 0 l 56 0 q 117 93 56 89 l 157 96 l 157 853 l 57 861 q 58 899 53 869 q 119 951 71 951 l 728 951 l 728 742 q 639 688 728 679 l 626 851 l 331 856 l 331 511 l 579 540 q 581 403 594 474 l 331 417 l 331 99 l 654 110 l 665 281 q 754 226 754 289 m 686 1204 l 499 1029 q 393 1029 450 1017 l 200 1204 q 249 1257 218 1239 l 443 1138 l 635 1257 q 686 1204 663 1242 z "},"ě":{"ha":690,"x_min":49,"x_max":647,"o":"m 225 340 l 225 325 q 266 158 225 213 q 408 103 307 103 q 606 179 508 103 q 633 115 633 158 q 556 25 633 71 q 364 -21 479 -21 q 131 67 214 -21 q 49 335 49 156 q 138 619 49 515 q 385 722 228 722 q 584 639 518 722 q 647 419 650 556 l 647 340 l 225 340 m 369 611 q 232 436 256 611 l 485 436 q 453 571 482 531 q 369 611 424 611 m 625 954 l 438 779 q 332 779 389 767 l 139 954 q 188 1007 157 989 l 382 888 l 574 1007 q 625 954 601 992 z "},"Ĝ":{"ha":950,"x_min":49,"x_max":928,"o":"m 549 439 l 928 439 q 928 428 928 439 q 867 346 928 351 l 826 343 l 818 343 l 818 128 q 683 20 782 61 q 461 -21 585 -21 q 153 106 258 -21 q 49 464 49 233 q 167 833 49 694 q 511 972 286 972 q 754 920 669 972 q 839 790 839 868 q 801 704 839 735 q 700 674 764 674 q 655 825 700 778 q 494 872 610 872 q 229 482 229 872 q 297 197 229 290 q 515 103 364 103 q 683 157 632 103 l 683 340 l 486 349 q 549 439 478 439 m 501 1124 l 307 1004 q 258 1057 276 1022 l 451 1232 q 557 1232 508 1244 l 744 1057 q 693 1004 721 1019 l 501 1124 z "},"ĝ":{"ha":671,"x_min":26,"x_max":667,"o":"m 308 203 q 239 210 274 203 q 219 160 219 175 q 251 140 219 144 q 403 131 283 135 q 588 88 522 126 q 654 -43 654 50 q 556 -247 654 -171 q 313 -324 457 -324 q 98 -271 169 -324 q 26 -135 26 -218 q 107 24 26 -51 q 86 90 86 49 q 156 244 86 164 q 49 456 49 314 q 123 647 49 571 q 322 722 197 722 q 467 689 404 722 l 653 739 q 667 682 665 724 q 653 626 668 640 q 544 618 632 615 q 579 452 585 558 q 500 274 574 346 q 308 203 426 203 m 536 -86 q 489 -44 536 -54 q 329 -29 442 -35 q 185 -17 217 -24 q 150 -101 150 -58 q 194 -172 150 -144 q 328 -200 239 -200 q 476 -167 417 -200 q 536 -86 536 -135 m 311 304 q 390 345 361 304 q 419 460 419 386 q 392 576 419 535 q 313 617 364 617 q 234 575 261 617 q 207 458 207 533 q 311 304 207 304 m 321 874 l 126 754 q 78 807 96 772 l 271 982 q 376 982 328 994 l 564 807 q 513 754 540 769 l 321 874 z "},"Ğ":{"ha":950,"x_min":49,"x_max":928,"o":"m 549 439 l 928 439 q 928 428 928 439 q 867 346 928 351 l 826 343 l 818 343 l 818 128 q 683 20 782 61 q 461 -21 585 -21 q 153 106 258 -21 q 49 464 49 233 q 167 833 49 694 q 511 972 286 972 q 754 920 669 972 q 839 790 839 868 q 801 704 839 735 q 700 674 764 674 q 655 825 700 778 q 494 872 610 872 q 229 482 229 872 q 297 197 229 290 q 515 103 364 103 q 683 157 632 103 l 683 340 l 486 349 q 549 439 478 439 m 663 1087 q 633 1057 663 1087 q 503 1026 604 1026 q 343 1087 401 1026 q 274 1231 285 1147 l 324 1258 q 386 1181 342 1217 q 504 1144 431 1144 q 682 1258 633 1144 l 732 1231 q 663 1087 721 1147 z "},"ğ":{"ha":671,"x_min":26,"x_max":667,"o":"m 308 203 q 239 210 274 203 q 219 160 219 175 q 251 140 219 144 q 403 131 283 135 q 588 88 522 126 q 654 -43 654 50 q 556 -247 654 -171 q 313 -324 457 -324 q 98 -271 169 -324 q 26 -135 26 -218 q 107 24 26 -51 q 86 90 86 49 q 156 244 86 164 q 49 456 49 314 q 123 647 49 571 q 322 722 197 722 q 467 689 404 722 l 653 739 q 667 682 665 724 q 653 626 668 640 q 544 618 632 615 q 579 452 585 558 q 500 274 574 346 q 308 203 426 203 m 536 -86 q 489 -44 536 -54 q 329 -29 442 -35 q 185 -17 217 -24 q 150 -101 150 -58 q 194 -172 150 -144 q 328 -200 239 -200 q 476 -167 417 -200 q 536 -86 536 -135 m 311 304 q 390 345 361 304 q 419 460 419 386 q 392 576 419 535 q 313 617 364 617 q 234 575 261 617 q 207 458 207 533 q 311 304 207 304 m 482 837 q 453 807 482 837 q 322 776 424 776 q 163 837 221 776 q 93 981 104 897 l 143 1008 q 206 931 161 967 q 324 894 250 894 q 501 1008 453 894 l 551 981 q 482 837 540 897 z "},"Ġ":{"ha":950,"x_min":49,"x_max":928,"o":"m 549 439 l 928 439 q 928 428 928 439 q 867 346 928 351 l 826 343 l 818 343 l 818 128 q 683 20 782 61 q 461 -21 585 -21 q 153 106 258 -21 q 49 464 49 233 q 167 833 49 694 q 511 972 286 972 q 754 920 669 972 q 839 790 839 868 q 801 704 839 735 q 700 674 764 674 q 655 825 700 778 q 494 872 610 872 q 229 482 229 872 q 297 197 229 290 q 515 103 364 103 q 683 157 632 103 l 683 340 l 486 349 q 549 439 478 439 m 583 1065 q 568 1051 583 1065 q 510 1036 553 1036 q 437 1066 467 1036 q 407 1139 407 1096 q 437 1212 407 1182 q 510 1242 467 1242 q 583 1212 553 1242 q 613 1138 613 1182 q 583 1065 613 1094 z "},"ġ":{"ha":671,"x_min":26,"x_max":667,"o":"m 308 203 q 239 210 274 203 q 219 160 219 175 q 251 140 219 144 q 403 131 283 135 q 588 88 522 126 q 654 -43 654 50 q 556 -247 654 -171 q 313 -324 457 -324 q 98 -271 169 -324 q 26 -135 26 -218 q 107 24 26 -51 q 86 90 86 49 q 156 244 86 164 q 49 456 49 314 q 123 647 49 571 q 322 722 197 722 q 467 689 404 722 l 653 739 q 667 682 665 724 q 653 626 668 640 q 544 618 632 615 q 579 452 585 558 q 500 274 574 346 q 308 203 426 203 m 536 -86 q 489 -44 536 -54 q 329 -29 442 -35 q 185 -17 217 -24 q 150 -101 150 -58 q 194 -172 150 -144 q 328 -200 239 -200 q 476 -167 417 -200 q 536 -86 536 -135 m 311 304 q 390 345 361 304 q 419 460 419 386 q 392 576 419 535 q 313 617 364 617 q 234 575 261 617 q 207 458 207 533 q 311 304 207 304 m 402 815 q 387 801 402 815 q 329 786 372 786 q 256 816 286 786 q 226 889 226 846 q 256 962 226 932 q 329 992 286 992 q 402 962 372 992 q 432 888 432 932 q 402 815 432 844 z "},"Ģ":{"ha":950,"x_min":49,"x_max":928,"o":"m 549 439 l 928 439 q 928 428 928 439 q 867 346 928 351 l 826 343 l 818 343 l 818 128 q 683 20 782 61 q 461 -21 585 -21 q 153 106 258 -21 q 49 464 49 233 q 167 833 49 694 q 511 972 286 972 q 754 920 669 972 q 839 790 839 868 q 801 704 839 735 q 700 674 764 674 q 655 825 700 778 q 494 872 610 872 q 229 482 229 872 q 297 197 229 290 q 515 103 364 103 q 683 157 632 103 l 683 340 l 486 349 q 549 439 478 439 m 372 -140 q 372 -117 372 -140 q 401 -65 372 -94 q 480 -35 431 -35 q 559 -65 529 -35 q 589 -160 589 -96 q 534 -306 589 -224 q 419 -414 479 -389 q 394 -405 411 -419 q 378 -381 378 -390 q 465 -250 439 -337 q 397 -215 422 -244 q 372 -140 372 -186 z "},"ģ":{"ha":671,"x_min":26,"x_max":667,"o":"m 308 203 q 239 210 274 203 q 219 160 219 175 q 251 140 219 144 q 403 131 283 135 q 588 88 522 126 q 654 -43 654 50 q 556 -247 654 -171 q 313 -324 457 -324 q 98 -271 169 -324 q 26 -135 26 -218 q 107 24 26 -51 q 86 90 86 49 q 156 244 86 164 q 49 456 49 314 q 123 647 49 571 q 322 722 197 722 q 467 689 404 722 l 653 739 q 667 682 665 724 q 653 626 668 640 q 544 618 632 615 q 579 452 585 558 q 500 274 574 346 q 308 203 426 203 m 536 -86 q 489 -44 536 -54 q 329 -29 442 -35 q 185 -17 217 -24 q 150 -101 150 -58 q 194 -172 150 -144 q 328 -200 239 -200 q 476 -167 417 -200 q 536 -86 536 -135 m 311 304 q 390 345 361 304 q 419 460 419 386 q 392 576 419 535 q 313 617 364 617 q 234 575 261 617 q 207 458 207 533 q 311 304 207 304 m 435 869 q 435 847 435 869 q 406 794 435 824 q 327 764 376 764 q 248 794 278 764 q 218 889 218 825 q 273 1035 218 953 q 388 1143 328 1118 q 413 1134 396 1149 q 429 1110 429 1119 q 342 979 368 1067 q 410 944 385 974 q 435 869 435 915 z "},"Ĥ":{"ha":1064,"x_min":56,"x_max":1008,"o":"m 944 0 l 632 0 l 632 11 q 693 93 632 88 l 733 96 l 733 424 l 331 424 l 331 99 l 431 90 q 368 0 439 0 l 56 0 l 56 11 q 117 93 56 88 l 157 96 l 157 853 l 57 861 q 58 899 53 869 q 119 951 71 951 l 432 951 l 432 940 q 371 858 432 864 l 331 856 l 331 517 l 733 517 l 733 853 l 633 861 q 696 951 625 951 l 1008 951 l 1008 940 q 947 858 1008 864 l 907 856 l 907 99 l 1007 90 q 1006 53 1011 82 q 944 0 993 0 m 532 1124 l 338 1004 q 289 1057 307 1022 l 482 1232 q 588 1232 539 1244 l 775 1057 q 724 1004 751 1019 l 532 1124 z "},"ĥ":{"ha":901,"x_min":43,"x_max":875,"o":"m 813 0 l 506 0 l 506 11 q 567 93 506 88 l 607 96 l 607 438 q 574 551 607 519 q 467 583 540 583 q 318 519 393 583 l 318 99 l 417 90 q 354 0 425 0 l 44 0 l 44 11 q 106 93 44 88 l 149 96 l 149 869 l 94 875 q 43 961 38 881 l 318 992 l 318 638 q 522 722 417 722 q 702 651 628 722 q 776 431 776 579 l 776 99 l 875 90 q 813 0 883 0 m 576 874 l 382 754 q 333 807 351 772 l 526 982 q 632 982 583 994 l 819 807 q 768 754 796 769 l 576 874 z "},"Ħ":{"ha":1064,"x_min":56,"x_max":1008,"o":"m 944 0 l 632 0 l 632 11 q 693 93 632 88 l 733 96 l 733 424 l 331 424 l 331 99 l 431 90 q 368 0 439 0 l 56 0 l 56 11 q 117 93 56 88 l 157 96 l 157 628 l 68 628 l 68 725 l 157 725 l 157 853 l 57 861 q 58 899 53 869 q 119 951 71 951 l 432 951 l 432 940 q 371 858 432 864 l 331 856 l 331 725 l 733 725 l 733 853 l 633 861 q 696 951 625 951 l 1008 951 l 1008 940 q 947 858 1008 864 l 907 856 l 907 725 l 1001 725 l 1001 628 l 907 628 l 907 99 l 1007 90 q 1006 53 1011 82 q 944 0 993 0 m 331 517 l 733 517 l 733 628 l 331 628 l 331 517 z "},"ħ":{"ha":901,"x_min":43,"x_max":875,"o":"m 813 0 l 506 0 l 506 11 q 567 93 506 88 l 607 96 l 607 438 q 574 551 607 519 q 467 583 540 583 q 318 519 393 583 l 318 99 l 417 90 q 354 0 425 0 l 44 0 l 44 11 q 106 93 44 88 l 149 96 l 149 736 l 51 736 l 51 819 l 149 819 l 149 869 l 94 875 q 43 961 38 881 l 318 992 l 318 819 l 432 819 l 432 736 l 318 736 l 318 638 q 522 722 417 722 q 702 651 628 722 q 776 431 776 579 l 776 99 l 875 90 q 813 0 883 0 z "},"Ĩ":{"ha":488,"x_min":7,"x_max":486,"o":"m 331 99 l 332 99 l 431 90 q 368 0 439 0 l 56 0 l 56 11 q 117 93 56 88 l 157 96 l 157 853 l 156 853 l 57 861 q 58 899 53 869 q 119 951 71 951 l 432 951 l 432 940 q 371 858 432 864 l 331 856 l 331 99 m 332 1031 q 215 1067 276 1031 q 129 1103 154 1103 q 83 1086 104 1103 q 54 1042 63 1069 l 7 1058 q 57 1187 18 1138 q 147 1236 96 1236 q 256 1195 199 1236 q 350 1154 314 1154 q 410 1174 386 1154 q 442 1225 435 1193 l 486 1213 q 332 1031 463 1031 z "},"ĩ":{"ha":443,"x_min":-12,"x_max":467,"o":"m 354 0 l 44 0 l 44 11 q 106 93 44 88 l 149 96 l 149 600 l 94 606 q 43 692 38 611 l 318 722 l 318 99 l 417 90 q 354 0 425 0 m 313 781 q 196 817 257 781 q 110 853 135 853 q 64 836 85 853 q 35 792 43 819 l -12 808 q 38 937 -1 888 q 128 986 76 986 q 237 945 179 986 q 331 904 294 904 q 391 924 367 904 q 422 975 415 943 l 467 963 q 313 781 443 781 z "},"Ī":{"ha":488,"x_min":38,"x_max":447,"o":"m 38 1150 l 447 1150 l 447 1053 l 38 1053 l 38 1150 m 331 99 l 332 99 l 431 90 q 368 0 439 0 l 56 0 l 56 11 q 117 93 56 88 l 157 96 l 157 853 l 156 853 l 57 861 q 58 899 53 869 q 119 951 71 951 l 432 951 l 432 940 q 371 858 432 864 l 331 856 l 331 99 z "},"ī":{"ha":443,"x_min":18,"x_max":428,"o":"m 18 900 l 428 900 l 428 803 l 18 803 l 18 900 m 354 0 l 44 0 l 44 11 q 106 93 44 88 l 149 96 l 149 600 l 94 606 q 43 692 38 611 l 318 722 l 318 99 l 417 90 q 354 0 425 0 z "},"Ĭ":{"ha":488,"x_min":15,"x_max":474,"o":"m 331 99 l 332 99 l 431 90 q 368 0 439 0 l 56 0 l 56 11 q 117 93 56 88 l 157 96 l 157 853 l 156 853 l 57 861 q 58 899 53 869 q 119 951 71 951 l 432 951 l 432 940 q 371 858 432 864 l 331 856 l 331 99 m 404 1087 q 375 1057 404 1087 q 244 1026 346 1026 q 85 1087 143 1026 q 15 1231 26 1147 l 65 1258 q 128 1181 83 1217 q 246 1144 172 1144 q 424 1258 375 1144 l 474 1231 q 404 1087 463 1147 z "},"ĭ":{"ha":443,"x_min":-4,"x_max":454,"o":"m 354 0 l 44 0 l 44 11 q 106 93 44 88 l 149 96 l 149 600 l 94 606 q 43 692 38 611 l 318 722 l 318 99 l 417 90 q 354 0 425 0 m 385 837 q 356 807 385 837 q 225 776 326 776 q 65 837 124 776 q -4 981 7 897 l 46 1008 q 108 931 64 967 q 226 894 153 894 q 404 1008 356 894 l 454 981 q 385 837 443 897 z "},"Į":{"ha":488,"x_min":56,"x_max":447,"o":"m 308 -111 q 324 -162 308 -144 q 371 -179 340 -179 q 438 -150 401 -179 q 447 -174 443 -154 q 447 -207 450 -194 q 343 -253 415 -253 q 236 -221 271 -253 q 201 -143 201 -189 q 281 0 201 -57 l 56 0 l 56 11 q 117 93 56 88 l 157 96 l 157 853 l 156 853 l 57 861 q 58 899 53 869 q 119 951 71 951 l 432 951 l 432 940 q 371 858 432 864 l 331 856 l 331 99 l 332 99 l 431 90 q 369 0 439 1 q 308 -111 308 -40 z "},"į":{"ha":443,"x_min":43,"x_max":435,"o":"m 296 -119 q 312 -170 296 -153 q 358 -187 328 -187 q 425 -158 389 -187 q 434 -183 431 -162 q 435 -215 438 -203 q 331 -261 403 -261 q 224 -229 258 -261 q 189 -151 189 -197 q 279 0 189 -62 l 44 0 l 44 11 q 106 93 44 88 l 149 96 l 149 600 l 94 606 q 43 692 38 611 l 318 722 l 318 99 l 417 90 q 379 4 425 21 q 296 -119 296 -37 m 305 815 q 290 801 305 815 q 232 786 275 786 q 159 816 189 786 q 129 889 129 846 q 159 962 129 932 q 232 992 189 992 q 305 962 275 992 q 335 888 335 932 q 305 815 335 844 z "},"İ":{"ha":488,"x_min":56,"x_max":432,"o":"m 368 0 l 56 0 l 56 11 q 117 93 56 88 l 157 96 l 157 853 l 156 853 l 57 861 q 58 899 53 869 q 119 951 71 951 l 432 951 l 432 940 q 371 858 432 864 l 331 856 l 331 99 l 332 99 l 431 90 q 368 0 439 0 m 324 1065 q 309 1051 324 1065 q 251 1036 294 1036 q 178 1066 208 1036 q 149 1139 149 1096 q 178 1212 149 1182 q 251 1242 208 1242 q 324 1212 294 1242 q 354 1138 354 1182 q 324 1065 354 1094 z "},"ı":{"ha":443,"x_min":43,"x_max":417,"o":"m 354 0 l 44 0 l 44 11 q 106 93 44 88 l 149 96 l 149 600 l 94 606 q 43 692 38 611 l 318 722 l 318 99 l 417 90 q 354 0 425 0 z "},"Ĳ":{"ha":921,"x_min":56,"x_max":896,"o":"m 581 951 l 896 951 q 896 940 896 951 q 835 858 896 864 l 794 856 l 794 99 q 722 -122 794 -28 q 531 -215 649 -215 q 424 -181 464 -215 q 383 -100 383 -147 q 501 11 383 11 q 571 -99 501 -99 q 608 -66 596 -99 q 621 56 621 -33 l 621 853 l 619 853 l 518 861 q 519 899 514 869 q 581 951 532 951 m 368 0 l 56 0 l 56 11 q 117 93 56 88 l 157 96 l 157 853 l 156 853 l 57 861 q 58 899 53 869 q 119 951 71 951 l 432 951 l 432 940 q 371 858 432 864 l 331 856 l 331 99 l 332 99 l 431 90 q 368 0 439 0 z "},"ĳ":{"ha":849,"x_min":43,"x_max":746,"o":"m 738 104 q 658 -220 738 -115 q 447 -324 578 -325 q 388 -311 417 -324 q 329 -222 329 -285 q 358 -159 329 -181 q 432 -137 388 -137 q 445 -192 432 -169 q 493 -214 458 -214 q 548 -180 528 -214 q 568 -31 568 -146 l 568 601 l 508 607 q 461 693 461 611 l 738 722 l 738 104 m 354 0 l 44 0 l 44 11 q 106 93 44 88 l 149 96 l 149 600 l 94 606 q 43 692 38 611 l 318 722 l 318 99 l 417 90 q 354 0 425 0 m 325 888 q 325 866 325 888 q 296 815 325 844 q 223 785 267 785 q 149 815 179 785 q 119 888 119 844 q 149 960 119 931 q 222 990 179 990 q 295 960 265 990 q 325 888 325 931 m 716 815 q 701 801 716 815 q 643 786 686 786 q 570 816 600 786 q 540 889 540 846 q 570 962 540 932 q 643 992 600 992 q 716 962 686 992 q 746 888 746 932 q 716 815 746 844 z "},"Ĵ":{"ha":569,"x_min":32,"x_max":594,"o":"m 407 1232 l 594 1057 q 543 1004 571 1019 l 351 1124 l 157 1004 q 108 1057 126 1022 l 301 1232 q 407 1232 358 1244 m 229 951 l 544 951 l 544 940 q 483 858 544 864 l 443 856 l 443 193 q 372 -9 443 69 q 179 -87 300 -87 q 72 -53 113 -87 q 32 28 32 -19 q 150 139 32 139 q 219 29 150 29 q 257 62 244 29 q 269 183 269 94 l 269 853 l 268 853 l 167 861 q 229 951 158 951 z "},"ĵ":{"ha":397,"x_min":-114,"x_max":451,"o":"m 264 982 l 451 807 q 400 754 428 769 l 208 874 l 14 754 q -35 807 -17 772 l 158 982 q 264 982 215 994 m 294 104 q 215 -220 294 -115 q 4 -324 135 -325 q -56 -311 -26 -324 q -114 -222 -114 -285 q -85 -159 -114 -181 q -11 -137 -56 -137 q 2 -192 -11 -169 q 50 -214 15 -214 q 105 -180 85 -214 q 125 -31 125 -146 l 125 601 l 65 607 q 18 693 18 611 l 294 722 l 294 104 z "},"Ķ":{"ha":890,"x_min":56,"x_max":872,"o":"m 810 0 l 642 0 l 372 388 l 331 336 l 331 99 l 444 90 q 382 0 453 0 l 56 0 l 56 11 q 117 93 56 88 l 157 96 l 157 853 l 57 861 q 58 899 53 869 q 119 951 71 951 l 432 951 l 432 940 q 371 858 432 864 l 331 856 l 331 483 l 615 856 l 525 861 q 588 951 517 951 l 860 951 q 800 858 860 858 l 744 856 l 485 529 l 785 99 l 872 90 q 866 36 883 72 q 810 0 849 0 m 389 -140 q 389 -117 389 -140 q 418 -65 389 -94 q 497 -35 447 -35 q 576 -65 546 -35 q 606 -160 606 -96 q 551 -306 606 -224 q 436 -414 496 -389 q 411 -405 428 -419 q 394 -381 394 -390 q 482 -250 456 -337 q 414 -215 439 -244 q 389 -140 389 -186 z "},"ķ":{"ha":814,"x_min":43,"x_max":806,"o":"m 736 0 l 588 0 l 379 296 l 318 228 l 318 99 l 418 90 q 417 53 422 82 q 356 0 404 0 l 46 0 l 46 11 q 107 93 46 88 l 149 96 l 149 871 l 94 876 q 43 963 38 882 l 318 993 l 318 371 l 514 603 l 435 611 q 436 649 431 619 q 497 701 449 701 l 746 701 l 746 690 q 685 608 746 614 l 654 607 l 485 415 l 713 99 l 806 90 q 789 26 810 51 q 736 0 768 0 m 314 -167 q 314 -144 314 -167 q 343 -91 314 -121 q 422 -61 372 -61 q 501 -92 471 -61 q 531 -186 531 -122 q 476 -333 531 -250 q 361 -440 421 -415 q 336 -431 353 -446 q 319 -407 319 -417 q 407 -276 381 -364 q 339 -242 364 -271 q 314 -167 314 -212 z "},"ĸ":{"ha":814,"x_min":43,"x_max":806,"o":"m 497 701 l 746 701 l 746 690 q 685 608 746 614 l 654 607 l 485 415 l 713 99 l 806 90 q 789 26 810 51 q 736 0 768 0 l 588 0 l 379 296 l 318 228 l 318 99 l 418 90 q 417 53 422 82 q 356 0 404 0 l 46 0 l 46 11 q 107 93 46 88 l 149 96 l 149 579 l 94 585 q 43 671 38 590 l 318 701 l 318 371 l 514 603 l 435 611 q 436 649 431 619 q 497 701 449 701 z "},"Ĺ":{"ha":776,"x_min":56,"x_max":742,"o":"m 742 246 l 742 0 l 56 0 l 56 11 q 117 93 56 88 l 157 96 l 157 853 l 60 861 q 61 899 56 869 q 122 951 74 951 l 463 951 l 463 939 q 431 865 463 885 q 401 858 418 858 l 333 856 l 331 856 l 331 99 l 631 108 l 653 300 q 742 246 742 308 m 547 1169 l 260 1017 q 201 1074 217 1039 l 433 1264 q 500 1226 465 1257 q 547 1169 535 1194 z "},"ĺ":{"ha":443,"x_min":32,"x_max":417,"o":"m 354 0 l 44 0 l 44 11 q 106 93 44 88 l 149 96 l 149 871 l 94 876 q 43 963 38 882 l 318 993 l 318 99 l 417 90 q 354 0 425 0 m 378 1135 l 90 982 q 32 1039 47 1004 l 264 1229 q 331 1191 296 1222 q 378 1135 365 1160 z "},"Ļ":{"ha":776,"x_min":56,"x_max":742,"o":"m 742 246 l 742 0 l 56 0 l 56 11 q 117 93 56 88 l 157 96 l 157 853 l 60 861 q 61 899 56 869 q 122 951 74 951 l 463 951 l 463 939 q 431 865 463 885 q 401 858 418 858 l 333 856 l 331 856 l 331 99 l 631 108 l 653 300 q 742 246 742 308 m 301 -140 q 301 -117 301 -140 q 331 -65 301 -94 q 409 -35 360 -35 q 488 -65 458 -35 q 518 -160 518 -96 q 463 -306 518 -224 q 349 -414 408 -389 q 324 -405 340 -419 q 307 -381 307 -390 q 394 -250 368 -337 q 326 -215 351 -244 q 301 -140 301 -186 z "},"ļ":{"ha":443,"x_min":43,"x_max":417,"o":"m 354 0 l 44 0 l 44 11 q 106 93 44 88 l 149 96 l 149 871 l 94 876 q 43 963 38 882 l 318 993 l 318 99 l 417 90 q 354 0 425 0 m 138 -167 q 138 -144 138 -167 q 167 -91 138 -121 q 245 -61 196 -61 q 324 -92 294 -61 q 354 -186 354 -122 q 299 -333 354 -250 q 185 -440 244 -415 q 160 -431 176 -446 q 143 -407 143 -417 q 231 -276 204 -364 q 163 -242 188 -271 q 138 -167 138 -212 z "},"Ľ":{"ha":833,"x_min":56,"x_max":742,"o":"m 742 246 l 742 0 l 56 0 l 56 11 q 117 93 56 88 l 157 96 l 157 853 l 60 861 q 61 899 56 869 q 122 951 74 951 l 463 951 l 463 939 q 431 865 463 885 q 401 858 418 858 l 333 856 l 331 856 l 331 99 l 631 108 l 653 300 q 742 246 742 308 m 603 735 q 562 746 594 729 q 529 771 529 763 q 549 917 550 832 q 532 1057 549 1003 q 625 1074 550 1082 q 713 1032 700 1065 q 686 867 715 949 q 603 735 657 786 z "},"ľ":{"ha":563,"x_min":43,"x_max":549,"o":"m 549 1035 q 525 878 551 954 q 450 747 499 803 q 413 756 442 742 q 385 778 385 769 q 406 920 407 838 q 389 1057 406 1003 q 472 1072 407 1079 q 549 1035 536 1065 m 354 0 l 44 0 l 44 11 q 106 93 44 88 l 149 96 l 149 871 l 94 876 q 43 963 38 882 l 318 993 l 318 99 l 417 90 q 354 0 425 0 z "},"Ŀ":{"ha":776,"x_min":56,"x_max":742,"o":"m 742 246 l 742 0 l 56 0 l 56 11 q 117 93 56 88 l 157 96 l 157 853 l 60 861 q 61 899 56 869 q 122 951 74 951 l 463 951 l 463 939 q 431 865 463 885 q 401 858 418 858 l 333 856 l 331 856 l 331 99 l 631 108 l 653 300 q 742 246 742 308 m 703 421 q 686 404 703 421 q 621 388 669 388 q 539 421 572 388 q 506 502 506 454 q 539 584 506 550 q 621 618 572 618 q 703 585 669 618 q 736 503 736 551 q 703 421 736 454 z "},"ŀ":{"ha":443,"x_min":43,"x_max":572,"o":"m 375 576 q 392 593 375 576 q 457 610 408 610 q 539 576 506 610 q 572 494 572 543 q 539 413 572 446 q 457 379 506 379 q 375 413 408 379 q 342 494 342 446 q 375 576 342 542 m 354 0 l 44 0 l 44 11 q 106 93 44 88 l 149 96 l 149 871 l 94 876 q 43 963 38 882 l 318 993 l 318 99 l 417 90 q 354 0 425 0 z "},"Ł":{"ha":776,"x_min":18,"x_max":742,"o":"m 742 246 l 742 0 l 56 0 l 56 11 q 117 93 56 88 l 157 96 l 157 301 l 82 243 l 18 319 l 157 428 l 157 853 l 60 861 q 61 899 56 869 q 122 951 74 951 l 463 951 l 463 939 q 431 865 463 885 q 401 858 418 858 l 333 856 l 331 856 l 331 564 l 468 671 l 531 594 l 331 438 l 331 99 l 631 108 l 653 300 q 742 246 742 308 z "},"ł":{"ha":458,"x_min":-4,"x_max":490,"o":"m 354 0 l 44 0 l 44 11 q 106 93 44 88 l 149 96 l 149 353 l 61 275 l -4 354 l 149 489 l 149 871 l 94 876 q 43 963 38 882 l 318 993 l 318 639 l 425 733 l 490 658 l 318 504 l 318 99 l 417 90 q 354 0 425 0 z "},"Ń":{"ha":964,"x_min":56,"x_max":940,"o":"m 699 951 l 940 951 q 940 940 940 951 q 879 858 940 864 l 839 856 l 839 18 q 732 -1 797 -1 l 261 703 l 261 99 l 361 90 q 299 0 369 0 l 56 0 l 56 11 q 117 93 56 88 l 157 96 l 157 853 l 57 861 q 58 899 53 869 q 119 951 71 951 l 301 951 l 735 306 l 735 853 l 636 861 q 699 951 628 951 m 722 1169 l 435 1017 q 376 1074 392 1039 l 608 1264 q 675 1226 640 1257 q 722 1169 710 1194 z "},"ń":{"ha":901,"x_min":43,"x_max":875,"o":"m 813 0 l 506 0 l 506 11 q 567 93 506 88 l 607 96 l 607 438 q 575 551 607 518 q 486 583 543 583 q 393 568 429 583 q 318 519 357 553 l 318 99 l 417 90 q 354 0 425 0 l 44 0 l 44 11 q 106 93 44 88 l 149 96 l 149 592 l 94 597 q 43 683 38 603 l 294 714 l 304 629 l 308 629 q 408 698 360 674 q 521 722 456 722 q 702 651 628 722 q 776 431 776 579 l 776 99 l 875 90 q 813 0 883 0 m 710 919 l 422 767 q 364 824 379 789 l 596 1014 q 663 976 628 1007 q 710 919 697 944 z "},"Ņ":{"ha":964,"x_min":56,"x_max":940,"o":"m 699 951 l 940 951 q 940 940 940 951 q 879 858 940 864 l 839 856 l 839 18 q 732 -1 797 -1 l 261 703 l 261 99 l 361 90 q 299 0 369 0 l 56 0 l 56 11 q 117 93 56 88 l 157 96 l 157 853 l 57 861 q 58 899 53 869 q 119 951 71 951 l 301 951 l 735 306 l 735 853 l 636 861 q 699 951 628 951 m 397 -140 q 397 -117 397 -140 q 426 -65 397 -94 q 505 -35 456 -35 q 584 -65 554 -35 q 614 -160 614 -96 q 559 -306 614 -224 q 444 -414 504 -389 q 419 -405 436 -419 q 403 -381 403 -390 q 490 -250 464 -337 q 422 -215 447 -244 q 397 -140 397 -186 z "},"ņ":{"ha":901,"x_min":43,"x_max":875,"o":"m 813 0 l 506 0 l 506 11 q 567 93 506 88 l 607 96 l 607 438 q 575 551 607 518 q 486 583 543 583 q 393 568 429 583 q 318 519 357 553 l 318 99 l 417 90 q 354 0 425 0 l 44 0 l 44 11 q 106 93 44 88 l 149 96 l 149 592 l 94 597 q 43 683 38 603 l 294 714 l 304 629 l 308 629 q 408 698 360 674 q 521 722 456 722 q 702 651 628 722 q 776 431 776 579 l 776 99 l 875 90 q 813 0 883 0 m 353 -167 q 353 -144 353 -167 q 382 -91 353 -121 q 460 -61 411 -61 q 540 -92 510 -61 q 569 -186 569 -122 q 515 -333 569 -250 q 400 -440 460 -415 q 375 -431 392 -446 q 358 -407 358 -417 q 446 -276 419 -364 q 378 -242 403 -271 q 353 -167 353 -212 z "},"Ň":{"ha":964,"x_min":56,"x_max":940,"o":"m 699 951 l 940 951 q 940 940 940 951 q 879 858 940 864 l 839 856 l 839 18 q 732 -1 797 -1 l 261 703 l 261 99 l 361 90 q 299 0 369 0 l 56 0 l 56 11 q 117 93 56 88 l 157 96 l 157 853 l 57 861 q 58 899 53 869 q 119 951 71 951 l 301 951 l 735 306 l 735 853 l 636 861 q 699 951 628 951 m 731 1204 l 543 1029 q 438 1029 494 1017 l 244 1204 q 293 1257 263 1239 l 488 1138 l 679 1257 q 731 1204 707 1242 z "},"ň":{"ha":901,"x_min":43,"x_max":875,"o":"m 813 0 l 506 0 l 506 11 q 567 93 506 88 l 607 96 l 607 438 q 575 551 607 518 q 486 583 543 583 q 393 568 429 583 q 318 519 357 553 l 318 99 l 417 90 q 354 0 425 0 l 44 0 l 44 11 q 106 93 44 88 l 149 96 l 149 592 l 94 597 q 43 683 38 603 l 294 714 l 304 629 l 308 629 q 408 698 360 674 q 521 722 456 722 q 702 651 628 722 q 776 431 776 579 l 776 99 l 875 90 q 813 0 883 0 m 718 954 l 531 779 q 425 779 482 767 l 232 954 q 281 1007 250 989 l 475 888 l 667 1007 q 718 954 694 992 z "},"Ŋ":{"ha":968,"x_min":56,"x_max":944,"o":"m 699 951 l 944 951 q 944 940 944 951 q 883 858 944 864 l 843 856 l 843 54 q 772 -171 843 -82 q 579 -260 700 -260 q 472 -226 513 -260 q 432 -144 432 -192 q 550 -33 432 -33 q 619 -143 550 -143 q 699 -95 674 -143 q 725 13 725 -47 l 264 703 l 264 99 l 364 90 q 301 0 372 0 l 56 0 l 56 11 q 117 93 56 88 l 157 96 l 157 853 l 57 861 q 58 899 53 869 q 119 951 71 951 l 300 951 l 735 303 l 735 853 l 636 861 q 699 951 628 951 z "},"ŋ":{"ha":879,"x_min":43,"x_max":776,"o":"m 521 722 q 702 651 628 722 q 776 431 776 579 l 776 104 q 697 -220 776 -115 q 486 -324 617 -325 q 426 -311 456 -324 q 368 -222 368 -285 q 397 -159 368 -181 q 471 -137 426 -137 q 484 -192 471 -169 q 532 -214 497 -214 q 587 -180 567 -214 q 607 -31 607 -146 l 607 438 q 575 551 607 518 q 486 583 543 583 q 393 568 429 583 q 318 519 357 553 l 318 99 l 417 90 q 354 0 425 0 l 44 0 l 44 11 q 106 93 44 88 l 149 96 l 149 592 l 94 597 q 43 683 38 603 l 294 714 l 304 629 l 308 629 q 408 698 360 674 q 521 722 456 722 z "},"Ō":{"ha":957,"x_min":49,"x_max":908,"o":"m 283 1150 l 693 1150 l 693 1053 l 283 1053 l 283 1150 m 478 861 q 229 482 229 861 q 291 192 229 292 q 472 90 353 92 q 663 188 599 92 q 728 474 728 285 q 665 762 728 663 q 478 861 601 861 m 49 470 q 49 587 49 470 q 168 838 49 704 q 490 972 288 972 q 801 844 693 972 q 908 481 908 715 q 788 113 908 247 q 465 -21 668 -21 q 156 108 263 -21 q 49 470 49 236 z "},"ō":{"ha":753,"x_min":49,"x_max":704,"o":"m 488 542 q 468 578 488 542 q 376 615 449 615 q 265 543 304 615 q 225 347 225 471 q 265 153 225 222 q 376 85 304 85 q 488 152 449 85 q 528 344 528 219 q 488 542 528 468 m 49 340 q 49 428 49 340 q 137 619 49 517 q 382 722 225 722 q 622 624 539 722 q 704 351 704 525 q 615 78 704 176 q 367 -21 526 -21 q 128 71 208 -21 q 49 340 49 163 m 176 900 l 586 900 l 586 803 l 176 803 l 176 900 z "},"Ŏ":{"ha":957,"x_min":49,"x_max":908,"o":"m 478 861 q 229 482 229 861 q 291 192 229 292 q 472 90 353 92 q 663 188 599 92 q 728 474 728 285 q 665 762 728 663 q 478 861 601 861 m 49 470 q 49 587 49 470 q 168 838 49 704 q 490 972 288 972 q 801 844 693 972 q 908 481 908 715 q 788 113 908 247 q 465 -21 668 -21 q 156 108 263 -21 q 49 470 49 236 m 492 1144 q 669 1258 621 1144 l 719 1231 q 650 1087 708 1147 q 490 1026 592 1026 q 331 1087 389 1026 q 261 1231 272 1147 l 311 1258 q 374 1181 329 1217 q 492 1144 418 1144 z "},"ŏ":{"ha":753,"x_min":49,"x_max":704,"o":"m 385 894 q 563 1008 514 894 l 613 981 q 543 837 601 897 q 383 776 485 776 q 224 837 282 776 q 154 981 165 897 l 204 1008 q 267 931 222 967 q 385 894 311 894 m 488 542 q 468 578 488 542 q 376 615 449 615 q 265 543 304 615 q 225 347 225 471 q 265 153 225 222 q 376 85 304 85 q 488 152 449 85 q 528 344 528 219 q 488 542 528 468 m 49 340 q 49 428 49 340 q 137 619 49 517 q 382 722 225 722 q 622 624 539 722 q 704 351 704 525 q 615 78 704 176 q 367 -21 526 -21 q 128 71 208 -21 q 49 340 49 163 z "},"Ő":{"ha":957,"x_min":49,"x_max":908,"o":"m 478 861 q 229 482 229 861 q 291 192 229 292 q 472 90 353 92 q 663 188 599 92 q 728 474 728 285 q 665 762 728 663 q 478 861 601 861 m 49 470 q 49 587 49 470 q 168 838 49 704 q 490 972 288 972 q 801 844 693 972 q 908 481 908 715 q 788 113 908 247 q 465 -21 668 -21 q 156 108 263 -21 q 49 470 49 236 m 658 1126 l 371 974 q 313 1031 328 996 l 544 1221 q 611 1183 576 1214 q 658 1126 646 1151 m 907 1126 l 619 974 q 561 1031 576 996 l 793 1221 q 860 1183 825 1214 q 907 1126 894 1151 z "},"ő":{"ha":753,"x_min":49,"x_max":800,"o":"m 488 542 q 468 578 488 542 q 376 615 449 615 q 265 543 304 615 q 225 347 225 471 q 265 153 225 222 q 376 85 304 85 q 488 152 449 85 q 528 344 528 219 q 488 542 528 468 m 49 340 q 49 428 49 340 q 137 619 49 517 q 382 722 225 722 q 622 624 539 722 q 704 351 704 525 q 615 78 704 176 q 367 -21 526 -21 q 128 71 208 -21 q 49 340 49 163 m 551 876 l 264 724 q 206 781 221 746 l 438 971 q 504 933 469 964 q 551 876 539 901 m 800 876 l 513 724 q 454 781 469 746 l 686 971 q 753 933 718 964 q 800 876 788 901 z "},"Œ":{"ha":1283,"x_min":49,"x_max":1242,"o":"m 472 89 q 643 156 585 90 l 643 808 q 478 863 585 863 q 286 763 343 863 q 229 476 229 664 q 276 190 229 289 q 472 89 324 92 m 1242 0 l 607 0 q 454 -21 539 -21 q 158 113 268 -21 q 49 469 49 246 q 163 833 49 693 q 500 972 278 972 q 649 951 583 972 l 1214 951 l 1214 742 q 1125 688 1214 679 l 1113 851 l 817 856 l 817 511 l 1065 540 q 1067 403 1081 474 l 817 417 l 817 99 l 1142 110 l 1153 281 q 1242 226 1242 289 l 1242 0 z "},"œ":{"ha":1171,"x_min":49,"x_max":1128,"o":"m 706 340 l 706 325 q 747 158 706 213 q 888 103 788 103 q 1086 179 989 103 q 1114 115 1114 158 q 1037 25 1114 71 q 844 -21 960 -21 q 608 78 697 -21 q 360 -21 513 -21 q 128 71 208 -21 q 49 340 49 163 q 137 619 49 517 q 392 722 225 722 q 622 615 533 722 q 857 722 715 722 q 1065 639 999 722 q 1128 419 1131 556 l 1128 340 l 706 340 m 488 542 q 468 578 488 542 q 376 615 449 615 q 265 543 304 615 q 225 347 225 471 q 265 153 225 222 q 376 85 304 85 q 488 152 449 85 q 528 344 528 219 q 488 542 528 468 m 850 611 q 713 436 736 611 l 965 436 q 933 571 963 531 q 850 611 904 611 z "},"Ŕ":{"ha":874,"x_min":56,"x_max":875,"o":"m 110 951 l 429 951 q 774 704 774 951 q 712 528 774 600 q 531 431 650 457 q 700 188 610 275 q 875 101 790 101 q 831 14 868 49 q 739 -21 794 -21 q 544 119 646 -21 q 386 417 443 258 l 331 417 l 331 99 l 447 90 q 385 0 456 0 l 56 0 q 56 11 56 0 q 117 93 56 88 l 157 96 l 157 856 l 56 864 q 68 925 54 899 q 110 951 82 951 m 331 864 l 331 504 q 361 503 342 503 q 593 694 593 503 q 548 824 593 779 q 417 867 503 869 l 333 864 l 331 864 m 650 1169 l 363 1017 q 304 1074 319 1039 l 536 1264 q 603 1226 568 1257 q 650 1169 638 1194 z "},"ŕ":{"ha":621,"x_min":42,"x_max":618,"o":"m 310 600 q 405 683 343 644 q 512 722 467 722 q 588 693 557 722 q 618 597 618 664 q 572 489 618 529 q 493 478 549 471 q 485 548 493 524 q 467 577 476 572 q 440 582 457 582 q 315 492 371 582 l 315 99 l 428 90 q 365 0 436 0 l 44 0 q 44 11 44 0 q 106 93 44 88 l 146 96 l 146 593 l 85 600 q 42 683 42 604 l 293 715 l 306 600 l 310 600 m 574 919 l 286 767 q 228 824 243 789 l 460 1014 q 526 976 492 1007 q 574 919 561 944 z "},"Ŗ":{"ha":874,"x_min":56,"x_max":875,"o":"m 110 951 l 429 951 q 774 704 774 951 q 712 528 774 600 q 531 431 650 457 q 700 188 610 275 q 875 101 790 101 q 831 14 868 49 q 739 -21 794 -21 q 544 119 646 -21 q 386 417 443 258 l 331 417 l 331 99 l 447 90 q 385 0 456 0 l 56 0 q 56 11 56 0 q 117 93 56 88 l 157 96 l 157 856 l 56 864 q 68 925 54 899 q 110 951 82 951 m 331 864 l 331 504 q 361 503 342 503 q 593 694 593 503 q 548 824 593 779 q 417 867 503 869 l 333 864 l 331 864 m 374 -140 q 374 -117 374 -140 q 403 -65 374 -94 q 481 -35 432 -35 q 560 -65 531 -35 q 590 -160 590 -96 q 535 -306 590 -224 q 421 -414 481 -389 q 396 -405 413 -419 q 379 -381 379 -390 q 467 -250 440 -337 q 399 -215 424 -244 q 374 -140 374 -186 z "},"ŗ":{"ha":621,"x_min":42,"x_max":618,"o":"m 310 600 q 405 683 343 644 q 512 722 467 722 q 588 693 557 722 q 618 597 618 664 q 572 489 618 529 q 493 478 549 471 q 485 548 493 524 q 467 577 476 572 q 440 582 457 582 q 315 492 371 582 l 315 99 l 428 90 q 365 0 436 0 l 44 0 l 44 11 q 106 93 44 88 l 146 96 l 146 593 l 85 600 q 42 683 42 604 l 293 715 l 306 600 l 310 600 m 160 -167 q 160 -144 160 -167 q 189 -91 160 -121 q 267 -61 218 -61 q 347 -92 317 -61 q 376 -186 376 -122 q 322 -333 376 -250 q 207 -440 267 -415 q 182 -431 199 -446 q 165 -407 165 -417 q 253 -276 226 -364 q 185 -242 210 -271 q 160 -167 160 -212 z "},"Ř":{"ha":874,"x_min":56,"x_max":875,"o":"m 110 951 l 429 951 q 774 704 774 951 q 712 528 774 600 q 531 431 650 457 q 700 188 610 275 q 875 101 790 101 q 831 14 868 49 q 739 -21 794 -21 q 544 119 646 -21 q 386 417 443 258 l 331 417 l 331 99 l 447 90 q 385 0 456 0 l 56 0 q 56 11 56 0 q 117 93 56 88 l 157 96 l 157 856 l 56 864 q 68 925 54 899 q 110 951 82 951 m 331 864 l 331 504 q 361 503 342 503 q 593 694 593 503 q 548 824 593 779 q 417 867 503 869 l 333 864 l 331 864 m 658 1204 l 471 1029 q 365 1029 422 1017 l 172 1204 q 221 1257 190 1239 l 415 1138 l 607 1257 q 658 1204 635 1242 z "},"ř":{"ha":621,"x_min":42,"x_max":618,"o":"m 310 600 q 405 683 343 644 q 512 722 467 722 q 588 693 557 722 q 618 597 618 664 q 572 489 618 529 q 493 478 549 471 q 485 548 493 524 q 467 577 476 572 q 440 582 457 582 q 315 492 371 582 l 315 99 l 428 90 q 365 0 436 0 l 44 0 l 44 11 q 106 93 44 88 l 146 96 l 146 593 l 85 600 q 42 683 42 604 l 293 715 l 306 600 l 310 600 m 582 954 l 394 779 q 289 779 346 767 l 96 954 q 144 1007 114 989 l 339 888 l 531 1007 q 582 954 558 992 z "},"Ś":{"ha":740,"x_min":35,"x_max":700,"o":"m 625 1169 l 338 1017 q 279 1074 294 1039 l 511 1264 q 578 1226 543 1257 q 625 1169 613 1194 m 617 903 q 657 803 657 863 q 621 713 657 743 q 528 690 585 682 q 374 867 528 867 q 263 835 306 867 q 221 750 221 804 q 240 688 221 708 q 269 659 260 668 q 306 635 279 650 q 345 615 333 621 q 394 594 357 610 q 443 572 431 578 q 642 453 585 510 q 700 294 700 396 q 601 67 700 154 q 335 -21 503 -21 q 81 56 165 -21 q 35 156 35 99 q 72 247 35 214 q 182 281 108 281 q 224 132 182 179 q 358 85 267 85 q 503 127 450 85 q 556 233 556 169 q 506 336 556 297 q 372 411 456 375 q 263 459 289 447 q 193 498 236 471 q 131 550 150 525 q 76 703 76 617 q 174 903 76 835 q 408 972 271 972 q 617 903 546 972 z "},"ś":{"ha":603,"x_min":35,"x_max":568,"o":"m 497 671 q 532 592 532 640 q 501 517 532 543 q 421 497 469 490 q 381 584 421 549 q 291 619 340 619 q 215 601 242 619 q 189 551 189 582 q 227 497 189 521 q 335 444 265 472 q 436 401 406 417 q 501 358 467 385 q 568 210 568 308 q 489 46 568 113 q 278 -21 410 -21 q 108 15 181 -21 q 35 124 35 51 q 69 199 35 172 q 151 226 104 226 q 313 85 169 85 q 428 161 428 85 q 367 242 428 211 q 286 278 333 260 q 212 309 239 296 q 153 343 185 322 q 100 386 121 364 q 54 511 54 438 q 135 667 54 611 q 328 722 215 722 q 497 671 440 722 m 546 919 l 258 767 q 200 824 215 789 l 432 1014 q 499 976 464 1007 q 546 919 533 944 z "},"Ŝ":{"ha":740,"x_min":35,"x_max":700,"o":"m 700 294 q 601 67 700 154 q 335 -21 503 -21 q 81 56 165 -21 q 35 156 35 99 q 72 247 35 214 q 182 281 108 281 q 224 132 182 179 q 358 85 267 85 q 503 127 450 85 q 556 233 556 169 q 506 336 556 297 q 372 411 456 375 q 263 459 289 447 q 193 498 236 471 q 131 550 150 525 q 76 703 76 617 q 174 903 76 835 q 404 972 271 972 q 617 903 546 972 q 657 803 657 863 q 621 713 657 743 q 528 690 585 682 q 374 867 528 867 q 263 835 306 867 q 221 750 221 804 q 240 688 221 708 q 269 659 260 668 q 306 635 279 650 q 345 615 333 621 q 394 594 357 610 q 443 572 431 578 q 642 453 585 510 q 700 294 700 396 m 393 1124 l 199 1004 q 150 1057 168 1022 l 343 1232 q 449 1232 400 1244 l 636 1057 q 585 1004 613 1019 l 393 1124 z "},"ŝ":{"ha":603,"x_min":35,"x_max":568,"o":"m 568 210 q 568 161 568 210 q 489 46 568 113 q 278 -21 410 -21 q 108 15 181 -21 q 35 124 35 51 q 69 199 35 172 q 151 226 104 226 q 313 85 169 85 q 428 161 428 85 q 367 242 428 211 q 286 278 333 260 q 212 309 239 296 q 153 343 185 322 q 100 386 121 364 q 54 511 54 438 q 135 667 54 611 q 328 722 215 722 q 497 671 440 722 q 532 592 532 640 q 501 517 532 543 q 421 497 469 490 q 381 584 421 549 q 291 619 340 619 q 215 601 242 619 q 189 551 189 582 q 227 497 189 521 q 335 444 265 472 q 436 401 406 417 q 501 358 467 385 q 568 210 568 308 m 314 874 l 119 754 q 71 807 89 772 l 264 982 q 369 982 321 994 l 557 807 q 506 754 533 769 l 314 874 z "},"Ş":{"ha":740,"x_min":35,"x_max":700,"o":"m 81 56 q 35 156 35 99 q 72 247 35 214 q 182 281 108 281 q 224 132 182 179 q 358 85 267 85 q 503 127 450 85 q 556 233 556 169 q 506 336 556 297 q 372 411 456 375 q 263 459 289 447 q 193 498 236 471 q 131 550 150 525 q 76 703 76 617 q 174 903 76 835 q 404 972 271 972 q 617 903 546 972 q 657 803 657 863 q 621 713 657 743 q 528 690 585 682 q 374 867 528 867 q 263 835 306 867 q 221 750 221 804 q 240 688 221 708 q 269 659 260 668 q 306 635 279 650 q 345 615 333 621 q 394 594 357 610 q 443 572 431 578 q 642 453 585 510 q 700 283 700 396 q 623 87 700 171 q 411 -15 546 3 l 399 -64 q 486 -94 457 -64 q 515 -171 515 -125 q 476 -251 515 -217 q 373 -285 438 -285 q 272 -246 308 -285 q 276 -211 271 -231 q 289 -187 282 -192 q 359 -208 314 -208 q 404 -167 404 -208 q 385 -131 404 -143 q 308 -119 365 -119 l 333 -21 q 81 56 165 -21 z "},"ş":{"ha":603,"x_min":35,"x_max":568,"o":"m 35 124 q 69 199 35 172 q 151 226 104 226 q 313 85 169 85 q 428 161 428 85 q 367 242 428 211 q 286 278 333 260 q 212 309 239 296 q 153 343 185 322 q 100 386 121 364 q 54 511 54 438 q 135 667 54 611 q 328 722 215 722 q 497 671 440 722 q 532 592 532 640 q 501 517 532 543 q 421 497 469 490 q 381 584 421 549 q 291 619 340 619 q 215 601 242 619 q 189 551 189 582 q 227 497 189 521 q 335 444 265 472 q 436 401 406 417 q 501 358 467 385 q 568 219 568 308 q 511 67 568 129 q 356 -14 454 4 l 343 -64 q 431 -94 401 -64 q 460 -171 460 -125 q 421 -251 460 -217 q 317 -285 382 -285 q 217 -246 253 -285 q 221 -211 215 -231 q 233 -187 226 -192 q 303 -208 258 -208 q 349 -167 349 -208 q 329 -131 349 -143 q 253 -119 310 -119 l 278 -21 q 108 15 181 -21 q 35 124 35 51 z "},"Š":{"ha":740,"x_min":35,"x_max":700,"o":"m 700 294 q 601 67 700 154 q 335 -21 503 -21 q 81 56 165 -21 q 35 156 35 99 q 72 247 35 214 q 182 281 108 281 q 224 132 182 179 q 358 85 267 85 q 503 127 450 85 q 556 233 556 169 q 506 336 556 297 q 372 411 456 375 q 263 459 289 447 q 193 498 236 471 q 131 550 150 525 q 76 703 76 617 q 174 903 76 835 q 404 972 271 972 q 617 903 546 972 q 657 803 657 863 q 621 713 657 743 q 528 690 585 682 q 374 867 528 867 q 263 835 306 867 q 221 750 221 804 q 240 688 221 708 q 269 659 260 668 q 306 635 279 650 q 345 615 333 621 q 394 594 357 610 q 443 572 431 578 q 642 453 585 510 q 700 294 700 396 m 633 1204 l 446 1029 q 340 1029 397 1017 l 147 1204 q 196 1257 165 1239 l 390 1138 l 582 1257 q 633 1204 610 1242 z "},"š":{"ha":603,"x_min":35,"x_max":568,"o":"m 568 210 q 568 161 568 210 q 489 46 568 113 q 278 -21 410 -21 q 108 15 181 -21 q 35 124 35 51 q 69 199 35 172 q 151 226 104 226 q 313 85 169 85 q 428 161 428 85 q 367 242 428 211 q 286 278 333 260 q 212 309 239 296 q 153 343 185 322 q 100 386 121 364 q 54 511 54 438 q 135 667 54 611 q 328 722 215 722 q 497 671 440 722 q 532 592 532 640 q 501 517 532 543 q 421 497 469 490 q 381 584 421 549 q 291 619 340 619 q 215 601 242 619 q 189 551 189 582 q 227 497 189 521 q 335 444 265 472 q 436 401 406 417 q 501 358 467 385 q 568 210 568 308 m 554 954 l 367 779 q 261 779 318 767 l 68 954 q 117 1007 86 989 l 311 888 l 503 1007 q 554 954 531 992 z "},"Ţ":{"ha":883,"x_min":28,"x_max":856,"o":"m 28 951 l 856 951 l 856 756 q 838 712 856 726 q 806 696 819 697 q 767 694 792 694 l 753 847 l 528 847 l 528 99 l 642 90 q 579 0 650 0 l 239 0 q 239 11 239 0 q 300 93 239 88 l 354 96 l 354 847 l 131 847 l 117 694 q 78 696 92 694 q 46 712 64 697 q 28 756 28 726 l 28 951 m 357 -140 q 357 -117 357 -140 q 386 -65 357 -94 q 465 -35 415 -35 q 544 -65 514 -35 q 574 -160 574 -96 q 519 -306 574 -224 q 404 -414 464 -389 q 379 -405 396 -419 q 363 -381 363 -390 q 450 -250 424 -337 q 382 -215 407 -244 q 357 -140 357 -186 z "},"ţ":{"ha":569,"x_min":4,"x_max":554,"o":"m 289 604 l 289 219 q 361 107 289 107 q 449 121 414 107 q 525 168 485 135 q 543 150 532 168 q 554 111 554 132 q 478 18 554 57 q 329 -21 401 -21 q 215 -1 257 -21 q 153 58 174 19 q 119 228 119 122 l 119 604 l 4 604 q 72 701 4 701 l 119 701 l 119 879 l 289 897 l 289 701 l 539 701 q 535 654 542 681 q 471 604 522 604 l 289 604 m 193 -167 q 193 -144 193 -167 q 222 -91 193 -121 q 301 -61 251 -61 q 380 -92 350 -61 q 410 -186 410 -122 q 355 -333 410 -250 q 240 -440 300 -415 q 215 -431 232 -446 q 199 -407 199 -417 q 286 -276 260 -364 q 218 -242 243 -271 q 193 -167 193 -212 z "},"Ť":{"ha":883,"x_min":28,"x_max":856,"o":"m 28 951 l 856 951 l 856 756 q 838 712 856 726 q 806 696 819 697 q 767 694 792 694 l 753 847 l 528 847 l 528 99 l 642 90 q 579 0 650 0 l 239 0 q 239 11 239 0 q 300 93 239 88 l 354 96 l 354 847 l 131 847 l 117 694 q 78 696 92 694 q 46 712 64 697 q 28 756 28 726 l 28 951 m 690 1204 l 503 1029 q 397 1029 454 1017 l 204 1204 q 253 1257 222 1239 l 447 1138 l 639 1257 q 690 1204 667 1242 z "},"ť":{"ha":569,"x_min":4,"x_max":554,"o":"m 289 604 l 289 219 q 361 107 289 107 q 449 121 414 107 q 525 168 485 135 q 543 150 532 168 q 554 111 554 132 q 478 18 554 57 q 329 -21 401 -21 q 215 -1 257 -21 q 153 58 174 19 q 119 228 119 122 l 119 604 l 4 604 q 72 701 4 701 l 119 701 l 119 879 l 289 897 l 289 701 l 539 701 q 535 654 542 681 q 471 604 522 604 l 289 604 m 411 747 q 374 756 403 742 q 346 778 346 769 q 367 920 368 838 q 350 1057 367 1003 q 433 1072 368 1079 q 510 1035 497 1065 q 486 878 513 954 q 411 747 460 803 z "},"Ŧ":{"ha":883,"x_min":28,"x_max":856,"o":"m 28 951 l 856 951 l 856 756 q 838 712 856 726 q 806 696 819 697 q 767 694 792 694 l 753 847 l 528 847 l 528 99 l 642 90 q 579 0 650 0 l 239 0 q 239 11 239 0 q 300 93 239 88 l 354 96 l 354 847 l 131 847 l 117 694 q 78 696 92 694 q 46 712 64 697 q 28 756 28 726 l 28 951 m 654 1150 l 654 1053 l 244 1053 l 244 1150 l 654 1150 z "},"ŧ":{"ha":569,"x_min":-1,"x_max":554,"o":"m 289 367 l 289 219 q 361 107 289 107 q 449 121 414 107 q 525 168 485 135 q 543 150 532 168 q 554 111 554 132 q 478 18 554 57 q 329 -21 401 -21 q 215 -1 257 -21 q 153 58 174 19 q 119 228 119 122 l 119 367 l -1 367 l -1 450 l 119 450 l 119 604 l 4 604 q 72 701 4 701 l 119 701 l 119 879 l 289 897 l 289 701 l 539 701 q 535 654 542 681 q 471 604 522 604 l 289 604 l 289 450 l 504 450 l 504 367 l 289 367 z "},"Ũ":{"ha":929,"x_min":15,"x_max":915,"o":"m 665 951 l 915 951 q 915 940 915 951 q 854 858 915 864 l 814 856 l 814 403 q 726 81 814 183 q 465 -21 638 -21 q 204 76 293 -21 q 115 404 115 172 l 115 853 l 15 861 q 17 899 11 869 q 78 951 29 951 l 390 951 l 390 940 q 329 858 390 864 l 289 856 l 289 382 q 332 160 289 229 q 483 90 375 90 q 703 365 703 90 l 701 853 l 603 861 q 665 951 594 951 m 236 1058 q 286 1187 247 1138 q 376 1236 325 1236 q 485 1195 428 1236 q 579 1154 543 1154 q 640 1174 615 1154 q 671 1225 664 1193 l 715 1213 q 561 1031 692 1031 q 444 1067 506 1031 q 358 1103 383 1103 q 313 1086 333 1103 q 283 1042 292 1069 l 236 1058 z "},"ũ":{"ha":835,"x_min":14,"x_max":800,"o":"m 168 808 q 218 937 179 888 q 308 986 257 986 q 417 945 360 986 q 511 904 475 904 q 572 924 547 904 q 603 975 596 943 l 647 963 q 493 781 624 781 q 376 817 438 781 q 290 853 315 853 q 244 836 265 853 q 215 792 224 819 l 168 808 m 444 614 q 506 701 444 701 l 722 701 l 722 93 l 753 93 q 800 6 800 92 l 603 -14 l 574 64 q 370 -21 475 -21 q 190 51 265 -21 q 115 271 115 122 l 115 603 l 14 603 q 14 614 14 603 q 75 701 14 701 l 285 701 l 285 264 q 318 142 285 178 q 421 106 351 106 q 553 153 490 106 l 553 603 l 444 603 l 444 614 z "},"Ū":{"ha":929,"x_min":15,"x_max":915,"o":"m 267 1150 l 676 1150 l 676 1053 l 267 1053 l 267 1150 m 665 951 l 915 951 q 915 940 915 951 q 854 858 915 864 l 814 856 l 814 403 q 726 81 814 183 q 465 -21 638 -21 q 204 76 293 -21 q 115 404 115 172 l 115 853 l 15 861 q 17 899 11 869 q 78 951 29 951 l 390 951 l 390 940 q 329 858 390 864 l 289 856 l 289 382 q 332 160 289 229 q 483 90 375 90 q 703 365 703 90 l 701 853 l 603 861 q 665 951 594 951 z "},"ū":{"ha":835,"x_min":14,"x_max":800,"o":"m 199 900 l 608 900 l 608 803 l 199 803 l 199 900 m 444 614 q 506 701 444 701 l 722 701 l 722 93 l 753 93 q 800 6 800 92 l 603 -14 l 574 64 q 370 -21 475 -21 q 190 51 265 -21 q 115 271 115 122 l 115 603 l 14 603 l 14 614 q 75 701 14 701 l 285 701 l 285 264 q 318 142 285 178 q 421 106 351 106 q 553 153 490 106 l 553 603 l 444 603 l 444 614 z "},"Ŭ":{"ha":929,"x_min":15,"x_max":915,"o":"m 665 951 l 915 951 q 915 940 915 951 q 854 858 915 864 l 814 856 l 814 403 q 726 81 814 183 q 465 -21 638 -21 q 204 76 293 -21 q 115 404 115 172 l 115 853 l 15 861 q 17 899 11 869 q 78 951 29 951 l 390 951 l 390 940 q 329 858 390 864 l 289 856 l 289 382 q 332 160 289 229 q 483 90 375 90 q 703 365 703 90 l 701 853 l 603 861 q 665 951 594 951 m 475 1144 q 653 1258 604 1144 l 703 1231 q 633 1087 692 1147 q 474 1026 575 1026 q 314 1087 372 1026 q 244 1231 256 1147 l 294 1258 q 357 1181 313 1217 q 475 1144 401 1144 z "},"ŭ":{"ha":835,"x_min":14,"x_max":800,"o":"m 407 894 q 585 1008 536 894 l 635 981 q 565 837 624 897 q 406 776 507 776 q 246 837 304 776 q 176 981 188 897 l 226 1008 q 289 931 244 967 q 407 894 333 894 m 444 614 q 506 701 444 701 l 722 701 l 722 93 l 753 93 q 800 6 800 92 l 603 -14 l 574 64 q 370 -21 475 -21 q 190 51 265 -21 q 115 271 115 122 l 115 603 l 14 603 l 14 614 q 75 701 14 701 l 285 701 l 285 264 q 318 142 285 178 q 421 106 351 106 q 553 153 490 106 l 553 603 l 444 603 l 444 614 z "},"Ů":{"ha":929,"x_min":15,"x_max":915,"o":"m 536 1135 q 536 1149 536 1135 q 520 1178 536 1163 q 477 1194 504 1194 q 434 1179 450 1194 q 418 1136 418 1164 q 434 1092 418 1108 q 476 1076 450 1076 q 519 1092 503 1076 q 536 1135 536 1108 m 344 1135 q 344 1163 344 1135 q 381 1227 344 1192 q 478 1263 418 1263 q 574 1228 539 1263 q 608 1138 610 1194 q 570 1045 607 1081 q 474 1010 533 1010 q 380 1044 415 1010 q 344 1135 344 1078 m 665 951 l 915 951 l 915 940 q 854 858 915 864 l 814 856 l 814 403 q 726 81 814 183 q 465 -21 638 -21 q 204 76 293 -21 q 115 404 115 172 l 115 853 l 15 861 q 17 899 11 869 q 78 951 29 951 l 390 951 l 390 940 q 329 858 390 864 l 289 856 l 289 382 q 332 160 289 229 q 483 90 375 90 q 703 365 703 90 l 701 853 l 603 861 q 665 951 594 951 z "},"ů":{"ha":835,"x_min":14,"x_max":800,"o":"m 452 928 q 444 936 452 928 q 408 944 436 944 q 365 929 381 944 q 350 886 350 914 q 366 842 350 858 q 409 826 382 826 q 452 842 436 826 q 468 885 468 858 q 452 928 468 913 m 276 885 q 276 913 276 885 q 313 977 276 942 q 410 1013 350 1013 q 506 978 471 1013 q 540 888 542 944 q 502 795 539 831 q 406 760 465 760 q 312 794 347 760 q 276 885 276 828 m 444 614 q 506 701 444 701 l 722 701 l 722 93 l 753 93 q 800 6 800 92 l 603 -14 l 574 64 q 370 -21 475 -21 q 190 51 265 -21 q 115 271 115 122 l 115 603 l 14 603 l 14 614 q 75 701 14 701 l 285 701 l 285 264 q 318 142 285 178 q 421 106 351 106 q 553 153 490 106 l 553 603 l 444 603 l 444 614 z "},"Ű":{"ha":929,"x_min":15,"x_max":915,"o":"m 665 951 l 915 951 q 915 940 915 951 q 854 858 915 864 l 814 856 l 814 403 q 726 81 814 183 q 465 -21 638 -21 q 204 76 293 -21 q 115 404 115 172 l 115 853 l 15 861 q 17 899 11 869 q 78 951 29 951 l 390 951 l 390 940 q 329 858 390 864 l 289 856 l 289 382 q 332 160 289 229 q 483 90 375 90 q 703 365 703 90 l 701 853 l 603 861 q 665 951 594 951 m 642 1126 l 354 974 q 296 1031 311 996 l 528 1221 q 594 1183 560 1214 q 642 1126 629 1151 m 890 1126 l 603 974 q 544 1031 560 996 l 776 1221 q 843 1183 808 1214 q 890 1126 878 1151 z "},"ű":{"ha":835,"x_min":14,"x_max":822,"o":"m 444 614 q 506 701 444 701 l 722 701 l 722 93 l 753 93 q 800 6 800 92 l 603 -14 l 574 64 q 370 -21 475 -21 q 190 51 265 -21 q 115 271 115 122 l 115 603 l 14 603 l 14 614 q 75 701 14 701 l 285 701 l 285 264 q 318 142 285 178 q 421 106 351 106 q 553 153 490 106 l 553 603 l 444 603 l 444 614 m 574 876 l 286 724 q 228 781 243 746 l 460 971 q 526 933 492 964 q 574 876 561 901 m 822 876 l 535 724 q 476 781 492 746 l 708 971 q 775 933 740 964 q 822 876 810 901 z "},"Ų":{"ha":929,"x_min":15,"x_max":915,"o":"m 665 951 l 915 951 q 915 940 915 951 q 854 858 915 864 l 814 856 l 814 403 q 574 -8 814 50 q 490 -132 490 -50 q 506 -183 490 -165 q 553 -200 522 -200 q 619 -171 583 -200 q 628 -195 625 -175 q 629 -228 632 -215 q 525 -274 597 -274 q 418 -242 453 -274 q 383 -164 383 -210 q 463 -21 383 -78 l 458 -21 q 204 76 293 -21 q 115 404 115 172 l 115 853 l 15 861 q 17 899 11 869 q 78 951 29 951 l 390 951 l 390 940 q 329 858 390 864 l 289 856 l 289 382 q 332 160 289 229 q 483 90 375 90 q 703 365 703 90 l 701 853 l 603 861 q 665 951 594 951 z "},"ų":{"ha":835,"x_min":14,"x_max":826,"o":"m 444 614 q 506 701 444 701 l 722 701 l 722 93 l 753 93 q 800 6 800 92 l 772 3 l 774 1 q 688 -124 688 -40 q 703 -174 688 -157 q 750 -192 719 -192 q 817 -162 781 -192 q 826 -187 822 -167 q 826 -219 829 -207 q 722 -265 794 -265 q 615 -233 650 -265 q 581 -156 581 -201 q 665 -8 581 -68 l 603 -14 l 574 64 q 370 -21 475 -21 q 190 51 265 -21 q 115 271 115 122 l 115 603 l 14 603 l 14 614 q 75 701 14 701 l 285 701 l 285 264 q 318 142 285 178 q 421 106 351 106 q 553 153 490 106 l 553 603 l 444 603 q 444 614 444 603 z "},"Ŵ":{"ha":1349,"x_min":0,"x_max":1349,"o":"m 1110 951 l 1347 951 q 1348 938 1347 950 q 1347 915 1349 925 q 1340 892 1344 904 q 1292 858 1331 861 l 1267 856 l 1000 0 l 853 0 l 674 556 l 488 0 l 335 0 l 82 853 l 1 861 q 1 892 0 876 q 17 930 1 908 q 63 951 32 951 l 374 951 q 361 886 369 899 q 313 858 342 861 l 274 856 l 440 201 l 651 856 l 767 856 l 956 201 l 1144 853 l 1047 861 q 1110 951 1039 951 m 719 1124 l 525 1004 q 476 1057 494 1022 l 669 1232 q 775 1232 726 1244 l 963 1057 q 911 1004 939 1019 l 719 1124 z "},"ŵ":{"ha":1015,"x_min":0,"x_max":1015,"o":"m 815 701 l 1015 701 q 965 608 1015 613 l 944 606 l 708 0 l 615 0 l 492 368 l 353 0 l 260 0 l 64 603 l 0 611 q 13 674 -1 647 q 60 701 26 701 l 335 701 q 322 638 332 650 q 274 608 301 611 l 250 606 l 349 264 l 476 633 l 589 635 l 697 282 l 808 604 l 753 611 q 815 701 744 701 m 532 874 l 338 754 q 289 807 307 772 l 482 982 q 588 982 539 994 l 775 807 q 724 754 751 769 l 532 874 z "},"Ŷ":{"ha":882,"x_min":1,"x_max":881,"o":"m 617 951 l 881 951 q 881 940 881 951 q 819 858 881 864 l 785 856 l 528 400 l 528 99 l 529 99 l 628 90 q 565 0 636 0 l 253 0 l 253 11 q 314 93 253 88 l 354 96 l 354 394 l 90 853 l 1 861 q 3 899 -3 869 q 64 951 15 951 l 400 951 q 388 885 397 897 q 339 858 369 861 l 294 856 l 292 856 l 479 518 l 663 853 l 554 861 q 556 899 550 869 q 617 951 568 951 m 464 1124 l 269 1004 q 221 1057 239 1022 l 414 1232 q 519 1232 471 1244 l 707 1057 q 656 1004 683 1019 l 464 1124 z "},"ŷ":{"ha":744,"x_min":1,"x_max":744,"o":"m 546 701 l 744 701 q 744 690 744 701 q 683 608 744 618 l 678 607 l 447 47 l 449 47 q 424 -11 442 32 q 398 -72 406 -54 q 372 -126 390 -89 q 343 -181 354 -164 q 314 -226 332 -199 q 280 -267 296 -254 q 243 -296 264 -281 q 149 -324 206 -324 q 57 -294 92 -324 q 22 -223 22 -265 q 47 -155 22 -181 q 103 -129 72 -129 q 140 -132 133 -129 q 172 -206 125 -206 q 258 -119 213 -206 q 331 58 303 -32 l 85 603 l 78 603 l 1 611 q 3 649 -3 619 q 64 701 15 701 l 351 701 q 339 638 347 650 q 290 608 318 614 l 275 606 l 415 258 l 549 604 l 483 611 q 546 701 475 701 m 414 874 l 219 754 q 171 807 189 772 l 364 982 q 469 982 421 994 l 657 807 q 606 754 633 769 l 414 874 z "},"Ÿ":{"ha":882,"x_min":1,"x_max":881,"o":"m 617 951 l 881 951 q 881 940 881 951 q 819 858 881 864 l 785 856 l 528 400 l 528 99 l 529 99 l 628 90 q 565 0 636 0 l 253 0 l 253 11 q 314 93 253 88 l 354 96 l 354 394 l 90 853 l 1 861 q 3 899 -3 869 q 64 951 15 951 l 400 951 q 388 885 397 897 q 339 858 369 861 l 294 856 l 292 856 l 479 518 l 663 853 l 554 861 q 556 899 550 869 q 617 951 568 951 m 394 1076 q 380 1061 394 1076 q 325 1047 365 1047 q 256 1076 285 1047 q 226 1144 226 1104 q 256 1213 226 1185 q 325 1242 285 1242 q 394 1213 365 1242 q 422 1144 422 1185 q 394 1076 422 1104 m 688 1144 q 688 1124 688 1144 q 659 1076 688 1104 q 590 1047 631 1047 q 520 1076 549 1047 q 492 1144 492 1104 q 521 1213 492 1183 q 590 1242 550 1242 q 659 1213 631 1242 q 688 1144 688 1185 z "},"Ź":{"ha":819,"x_min":19,"x_max":774,"o":"m 772 0 l 46 0 q 19 74 24 49 l 546 847 l 210 836 l 197 721 q 90 644 185 625 l 90 951 l 736 951 q 774 883 774 925 l 253 100 l 651 121 l 668 238 q 701 304 675 289 q 772 311 728 319 l 772 0 m 661 1169 l 374 1017 q 315 1074 331 1039 l 547 1264 q 614 1226 579 1257 q 661 1169 649 1194 z "},"ź":{"ha":621,"x_min":21,"x_max":600,"o":"m 65 701 l 561 701 q 583 664 572 692 q 594 619 594 636 l 233 93 l 485 101 l 497 174 q 533 224 501 211 q 600 228 564 236 l 600 0 l 44 0 q 21 76 21 44 l 390 613 l 178 604 l 168 531 q 133 481 164 493 q 65 476 101 468 l 65 701 m 560 919 l 272 767 q 214 824 229 789 l 446 1014 q 513 976 478 1007 q 560 919 547 944 z "},"Ż":{"ha":819,"x_min":19,"x_max":774,"o":"m 772 0 l 46 0 q 19 74 24 49 l 546 847 l 210 836 l 197 721 q 90 644 185 625 l 90 951 l 736 951 q 774 883 774 925 l 253 100 l 651 121 l 668 238 q 701 304 675 289 q 772 311 728 319 l 772 0 m 510 1065 q 495 1051 510 1065 q 438 1036 481 1036 q 365 1066 394 1036 q 335 1139 335 1096 q 365 1212 335 1182 q 438 1242 394 1242 q 510 1212 481 1242 q 540 1138 540 1182 q 510 1065 540 1094 z "},"ż":{"ha":621,"x_min":21,"x_max":600,"o":"m 439 888 q 439 866 439 888 q 410 815 439 844 q 337 786 381 786 q 263 816 293 786 q 233 889 233 846 q 263 962 233 932 q 336 992 293 992 q 409 962 379 992 q 439 888 439 932 m 65 701 l 561 701 q 583 664 572 692 q 594 619 594 636 l 233 93 l 485 101 l 497 174 q 533 224 501 211 q 600 228 564 236 l 600 0 l 44 0 q 21 76 21 44 l 390 613 l 178 604 l 168 531 q 133 481 164 493 q 65 476 101 468 l 65 701 z "},"Ž":{"ha":819,"x_min":19,"x_max":774,"o":"m 772 0 l 46 0 q 19 74 24 49 l 546 847 l 210 836 l 197 721 q 90 644 185 625 l 90 951 l 736 951 q 774 883 774 925 l 253 100 l 651 121 l 668 238 q 701 304 675 289 q 772 311 728 319 l 772 0 m 669 1204 l 482 1029 q 376 1029 433 1017 l 183 1204 q 232 1257 201 1239 l 426 1138 l 618 1257 q 669 1204 646 1242 z "},"ž":{"ha":621,"x_min":21,"x_max":600,"o":"m 600 0 l 44 0 q 21 76 21 44 l 390 613 l 178 604 l 168 531 q 133 481 164 493 q 65 476 101 468 l 65 701 l 561 701 q 583 664 572 692 q 594 619 594 636 l 233 93 l 485 101 l 497 174 q 533 224 501 211 q 600 228 564 236 l 600 0 m 568 954 l 381 779 q 275 779 332 767 l 82 954 q 131 1007 100 989 l 325 888 l 517 1007 q 568 954 544 992 z "},"ſ":{"ha":547,"x_min":42,"x_max":567,"o":"m 113 701 l 143 701 q 221 928 149 846 q 411 1014 293 1011 q 567 919 567 1017 q 536 850 567 872 q 457 828 506 828 q 389 917 457 917 q 313 744 313 917 l 313 99 l 314 99 l 454 90 q 453 53 458 82 q 392 0 440 0 l 42 0 l 42 11 q 103 93 42 88 l 143 96 l 143 604 l 44 604 q 113 701 44 701 z "},"ƒ":{"ha":681,"x_min":51,"x_max":635,"o":"m 635 933 q 525 833 635 833 q 506 906 525 881 q 457 931 486 931 q 346 754 371 931 l 338 701 l 482 701 l 475 604 l 324 604 l 221 -104 l 69 -100 l 169 604 l 51 604 l 58 701 l 183 701 l 188 735 q 288 955 208 886 q 478 1026 367 1024 q 590 1003 544 1028 q 635 933 635 979 z "},"Ș":{"ha":740,"x_min":35,"x_max":700,"o":"m 700 294 q 601 67 700 154 q 335 -21 503 -21 q 81 56 165 -21 q 35 156 35 99 q 72 247 35 214 q 182 281 108 281 q 224 132 182 179 q 358 85 267 85 q 503 127 450 85 q 556 233 556 169 q 506 336 556 297 q 372 411 456 375 q 263 459 289 447 q 193 498 236 471 q 131 550 150 525 q 76 703 76 617 q 174 903 76 835 q 404 972 271 972 q 617 903 546 972 q 657 803 657 863 q 621 713 657 743 q 528 690 585 682 q 374 867 528 867 q 263 835 306 867 q 221 750 221 804 q 240 688 221 708 q 269 659 260 668 q 306 635 279 650 q 345 615 333 621 q 394 594 357 610 q 443 572 431 578 q 642 453 585 510 q 700 294 700 396 m 282 -140 q 282 -117 282 -140 q 311 -65 282 -94 q 390 -35 340 -35 q 469 -65 439 -35 q 499 -160 499 -96 q 444 -306 499 -224 q 329 -414 389 -389 q 304 -405 321 -419 q 288 -381 288 -390 q 375 -250 349 -337 q 307 -215 332 -244 q 282 -140 282 -186 z "},"ș":{"ha":603,"x_min":35,"x_max":568,"o":"m 568 210 q 568 161 568 210 q 489 46 568 113 q 278 -21 410 -21 q 108 15 181 -21 q 35 124 35 51 q 69 199 35 172 q 151 226 104 226 q 313 85 169 85 q 428 161 428 85 q 367 242 428 211 q 286 278 333 260 q 212 309 239 296 q 153 343 185 322 q 100 386 121 364 q 54 511 54 438 q 135 667 54 611 q 328 722 215 722 q 497 671 440 722 q 532 592 532 640 q 501 517 532 543 q 421 497 469 490 q 381 584 421 549 q 291 619 340 619 q 215 601 242 619 q 189 551 189 582 q 227 497 189 521 q 335 444 265 472 q 436 401 406 417 q 501 358 467 385 q 568 210 568 308 m 218 -167 q 218 -144 218 -167 q 247 -91 218 -121 q 326 -61 276 -61 q 405 -92 375 -61 q 435 -186 435 -122 q 380 -333 435 -250 q 265 -440 325 -415 q 240 -431 257 -446 q 224 -407 224 -417 q 311 -276 285 -364 q 243 -242 268 -271 q 218 -167 218 -212 z "},"Ț":{"ha":883,"x_min":28,"x_max":856,"o":"m 28 951 l 856 951 l 856 756 q 838 712 856 726 q 806 696 819 697 q 767 694 792 694 l 753 847 l 528 847 l 528 99 l 642 90 q 579 0 650 0 l 239 0 q 239 11 239 0 q 300 93 239 88 l 354 96 l 354 847 l 131 847 l 117 694 q 78 696 92 694 q 46 712 64 697 q 28 756 28 726 l 28 951 m 357 -140 q 357 -117 357 -140 q 386 -65 357 -94 q 465 -35 415 -35 q 544 -65 514 -35 q 574 -160 574 -96 q 519 -306 574 -224 q 404 -414 464 -389 q 379 -405 396 -419 q 363 -381 363 -390 q 450 -250 424 -337 q 382 -215 407 -244 q 357 -140 357 -186 z "},"ț":{"ha":569,"x_min":4,"x_max":554,"o":"m 289 604 l 289 219 q 361 107 289 107 q 449 121 414 107 q 525 168 485 135 q 543 150 532 168 q 554 111 554 132 q 478 18 554 57 q 329 -21 401 -21 q 215 -1 257 -21 q 153 58 174 19 q 119 228 119 122 l 119 604 l 4 604 q 72 701 4 701 l 119 701 l 119 879 l 289 897 l 289 701 l 539 701 q 535 654 542 681 q 471 604 522 604 l 289 604 m 193 -167 q 193 -144 193 -167 q 222 -91 193 -121 q 301 -61 251 -61 q 380 -92 350 -61 q 410 -186 410 -122 q 355 -333 410 -250 q 240 -440 300 -415 q 215 -431 232 -446 q 199 -407 199 -417 q 286 -276 260 -364 q 218 -242 243 -271 q 193 -167 193 -212 z "},"ˆ":{"ha":833,"x_min":131,"x_max":617,"o":"m 429 982 l 617 807 q 565 754 593 769 l 374 874 l 179 754 q 131 807 149 772 l 324 982 q 429 982 381 994 z "},"ˇ":{"ha":833,"x_min":131,"x_max":617,"o":"m 374 888 l 565 1007 q 617 954 593 992 l 429 779 q 324 779 381 767 l 131 954 q 179 1007 149 989 l 374 888 z "},"ˉ":{"ha":833,"x_min":153,"x_max":563,"o":"m 153 900 l 563 900 l 563 803 l 153 803 l 153 900 z "},"˘":{"ha":833,"x_min":168,"x_max":626,"o":"m 399 894 q 576 1008 528 894 l 626 981 q 557 837 615 897 q 397 776 499 776 q 238 837 296 776 q 168 981 179 897 l 218 1008 q 281 931 236 967 q 399 894 325 894 z "},"˙":{"ha":444,"x_min":121,"x_max":326,"o":"m 297 815 q 282 801 297 815 q 224 786 267 786 q 151 816 181 786 q 121 889 121 846 q 151 962 121 932 q 224 992 181 992 q 297 962 267 992 q 326 888 326 932 q 297 815 326 844 z "},"˚":{"ha":444,"x_min":94,"x_max":358,"o":"m 286 885 q 286 899 286 885 q 270 928 286 913 q 227 944 254 944 q 184 929 200 944 q 168 886 168 914 q 184 842 168 858 q 226 826 200 826 q 269 842 253 826 q 286 885 286 858 m 94 885 q 94 913 94 885 q 131 977 94 942 q 228 1013 168 1013 q 324 978 289 1013 q 358 888 360 944 q 320 795 357 831 q 224 760 283 760 q 130 794 165 760 q 94 885 94 828 z "},"˛":{"ha":514,"x_min":133,"x_max":379,"o":"m 240 -87 q 256 -138 240 -121 q 303 -156 272 -156 q 369 -126 333 -156 q 378 -151 375 -131 q 379 -183 382 -171 q 275 -229 347 -229 q 168 -197 203 -229 q 133 -119 133 -165 q 185 1 133 -50 q 307 71 238 51 l 326 38 q 240 -87 240 -4 z "},"˜":{"ha":694,"x_min":113,"x_max":592,"o":"m 113 808 q 163 937 124 888 q 253 986 201 986 q 362 945 304 986 q 456 904 419 904 q 516 924 492 904 q 547 975 540 943 l 592 963 q 438 781 568 781 q 321 817 382 781 q 235 853 260 853 q 189 836 210 853 q 160 792 168 819 l 113 808 z "},"˝":{"ha":739,"x_min":143,"x_max":738,"o":"m 489 876 l 201 724 q 143 781 158 746 l 375 971 q 442 933 407 964 q 489 876 476 901 m 738 876 l 450 724 q 392 781 407 746 l 624 971 q 690 933 656 964 q 738 876 725 901 z "},"̦":{"ha":0,"x_min":-356,"x_max":-139,"o":"m -356 -167 q -356 -144 -356 -167 q -326 -91 -356 -121 q -248 -61 -297 -61 q -169 -92 -199 -61 q -139 -186 -139 -122 q -194 -333 -139 -250 q -308 -440 -249 -415 q -333 -431 -317 -446 q -350 -407 -350 -417 q -262 -276 -289 -364 q -331 -242 -306 -271 q -356 -167 -356 -212 z "},"π":{"ha":944,"x_min":14,"x_max":931,"o":"m 214 0 l 239 568 l 208 568 q 133 553 158 568 q 86 506 107 538 l 14 547 q 247 701 89 701 l 746 701 q 817 714 792 701 q 869 756 843 726 l 931 703 q 871 622 919 669 q 753 567 822 574 q 750 101 750 404 l 856 89 q 823 12 856 44 q 719 -21 790 -21 q 622 17 649 -21 q 594 148 594 54 q 600 567 594 242 l 401 567 l 378 0 l 214 0 z "},"ँ":{"ha":0,"x_min":-532,"x_max":57,"o":"m -315 1326 q -293 1345 -315 1326 q -253 1364 -271 1364 q -199 1320 -235 1364 q -164 1261 -164 1276 q -207 1206 -164 1246 q -267 1167 -250 1167 q -321 1210 -283 1167 q -358 1271 -358 1254 q -315 1326 -358 1288 m -237 951 q -532 1114 -394 951 q -482 1176 -512 1154 q -293 1094 -385 1094 q -46 1235 -149 1094 q 17 1181 -12 1215 q 57 1113 46 1146 q -63 1005 18 1058 q -237 951 -144 951 z "},"ं":{"ha":0,"x_min":-307,"x_max":-114,"o":"m -114 1042 q -114 1033 -114 1042 q -156 989 -114 1025 q -217 953 -199 953 q -271 994 -235 953 q -307 1054 -307 1036 q -265 1109 -307 1072 q -205 1146 -222 1146 q -151 1102 -187 1146 q -114 1042 -114 1058 z "},"ः":{"ha":424,"x_min":85,"x_max":275,"o":"m 275 552 q 275 544 275 552 q 233 500 275 536 q 174 464 192 464 q 120 506 156 464 q 85 565 85 547 q 126 618 85 582 q 185 654 168 654 q 238 611 201 654 q 275 552 275 568 m 275 141 q 275 133 275 141 q 233 89 275 125 q 174 53 192 53 q 121 94 157 53 q 85 153 85 136 q 126 207 85 171 q 185 243 168 243 q 238 200 201 243 q 275 141 275 157 z "},"अ":{"ha":1069,"x_min":6,"x_max":1136,"o":"m 1136 722 l 947 722 l 947 -28 q 836 -8 892 -28 q 781 36 781 11 l 781 310 q 679 299 736 299 l 656 299 l 656 286 q 601 132 656 194 q 439 69 546 69 q 294 103 364 69 q 169 192 224 136 q 6 450 60 303 q 90 497 36 485 q 226 292 156 361 q 392 222 297 222 q 481 249 451 222 q 510 315 510 275 q 486 384 510 356 q 414 413 463 413 q 329 394 365 413 q 281 458 307 411 q 249 532 254 504 q 413 608 360 558 q 467 701 467 658 q 406 742 467 742 q 213 651 311 742 q 161 722 189 672 q 128 800 133 771 q 342 882 233 882 q 518 826 450 882 q 586 664 586 769 q 492 500 586 558 q 615 417 572 474 q 781 463 708 429 l 781 722 l 682 722 q 628 868 628 789 l 1082 868 q 1136 722 1136 801 z "},"आ":{"ha":1461,"x_min":6,"x_max":1529,"o":"m 1529 722 l 1339 722 l 1339 -28 q 1228 -8 1283 -28 q 1172 36 1172 11 l 1172 722 l 947 722 l 947 -28 q 836 -8 892 -28 q 781 36 781 11 l 781 310 q 679 299 736 299 l 656 299 l 656 286 q 601 132 656 194 q 439 69 546 69 q 294 103 364 69 q 169 192 224 136 q 6 450 60 303 q 90 497 36 485 q 226 292 156 361 q 392 222 297 222 q 481 249 451 222 q 510 315 510 275 q 486 384 510 356 q 414 413 463 413 q 329 394 365 413 q 281 458 307 411 q 249 532 254 504 q 413 608 360 558 q 467 701 467 658 q 406 742 467 742 q 213 651 311 742 q 161 722 189 672 q 128 800 133 771 q 342 882 233 882 q 518 826 450 882 q 586 664 586 769 q 492 500 586 558 q 615 417 572 474 q 781 463 708 429 l 781 722 l 682 722 q 628 868 628 789 l 1475 868 q 1529 722 1529 801 z "},"इ":{"ha":703,"x_min":-68,"x_max":772,"o":"m 581 722 l 581 588 q 555 531 581 563 q 510 499 529 499 q 361 503 438 503 q 238 485 285 503 q 190 416 190 467 q 217 365 190 365 q 328 394 228 365 q 471 424 428 424 q 606 344 553 424 q 660 185 660 264 q 574 37 660 107 q 336 -33 488 -33 l 333 -33 q 457 -185 433 -143 q 403 -233 450 -200 q 332 -274 356 -265 q 303 -200 328 -264 q 214 -14 253 -75 q 102 41 147 7 q 57 115 57 75 q 88 185 57 156 q 149 214 118 214 q 258 108 208 214 q 340 97 292 97 q 492 147 428 97 q 556 239 556 196 q 518 282 556 282 q 405 252 497 282 q 282 222 313 222 q 142 292 218 222 q 67 453 67 361 q 121 593 67 546 q 268 640 175 640 l 414 640 l 414 722 l -14 722 q -68 868 -68 789 l 718 868 q 772 722 772 801 l 581 722 z "},"ई":{"ha":703,"x_min":-68,"x_max":772,"o":"m 581 722 l 581 588 q 555 531 581 563 q 510 499 529 499 q 361 503 438 503 q 238 485 285 503 q 190 416 190 467 q 217 365 190 365 q 328 394 228 365 q 471 424 428 424 q 606 344 553 424 q 660 185 660 264 q 574 37 660 107 q 336 -33 488 -33 l 333 -33 q 457 -185 433 -143 q 403 -233 450 -200 q 332 -274 356 -265 q 303 -200 328 -264 q 214 -14 253 -75 q 102 41 147 7 q 57 115 57 75 q 88 185 57 156 q 149 214 118 214 q 258 108 208 214 q 340 97 292 97 q 492 147 428 97 q 556 239 556 196 q 518 282 556 282 q 405 252 497 282 q 282 222 313 222 q 142 292 218 222 q 67 453 67 361 q 121 593 67 546 q 268 640 175 640 l 414 640 l 414 722 l -14 722 q -68 868 -68 789 l 449 868 q 347 1058 347 964 q 411 1215 347 1151 q 562 1279 475 1279 q 696 1238 649 1279 q 757 1139 743 1197 l 714 1108 q 610 1157 668 1157 q 522 1122 553 1157 q 492 1015 492 1086 q 553 868 492 943 l 718 868 q 772 722 772 801 l 581 722 z "},"उ":{"ha":776,"x_min":-68,"x_max":844,"o":"m 844 722 l 615 722 q 660 611 660 674 q 556 440 660 515 q 684 364 635 421 q 733 210 733 307 q 664 44 733 114 q 478 -26 594 -26 q 315 15 392 -26 q 183 128 239 57 q 18 424 86 250 q 54 449 25 433 q 104 469 83 464 q 439 133 261 133 q 537 167 500 133 q 574 249 574 200 q 540 325 574 297 q 451 353 506 353 q 389 346 415 353 q 358 339 363 339 q 323 396 344 353 q 297 471 301 439 q 400 507 347 479 q 513 639 513 564 q 478 722 513 688 l -14 722 q -68 868 -68 789 l 790 868 q 844 722 844 801 z "},"ऊ":{"ha":1142,"x_min":-68,"x_max":1213,"o":"m 1213 722 l 615 722 q 660 611 660 674 q 556 440 660 515 q 644 400 610 426 q 864 510 743 510 q 1035 439 964 510 q 1106 270 1106 368 q 1056 94 1106 172 q 940 -22 1007 17 q 869 35 903 -1 q 824 103 835 72 q 926 192 874 128 q 979 315 979 257 q 959 368 979 349 q 906 388 939 388 q 729 268 822 388 q 733 218 733 243 q 664 44 733 114 q 478 -26 594 -26 q 315 15 392 -26 q 183 128 239 57 q 18 424 86 250 q 54 449 25 433 q 104 469 83 464 q 439 133 261 133 q 537 167 500 133 q 574 249 574 200 q 540 325 574 297 q 451 353 506 353 q 389 346 415 353 q 358 339 363 339 q 323 396 344 353 q 297 471 301 439 q 400 507 347 479 q 513 639 513 564 q 478 722 513 688 l -14 722 q -68 868 -68 789 l 1158 868 q 1213 722 1213 801 z "},"ऋ":{"ha":989,"x_min":-68,"x_max":1058,"o":"m 583 722 l 583 471 q 726 486 681 471 q 713 546 713 514 q 752 609 713 578 q 824 640 792 640 q 878 610 856 640 q 900 541 900 579 q 857 463 900 503 q 941 358 913 406 q 969 249 969 310 q 822 28 969 124 q 766 71 794 42 q 726 128 738 100 q 850 278 850 197 q 785 413 850 342 q 583 346 700 367 l 583 -28 q 472 -8 528 -28 q 417 36 417 11 l 417 256 l 167 93 q 88 217 122 135 l 408 425 q 260 485 331 485 q 86 418 190 485 q 8 563 29 493 q 201 625 96 625 q 417 528 306 625 l 417 722 l -14 722 q -68 868 -68 789 l 1004 868 q 1058 722 1058 801 l 583 722 z "},"ऌ":{"ha":1013,"x_min":-68,"x_max":1082,"o":"m 790 722 l 790 603 q 883 526 849 576 q 917 410 917 476 q 902 342 917 378 q 874 285 888 306 q 844 242 861 265 q 810 194 828 218 q 781 156 792 171 q 753 93 753 117 q 786 69 753 69 q 921 165 842 69 q 980 104 949 142 q 1019 43 1011 67 q 937 -22 992 4 q 826 -49 882 -49 q 687 6 746 -49 q 628 126 628 61 q 701 289 628 190 q 782 406 775 388 q 789 446 789 425 q 769 485 789 467 q 713 503 749 503 q 538 260 569 503 q 463 284 513 261 q 403 319 414 307 q 422 404 411 369 q 371 456 404 435 q 290 478 338 478 q 215 442 243 478 q 186 337 186 407 q 237 203 186 267 q 390 57 288 139 q 328 -22 361 4 q 100 194 174 88 q 28 404 28 297 q 97 569 28 511 q 251 628 165 628 q 389 585 338 628 q 460 494 440 543 q 624 621 519 600 l 624 722 l -14 722 q -68 868 -68 789 l 1028 868 q 1082 722 1082 801 l 790 722 z "},"ऍ":{"ha":829,"x_min":-69,"x_max":897,"o":"m 508 -176 q 607 -96 607 -125 q 433 46 607 -67 q 340 107 396 71 q 261 158 283 143 q 122 436 122 251 l 122 722 l -15 722 q -69 868 -69 789 l 843 868 q 897 722 897 801 l 707 722 l 707 481 q 528 236 707 297 q 482 296 508 250 q 449 372 456 342 q 515 405 490 385 q 539 464 539 425 l 539 722 l 290 722 l 288 419 q 310 319 288 353 q 411 235 332 285 q 501 181 438 218 q 591 124 564 143 q 656 72 618 106 q 725 -71 725 14 q 708 -164 725 -121 q 672 -231 690 -207 q 615 -294 653 -256 q 508 -176 556 -256 m 744 1154 q 626 1017 708 1076 q 435 958 544 958 q 246 1019 325 958 q 131 1168 167 1079 q 221 1222 153 1190 q 408 1089 294 1089 q 522 1128 475 1089 q 607 1249 568 1167 q 681 1208 638 1238 q 744 1154 724 1178 z "},"ऎ":{"ha":829,"x_min":-69,"x_max":897,"o":"m 508 -176 q 607 -96 607 -125 q 433 46 607 -67 q 340 107 396 71 q 261 158 283 143 q 122 436 122 251 l 122 722 l -15 722 q -69 868 -69 789 l 592 868 q 599 899 599 885 q 535 962 599 938 q 390 996 472 986 q 216 1032 308 1006 q 85 1095 124 1058 q 21 1187 46 1132 q -10 1283 -4 1242 l 53 1307 q 126 1212 79 1235 q 363 1150 174 1189 q 601 1088 551 1111 q 699 956 699 1043 q 681 868 699 914 l 843 868 q 897 722 897 801 l 707 722 l 707 481 q 528 236 707 297 q 482 296 508 250 q 449 372 456 342 q 515 405 490 385 q 539 464 539 425 l 539 722 l 290 722 l 288 419 q 310 319 288 353 q 411 235 332 285 q 501 181 438 218 q 591 124 564 143 q 656 72 618 106 q 725 -71 725 14 q 708 -164 725 -121 q 672 -231 690 -207 q 615 -294 653 -256 q 508 -176 556 -256 z "},"ए":{"ha":829,"x_min":-69,"x_max":897,"o":"m 508 -176 q 607 -96 607 -125 q 433 46 607 -67 q 340 107 396 71 q 261 158 283 143 q 122 436 122 251 l 122 722 l -15 722 q -69 868 -69 789 l 843 868 q 897 722 897 801 l 707 722 l 707 481 q 528 236 707 297 q 482 296 508 250 q 449 372 456 342 q 515 405 490 385 q 539 464 539 425 l 539 722 l 290 722 l 288 419 q 310 319 288 353 q 411 235 332 285 q 501 181 438 218 q 591 124 564 143 q 656 72 618 106 q 725 -71 725 14 q 708 -164 725 -121 q 672 -231 690 -207 q 615 -294 653 -256 q 508 -176 556 -256 z "},"ऐ":{"ha":829,"x_min":-69,"x_max":897,"o":"m 508 -176 q 607 -96 607 -125 q 433 46 607 -67 q 340 107 396 71 q 261 158 283 143 q 122 436 122 251 l 122 722 l -15 722 q -69 868 -69 789 l 535 868 q 292 1106 432 1106 q 174 1091 238 1106 q 86 1067 110 1076 q 61 1131 81 1075 q 39 1208 42 1186 q 131 1234 60 1218 q 265 1250 203 1250 q 396 1210 326 1250 q 517 1108 465 1171 q 658 868 611 989 l 843 868 q 897 722 897 801 l 707 722 l 707 481 q 528 236 707 297 q 482 296 508 250 q 449 372 456 342 q 515 405 490 385 q 539 464 539 425 l 539 722 l 290 722 l 288 419 q 310 319 288 353 q 411 235 332 285 q 501 181 438 218 q 591 124 564 143 q 656 72 618 106 q 725 -71 725 14 q 708 -164 725 -121 q 672 -231 690 -207 q 615 -294 653 -256 q 508 -176 556 -256 z "},"ऑ":{"ha":1461,"x_min":6,"x_max":1529,"o":"m 1529 722 l 1339 722 l 1339 -28 q 1228 -8 1283 -28 q 1172 36 1172 11 l 1172 722 l 947 722 l 947 -28 q 836 -8 892 -28 q 781 36 781 11 l 781 310 q 679 299 736 299 l 656 299 l 656 286 q 601 132 656 194 q 439 69 546 69 q 294 103 364 69 q 169 192 224 136 q 6 450 60 303 q 90 497 36 485 q 226 292 156 361 q 392 222 297 222 q 481 249 451 222 q 510 315 510 275 q 486 384 510 356 q 414 413 463 413 q 329 394 365 413 q 281 458 307 411 q 249 532 254 504 q 413 608 360 558 q 467 701 467 658 q 406 742 467 742 q 213 651 311 742 q 161 722 189 672 q 128 800 133 771 q 342 882 233 882 q 518 826 450 882 q 586 664 586 769 q 492 500 586 558 q 615 417 572 474 q 781 463 708 429 l 781 722 l 682 722 q 628 868 628 789 l 1475 868 q 1529 722 1529 801 m 1365 1154 q 1247 1017 1329 1076 q 1056 958 1165 958 q 867 1019 946 958 q 751 1168 788 1079 q 842 1222 774 1190 q 1029 1089 915 1089 q 1142 1128 1096 1089 q 1228 1249 1189 1167 q 1301 1208 1258 1238 q 1365 1154 1344 1178 z "},"ऒ":{"ha":1461,"x_min":6,"x_max":1529,"o":"m 1529 722 l 1339 722 l 1339 -28 q 1228 -8 1283 -28 q 1172 36 1172 11 l 1172 722 l 947 722 l 947 -28 q 836 -8 892 -28 q 781 36 781 11 l 781 310 q 679 299 736 299 l 656 299 l 656 286 q 601 132 656 194 q 439 69 546 69 q 294 103 364 69 q 169 192 224 136 q 6 450 60 303 q 90 497 36 485 q 226 292 156 361 q 392 222 297 222 q 481 249 451 222 q 510 315 510 275 q 486 384 510 356 q 414 413 463 413 q 329 394 365 413 q 281 458 307 411 q 249 532 254 504 q 413 608 360 558 q 467 701 467 658 q 406 742 467 742 q 213 651 311 742 q 161 722 189 672 q 128 800 133 771 q 342 882 233 882 q 518 826 450 882 q 586 664 586 769 q 492 500 586 558 q 615 417 572 474 q 781 463 708 429 l 781 722 l 682 722 q 628 868 628 789 l 1218 868 q 1225 899 1225 885 q 1162 962 1225 938 q 1017 996 1099 986 q 842 1032 935 1006 q 711 1095 750 1058 q 647 1187 672 1132 q 617 1283 622 1242 l 679 1307 q 753 1212 706 1235 q 989 1150 800 1189 q 1228 1088 1178 1111 q 1325 956 1325 1043 q 1307 868 1325 914 l 1475 868 q 1529 722 1529 801 z "},"ओ":{"ha":1461,"x_min":6,"x_max":1529,"o":"m 1529 722 l 1339 722 l 1339 -28 q 1228 -8 1283 -28 q 1172 36 1172 11 l 1172 722 l 947 722 l 947 -28 q 836 -8 892 -28 q 781 36 781 11 l 781 310 q 679 299 736 299 l 656 299 l 656 286 q 601 132 656 194 q 439 69 546 69 q 294 103 364 69 q 169 192 224 136 q 6 450 60 303 q 90 497 36 485 q 226 292 156 361 q 392 222 297 222 q 481 249 451 222 q 510 315 510 275 q 486 384 510 356 q 414 413 463 413 q 329 394 365 413 q 281 458 307 411 q 249 532 254 504 q 413 608 360 558 q 467 701 467 658 q 406 742 467 742 q 213 651 311 742 q 161 722 189 672 q 128 800 133 771 q 342 882 233 882 q 518 826 450 882 q 586 664 586 769 q 492 500 586 558 q 615 417 572 474 q 781 463 708 429 l 781 722 l 682 722 q 628 868 628 789 l 1158 868 q 915 1106 1049 1106 q 797 1091 861 1106 q 710 1067 733 1076 q 685 1131 704 1075 q 663 1208 665 1186 q 755 1234 683 1218 q 888 1250 826 1250 q 1019 1210 950 1250 q 1139 1108 1089 1171 q 1282 868 1235 989 l 1475 868 q 1529 722 1529 801 z "},"औ":{"ha":1461,"x_min":6,"x_max":1529,"o":"m 1529 722 l 1339 722 l 1339 -28 q 1228 -8 1283 -28 q 1172 36 1172 11 l 1172 722 l 947 722 l 947 -28 q 836 -8 892 -28 q 781 36 781 11 l 781 310 q 679 299 736 299 l 656 299 l 656 286 q 601 132 656 194 q 439 69 546 69 q 294 103 364 69 q 169 192 224 136 q 6 450 60 303 q 90 497 36 485 q 226 292 156 361 q 392 222 297 222 q 481 249 451 222 q 510 315 510 275 q 486 384 510 356 q 414 413 463 413 q 329 394 365 413 q 281 458 307 411 q 249 532 254 504 q 413 608 360 558 q 467 701 467 658 q 406 742 467 742 q 213 651 311 742 q 161 722 189 672 q 128 800 133 771 q 342 882 233 882 q 518 826 450 882 q 586 664 586 769 q 492 500 586 558 q 615 417 572 474 q 781 463 708 429 l 781 722 l 682 722 q 628 868 628 789 l 1129 868 q 968 957 1046 957 q 874 933 924 957 q 804 888 825 908 q 768 940 796 894 q 731 1013 740 986 q 810 1060 756 1038 q 914 1083 864 1083 q 1128 976 1007 1083 q 940 1147 1031 1147 q 781 1083 871 1147 q 746 1144 771 1093 q 713 1226 721 1196 q 803 1266 746 1247 q 910 1285 860 1285 q 1012 1257 961 1285 q 1100 1186 1063 1229 q 1169 1086 1138 1143 q 1263 868 1232 976 l 1475 868 q 1529 722 1529 801 z "},"क":{"ha":1061,"x_min":-68,"x_max":1125,"o":"m 644 722 l 644 561 q 782 611 711 611 q 955 541 889 611 q 1021 356 1021 471 q 860 97 1021 189 q 757 217 801 132 q 860 309 814 254 q 906 408 906 364 q 833 490 906 490 q 644 364 742 490 l 644 -28 q 533 -8 589 -28 q 478 36 478 11 l 478 169 q 313 129 404 129 q 113 210 193 129 q 33 399 33 290 q 109 569 33 507 q 288 632 185 632 q 478 586 390 632 l 478 722 l -14 722 q -68 868 -68 789 l 1071 868 q 1125 722 1125 801 l 644 722 m 478 472 q 346 503 419 503 q 227 465 272 503 q 182 363 182 426 q 217 270 182 299 q 303 242 251 242 q 478 319 397 242 l 478 472 z "},"ख":{"ha":1153,"x_min":-68,"x_max":1221,"o":"m 1221 722 l 1031 722 l 1031 -28 q 919 -8 975 -28 q 864 36 864 11 l 864 156 q 724 121 799 121 q 520 201 600 121 q 440 390 440 282 q 514 556 440 499 q 684 614 588 614 q 864 572 781 614 l 864 722 l 357 722 q 374 558 374 646 q 190 253 374 272 q 372 115 242 172 q 642 36 503 57 q 597 -93 628 -44 q 374 -37 482 -86 q 193 81 265 13 q 77 222 121 149 q 33 358 33 296 q 69 447 33 419 q 174 474 104 474 q 242 468 189 474 q 243 492 243 475 q 190 722 243 610 l -14 722 q -68 868 -68 789 l 1167 868 q 1221 722 1221 801 m 864 474 q 734 492 807 492 q 620 451 661 492 q 579 351 579 411 q 612 263 579 292 q 692 233 644 233 q 864 303 782 233 l 864 474 z "},"ग":{"ha":851,"x_min":-68,"x_max":919,"o":"m 919 722 l 729 722 l 729 -28 q 618 -8 674 -28 q 563 36 563 11 l 563 722 l 336 722 l 336 394 q 288 231 336 269 q 228 213 264 213 q 100 293 171 213 q 29 426 29 374 q 40 475 29 463 q 169 513 71 513 l 169 722 l -14 722 q -68 868 -68 789 l 865 868 q 919 722 919 801 z "},"घ":{"ha":874,"x_min":-68,"x_max":942,"o":"m 942 722 l 751 722 l 751 -28 q 640 -8 696 -28 q 585 36 585 11 l 585 169 q 381 122 490 122 q 198 183 271 122 q 125 332 125 243 q 183 482 125 421 q 83 545 118 500 q 47 642 47 590 q 61 722 47 693 l -14 722 q -68 868 -68 789 l 888 868 q 942 722 942 801 m 585 722 l 219 722 q 199 653 199 693 q 224 587 199 614 q 286 550 250 560 q 390 582 331 569 q 467 463 454 518 q 338 419 396 451 q 279 339 279 386 q 306 282 279 307 q 388 257 332 257 q 585 347 494 257 l 585 722 z "},"ङ":{"ha":935,"x_min":-68,"x_max":1003,"o":"m 762 490 q 784 509 762 490 q 825 529 807 529 q 883 483 843 529 q 924 414 924 436 q 878 362 924 401 q 814 322 833 322 q 756 367 794 322 q 717 431 717 411 q 762 490 717 450 m 572 497 l 449 500 q 299 479 349 500 q 250 407 250 458 q 276 356 250 356 q 387 385 288 356 q 536 414 486 414 q 665 334 610 414 q 719 186 719 254 q 638 22 719 88 q 444 -43 557 -43 q 226 20 331 -43 q 42 193 121 83 q 110 257 57 239 q 401 96 247 96 q 554 138 493 96 q 615 233 615 179 q 576 272 615 272 q 466 242 558 272 q 338 213 374 213 q 202 283 278 213 q 126 461 126 354 q 181 591 126 544 q 328 638 235 638 l 474 638 l 474 722 l -14 722 q -68 868 -68 789 l 949 868 q 1003 722 1003 801 l 640 722 l 640 588 q 613 531 640 565 q 572 497 586 497 z "},"च":{"ha":914,"x_min":-68,"x_max":982,"o":"m 982 722 l 792 722 l 792 -28 q 681 -8 736 -28 q 625 36 625 11 l 625 181 q 446 126 540 126 q 239 203 319 126 q 158 379 158 281 q 182 479 158 439 l 72 479 q 18 625 18 546 l 483 625 q 538 479 538 558 l 490 479 q 363 449 421 479 q 306 367 306 419 q 341 291 306 315 q 433 267 376 267 q 625 350 549 267 l 625 722 l -14 722 q -68 868 -68 789 l 928 868 q 982 722 982 801 z "},"छ":{"ha":994,"x_min":-68,"x_max":1036,"o":"m 774 722 l 774 660 q 886 553 844 626 q 928 379 928 479 q 792 77 928 193 q 453 -39 656 -39 q 228 22 311 -39 q 146 182 146 82 q 197 310 146 254 q 40 497 40 364 q 94 624 40 574 q 232 675 147 675 q 400 564 357 675 q 413 519 410 542 q 365 497 393 504 q 275 560 329 560 q 213 535 235 560 q 190 474 190 511 q 216 409 190 436 q 278 376 242 382 q 396 419 338 408 q 472 292 453 365 q 357 258 406 288 q 308 183 308 229 q 344 113 308 136 q 442 89 379 89 q 683 183 572 89 q 793 429 793 276 q 769 533 793 503 q 716 563 744 563 q 665 540 688 563 q 643 472 643 518 q 711 353 643 407 q 668 285 703 314 q 488 503 488 361 q 527 619 488 571 q 635 678 567 667 l 635 722 l -14 722 q -68 868 -68 789 l 982 868 q 1036 722 1036 801 l 774 722 z "},"ज":{"ha":1083,"x_min":-68,"x_max":1150,"o":"m 1150 722 l 961 722 l 961 -28 q 850 -8 906 -28 q 794 36 794 11 l 794 443 l 583 443 q 664 236 664 350 q 614 110 664 154 q 483 65 564 65 q 333 108 403 65 q 211 225 264 151 q 58 575 114 365 q 157 611 104 606 q 272 338 197 457 q 436 219 346 219 q 526 301 526 219 q 422 507 526 379 q 447 555 428 526 q 481 589 467 583 l 794 589 l 794 722 l -14 722 q -68 868 -68 789 l 1096 868 q 1150 722 1150 801 z "},"झ":{"ha":1038,"x_min":-68,"x_max":1106,"o":"m 1106 722 l 915 722 l 915 -28 q 804 -8 860 -28 q 749 36 749 11 l 749 258 q 632 247 692 244 q 640 192 640 218 q 554 37 640 107 q 317 -33 468 -33 l 314 -33 q 438 -185 414 -143 q 383 -233 431 -200 q 313 -274 336 -265 q 283 -200 308 -264 q 194 -14 233 -75 q 83 41 128 7 q 38 115 38 75 q 72 185 38 156 q 133 214 106 214 q 192 178 161 214 q 239 108 224 142 q 321 97 272 97 q 472 147 408 97 q 536 239 536 196 q 499 282 536 282 q 385 252 478 282 q 263 222 293 222 q 123 292 199 222 q 47 453 47 361 q 101 593 47 546 q 249 640 156 640 l 394 640 l 394 722 l -14 722 q -68 868 -68 789 l 1051 868 q 1106 722 1106 801 m 490 499 l 372 503 q 218 485 265 503 q 171 416 171 467 q 197 365 171 365 q 308 394 208 365 q 451 424 408 424 q 571 364 518 424 q 749 411 672 375 l 749 722 l 561 722 l 561 588 q 535 531 561 563 q 490 499 510 499 z "},"ञ":{"ha":1072,"x_min":-68,"x_max":1140,"o":"m 1140 722 l 950 722 l 950 -28 q 839 -8 894 -28 q 783 36 783 11 l 783 308 q 733 299 761 301 q 640 165 714 215 q 476 115 567 115 q 304 156 385 115 q 165 257 224 196 q 7 488 53 375 q 42 519 13 497 q 86 546 72 542 q 256 325 179 396 q 438 254 332 254 q 527 283 486 254 q 568 381 568 311 q 547 458 568 426 q 485 490 525 490 q 397 467 444 490 q 310 408 349 443 q 225 550 246 482 q 316 590 253 572 q 440 607 379 607 q 624 554 543 607 q 729 417 704 501 q 783 435 756 422 l 783 722 l -14 722 q -68 868 -68 789 l 1086 868 q 1140 722 1140 801 z "},"ट":{"ha":750,"x_min":-68,"x_max":818,"o":"m 597 722 l 597 556 q 542 481 593 522 q 444 486 507 486 q 254 440 322 486 q 186 310 186 394 q 241 187 186 225 q 378 149 296 149 q 644 282 531 149 q 743 169 717 235 q 594 62 683 104 q 399 19 504 19 q 140 112 240 19 q 40 335 40 204 q 133 544 40 465 q 364 624 226 624 q 432 621 408 624 l 432 722 l -14 722 q -68 868 -68 789 l 764 868 q 818 722 818 801 l 597 722 z "},"ठ":{"ha":822,"x_min":-68,"x_max":893,"o":"m 597 722 l 597 592 q 736 486 688 556 q 785 322 785 417 q 687 103 785 186 q 423 19 589 19 q 150 111 257 19 q 43 339 43 203 q 144 549 43 475 q 410 624 246 624 l 432 624 l 432 722 l -14 722 q -68 868 -68 789 l 839 868 q 893 722 893 801 l 597 722 m 188 310 q 188 271 188 310 q 242 185 188 232 q 404 139 297 139 q 585 198 511 139 q 660 347 660 257 q 457 490 660 490 q 262 440 336 490 q 188 310 188 389 z "},"ड":{"ha":764,"x_min":-68,"x_max":833,"o":"m 593 497 l 458 500 q 301 479 351 500 q 250 407 250 458 q 276 356 250 356 q 392 385 288 356 q 546 414 496 414 q 674 334 619 414 q 729 186 729 254 q 648 22 729 88 q 451 -43 567 -43 q 228 19 335 -43 q 42 193 121 82 q 110 257 57 239 q 401 96 247 96 q 559 138 493 96 q 625 233 625 179 q 586 272 625 272 q 471 242 568 272 q 338 213 374 213 q 202 283 278 213 q 126 461 126 354 q 181 591 126 544 q 328 638 235 638 l 483 638 l 483 722 l -14 722 q -68 868 -68 789 l 779 868 q 833 722 833 801 l 650 722 l 650 579 q 593 497 639 532 z "},"ढ":{"ha":751,"x_min":-68,"x_max":821,"o":"m 394 140 l 401 140 q 354 269 354 199 q 404 387 354 340 q 535 433 454 433 q 664 386 615 433 q 713 261 713 339 q 621 87 713 154 q 385 19 529 19 q 140 109 240 19 q 40 350 40 199 q 128 544 40 463 q 367 625 215 625 q 431 622 410 625 l 431 722 l -14 722 q -68 868 -68 789 l 767 868 q 821 722 821 801 l 596 722 l 596 556 q 574 513 590 535 q 539 482 557 492 q 416 489 472 489 q 309 472 360 489 q 233 425 258 454 q 186 297 186 369 q 245 182 186 224 q 394 140 304 140 m 603 270 q 604 287 603 270 q 590 320 604 304 q 544 336 575 336 q 492 304 514 336 q 471 232 471 272 q 485 154 471 192 q 570 203 538 171 q 603 270 603 236 z "},"ण":{"ha":1089,"x_min":-68,"x_max":1158,"o":"m 1158 722 l 967 722 l 967 -28 q 856 -8 911 -28 q 800 36 800 11 l 800 722 l 633 722 l 633 472 q 564 263 633 342 q 367 183 494 183 q 157 273 239 183 q 75 510 75 363 l 75 722 l -14 722 q -68 868 -68 789 l 1104 868 q 1158 722 1158 801 m 467 474 l 467 722 l 243 722 l 243 513 q 274 353 243 414 q 351 293 306 293 q 432 334 397 293 q 467 474 467 375 z "},"त":{"ha":785,"x_min":-68,"x_max":853,"o":"m 853 722 l 663 722 l 663 -28 q 551 -8 607 -28 q 496 36 496 11 l 496 428 l 401 428 q 242 404 288 428 q 197 324 197 381 q 326 28 197 215 q 283 -10 313 11 q 239 -35 254 -32 q 38 386 38 224 q 126 549 38 501 q 404 596 214 596 l 496 596 l 496 722 l -14 722 q -68 868 -68 789 l 799 868 q 853 722 853 801 z "},"थ":{"ha":971,"x_min":108,"x_max":1039,"o":"m 256 703 q 310 601 256 650 q 265 544 303 576 q 164 607 201 568 q 117 674 126 646 q 108 729 108 701 q 162 839 108 796 q 312 882 215 882 q 480 810 408 882 q 551 635 551 739 q 480 453 550 532 q 288 346 410 375 q 481 267 351 267 q 682 353 611 267 l 682 722 l 617 722 q 563 868 563 789 l 985 868 q 1039 722 1039 801 l 849 722 l 849 -28 q 738 -8 793 -28 q 682 36 682 11 l 682 171 q 486 118 594 118 q 245 223 344 118 q 136 454 146 328 q 334 526 263 471 q 406 668 406 582 q 383 753 406 726 q 326 781 360 781 q 274 758 292 781 q 256 703 256 736 z "},"द":{"ha":789,"x_min":-68,"x_max":857,"o":"m 614 722 l 614 557 q 587 509 614 539 q 546 482 560 479 q 454 490 488 490 q 269 442 333 490 q 204 301 204 394 q 392 143 204 143 q 492 163 456 143 q 471 252 471 194 q 523 349 471 310 q 626 388 575 388 q 710 271 710 388 q 656 119 710 186 q 813 -46 769 21 q 754 -106 801 -68 q 678 -157 707 -144 q 567 53 574 40 q 403 19 496 19 q 151 110 244 19 q 58 328 58 200 q 142 540 58 456 q 386 625 225 625 q 449 622 413 625 l 449 722 l -14 722 q -68 868 -68 789 l 803 868 q 857 722 857 801 l 614 722 z "},"ध":{"ha":976,"x_min":103,"x_max":1044,"o":"m 1044 722 l 854 722 l 854 -28 q 743 -8 799 -28 q 688 36 688 11 l 688 185 q 463 122 581 122 q 273 183 346 122 q 200 331 200 243 q 253 475 200 418 q 144 549 185 499 q 103 674 103 600 q 163 812 103 749 q 336 875 224 875 q 464 840 421 875 q 507 757 507 806 q 470 672 507 708 q 371 617 433 635 q 339 669 349 636 q 393 743 393 707 q 343 790 393 790 q 282 758 310 790 q 254 674 254 726 q 349 544 254 576 q 489 588 408 574 q 565 468 550 532 q 419 422 483 457 q 354 339 354 388 q 381 282 354 307 q 467 257 407 257 q 586 291 526 257 q 688 381 646 325 l 688 722 l 610 722 q 549 868 549 797 l 990 868 q 1044 722 1044 801 z "},"न":{"ha":818,"x_min":-68,"x_max":888,"o":"m 364 382 l 300 381 q 278 272 294 324 q 242 209 261 221 q 197 197 224 197 q 156 210 171 197 q 64 318 104 253 q 24 419 24 383 q 189 522 24 514 q 393 529 332 529 l 529 529 l 529 722 l -14 722 q -68 868 -68 789 l 833 868 q 888 722 888 801 l 696 722 l 696 -28 q 585 -8 640 -28 q 529 36 529 11 l 529 382 l 364 382 z "},"ऩ":{"ha":819,"x_min":-67,"x_max":889,"o":"m 365 382 l 301 381 q 279 272 296 324 q 244 209 263 221 q 199 197 225 197 q 157 210 172 197 q 65 318 106 253 q 25 419 25 383 q 190 522 25 514 q 394 529 333 529 l 531 529 l 531 722 l -12 722 q -67 868 -67 789 l 835 868 q 889 722 889 801 l 697 722 l 697 -28 q 586 -8 642 -28 q 531 36 531 11 l 531 382 l 365 382 m 234 106 q 257 126 234 106 q 297 146 279 146 q 356 99 315 146 q 396 31 396 53 q 351 -22 396 18 q 286 -61 306 -61 q 228 -17 267 -61 q 189 47 189 28 q 234 106 189 67 z "},"प":{"ha":831,"x_min":-68,"x_max":899,"o":"m 899 722 l 708 722 l 708 -28 q 597 -8 653 -28 q 542 36 542 11 l 542 215 q 383 174 467 174 q 173 281 242 174 q 104 547 104 388 l 104 722 l -14 722 q -68 868 -68 789 l 844 868 q 899 722 899 801 m 542 722 l 278 722 l 278 533 q 296 334 278 386 q 372 282 314 282 q 458 314 413 282 q 542 397 504 346 l 542 722 z "},"फ":{"ha":1158,"x_min":-68,"x_max":1225,"o":"m 704 722 l 704 528 q 885 588 786 588 q 1054 516 985 588 q 1124 339 1124 444 q 1069 149 1124 233 q 949 19 1015 65 q 835 138 882 56 q 945 242 893 174 q 997 382 997 311 q 922 465 997 465 q 809 417 867 465 q 704 301 751 369 l 704 -28 q 593 -8 649 -28 q 538 36 538 11 l 538 242 q 382 206 465 206 q 171 319 239 206 q 103 610 103 433 l 103 722 l -14 722 q -68 868 -68 789 l 1171 868 q 1225 722 1225 801 l 704 722 m 275 722 l 275 596 q 293 377 275 438 q 363 317 311 317 q 538 425 450 317 l 538 722 l 275 722 z "},"ब":{"ha":803,"x_min":-68,"x_max":869,"o":"m 869 722 l 681 722 l 681 -28 q 569 -8 625 -28 q 514 36 514 11 l 514 160 q 340 108 433 108 q 128 194 207 108 q 49 401 49 281 q 134 590 49 522 q 324 657 219 657 q 514 597 429 657 l 514 722 l -14 722 q -68 868 -68 789 l 815 868 q 869 722 869 801 m 514 489 q 395 518 453 518 q 304 508 338 518 l 492 314 q 514 333 508 328 l 514 489 m 226 463 q 192 358 192 421 q 226 265 192 296 q 310 233 260 233 q 421 265 360 233 l 226 463 z "},"भ":{"ha":1085,"x_min":89,"x_max":1153,"o":"m 1153 722 l 963 722 l 963 -28 q 851 -8 907 -28 q 796 36 796 11 l 796 274 q 557 282 654 286 q 535 183 551 231 q 499 122 519 135 q 456 110 485 113 q 411 115 426 108 q 309 202 372 131 q 246 333 246 274 q 276 385 246 367 q 388 408 307 404 l 388 643 q 311 774 386 774 q 249 699 249 774 q 280 608 249 643 q 363 544 311 574 q 329 476 350 494 q 163 560 236 499 q 89 706 89 621 q 151 836 89 792 q 303 881 214 881 q 424 854 378 881 q 494 797 471 828 q 550 607 550 731 l 550 415 q 796 408 610 419 l 796 722 l 686 722 q 632 868 632 789 l 1099 868 q 1153 722 1153 801 z "},"म":{"ha":908,"x_min":-68,"x_max":976,"o":"m 976 722 l 786 722 l 786 -28 q 675 -8 731 -28 q 619 36 619 11 l 619 285 q 340 290 485 300 q 324 195 340 243 q 288 131 308 147 q 229 115 268 115 q 103 197 176 115 q 31 329 31 278 q 42 378 31 365 q 171 415 72 415 l 171 722 l -14 722 q -68 868 -68 789 l 922 868 q 976 722 976 801 m 336 422 q 619 419 408 429 l 619 722 l 336 722 l 336 422 z "},"य":{"ha":854,"x_min":-68,"x_max":924,"o":"m 924 722 l 732 722 l 732 -28 q 621 -8 676 -28 q 565 36 565 11 l 565 167 q 395 121 485 121 q 238 153 306 121 q 131 236 171 185 q 39 454 54 335 q 177 513 139 476 q 215 625 215 549 q 178 722 215 674 l -14 722 q -68 868 -68 789 l 869 868 q 924 722 924 801 m 565 722 l 326 722 q 374 589 374 661 q 182 353 374 401 q 372 271 244 271 q 565 347 499 271 l 565 722 z "},"र":{"ha":486,"x_min":-68,"x_max":556,"o":"m 556 722 l 363 722 q 381 522 381 633 q 333 356 381 411 q 201 300 285 300 q 274 211 225 260 q 347 140 324 163 q 461 36 425 67 q 418 -10 450 15 q 365 -42 386 -35 q 240 73 307 6 q 109 241 174 140 q 44 415 44 342 q 164 513 44 513 q 231 503 201 513 q 239 542 239 515 q 201 722 239 639 l -14 722 q -68 868 -68 789 l 501 868 q 556 722 556 801 z "},"ऱ":{"ha":475,"x_min":-68,"x_max":556,"o":"m 556 722 l 363 722 q 381 522 381 633 q 333 356 381 411 q 201 300 285 300 q 274 211 225 260 q 347 140 324 163 q 461 36 425 67 q 418 -10 450 15 q 365 -42 386 -35 q 240 73 307 6 q 109 241 174 140 q 44 415 44 342 q 164 513 44 513 q 231 503 201 513 q 239 542 239 515 q 201 722 239 639 l -14 722 q -68 868 -68 789 l 501 868 q 556 722 556 801 m 34 44 q 57 64 34 44 q 97 83 79 83 q 156 37 115 83 q 196 -32 196 -10 q 151 -84 196 -44 q 86 -124 106 -124 q 28 -79 67 -124 q -11 -15 -11 -35 q 34 44 -11 4 z "},"ल":{"ha":1000,"x_min":-60,"x_max":1068,"o":"m 1068 722 l 878 722 l 878 -28 q 767 -8 822 -28 q 711 36 711 11 l 711 499 q 557 260 592 497 q 481 285 526 264 q 419 319 436 306 q 440 407 426 363 q 390 457 424 436 q 310 478 357 478 q 235 442 264 478 q 207 337 207 407 q 258 203 207 267 q 411 57 308 139 q 349 -22 382 4 q 49 404 49 189 q 118 569 49 511 q 272 628 188 628 q 407 588 356 628 q 478 499 458 547 q 674 625 549 625 q 711 622 689 625 l 711 722 l -6 722 q -60 868 -60 789 l 1014 868 q 1068 722 1068 801 z "},"ळ":{"ha":1036,"x_min":-68,"x_max":1104,"o":"m 836 722 l 836 618 q 948 521 906 588 q 990 360 990 454 q 914 149 990 232 q 731 67 838 67 q 504 189 599 67 q 310 71 419 71 q 131 152 217 71 q 44 361 44 233 q 115 564 44 489 q 297 639 185 639 q 525 525 429 639 q 669 631 588 607 l 669 722 l -14 722 q -68 868 -68 789 l 1050 868 q 1104 722 1104 801 l 836 722 m 482 458 q 356 496 424 496 q 242 463 288 496 q 163 321 163 406 q 193 243 163 268 q 253 218 224 218 q 299 223 283 218 q 328 234 315 228 q 353 253 340 240 q 375 274 367 265 q 395 301 383 283 q 411 328 407 319 q 452 405 433 369 q 482 458 471 440 m 546 257 q 686 199 617 199 q 808 267 756 199 q 860 415 860 336 q 841 486 860 458 q 788 514 822 514 q 722 494 753 514 q 668 450 690 474 q 617 382 646 426 q 546 257 589 336 z "},"ऴ":{"ha":1036,"x_min":-68,"x_max":1104,"o":"m 836 722 l 836 618 q 948 521 906 588 q 990 360 990 454 q 914 149 990 232 q 731 67 838 67 q 504 189 599 67 q 310 71 419 71 q 131 152 217 71 q 44 361 44 233 q 115 564 44 489 q 297 639 185 639 q 525 525 429 639 q 669 631 588 607 l 669 722 l -14 722 q -68 868 -68 789 l 1050 868 q 1104 722 1104 801 l 836 722 m 482 458 q 356 496 424 496 q 242 463 288 496 q 163 321 163 406 q 193 243 163 268 q 253 218 224 218 q 299 223 283 218 q 328 234 315 228 q 353 253 340 240 q 375 274 367 265 q 395 301 383 283 q 411 328 407 319 q 452 405 433 369 q 482 458 471 440 m 546 257 q 686 199 617 199 q 808 267 756 199 q 860 415 860 336 q 841 486 860 458 q 788 514 822 514 q 722 494 753 514 q 668 450 690 474 q 617 382 646 426 q 546 257 589 336 m 465 -12 q 487 8 465 -12 q 528 28 510 28 q 586 -19 546 28 q 626 -87 626 -65 q 581 -140 626 -100 q 517 -179 536 -179 q 458 -135 497 -179 q 419 -71 419 -90 q 465 -12 419 -51 z "},"व":{"ha":803,"x_min":-68,"x_max":871,"o":"m 871 722 l 681 722 l 681 -28 q 569 -8 625 -28 q 514 36 514 11 l 514 160 q 340 108 433 108 q 128 194 207 108 q 49 401 49 281 q 134 590 49 522 q 319 657 219 657 q 514 599 419 657 l 514 722 l -14 722 q -68 868 -68 789 l 817 868 q 871 722 871 801 m 514 489 q 372 518 453 518 q 242 476 292 518 q 192 365 192 435 q 226 265 192 296 q 308 233 260 233 q 413 262 357 233 q 514 333 469 290 l 514 489 z "},"श":{"ha":992,"x_min":-68,"x_max":1060,"o":"m 1060 722 l 869 722 l 869 -28 q 758 -8 814 -28 q 703 36 703 11 l 703 722 l 563 722 q 606 590 606 668 q 518 393 606 482 q 319 254 431 304 q 551 15 497 101 q 501 -42 543 -7 q 428 -92 460 -76 q 226 225 353 50 q 189 224 221 224 q 107 249 157 224 q 57 314 57 275 q 93 388 57 353 q 164 422 129 422 q 275 350 213 422 q 388 435 335 365 q 440 582 440 504 q 346 715 440 715 q 290 690 313 715 q 267 619 267 664 q 339 494 267 556 q 324 464 336 482 q 303 440 313 446 q 159 526 214 469 q 104 654 104 582 q 115 722 104 692 l -14 722 q -68 868 -68 789 l 1006 868 q 1060 722 1060 801 z "},"ष":{"ha":854,"x_min":-68,"x_max":921,"o":"m 921 722 l 732 722 l 732 -28 q 621 -8 676 -28 q 565 36 565 11 l 565 214 q 404 174 488 174 q 181 282 257 174 q 104 547 104 390 l 104 722 l -14 722 q -68 868 -68 789 l 867 868 q 921 722 921 801 m 271 533 q 297 338 271 392 q 393 283 322 283 q 503 331 444 283 l 271 611 l 271 533 m 565 722 l 300 722 l 565 407 l 565 722 z "},"स":{"ha":918,"x_min":-68,"x_max":988,"o":"m 988 722 l 796 722 l 796 -28 q 685 -8 740 -28 q 629 36 629 11 l 629 331 q 531 321 589 321 q 324 361 411 321 q 215 321 282 329 q 323 181 244 271 q 461 36 401 92 q 418 -10 450 15 q 365 -42 386 -35 q 107 289 217 106 q 58 436 58 376 q 178 533 58 533 q 244 524 215 533 q 253 563 253 536 q 204 722 253 633 l -14 722 q -68 868 -68 789 l 933 868 q 988 722 988 801 m 629 722 l 365 722 q 394 551 394 613 q 385 456 394 489 q 458 450 417 450 q 629 481 553 450 l 629 722 z "},"ह":{"ha":656,"x_min":-68,"x_max":724,"o":"m 492 474 l 349 474 q 196 422 196 474 q 238 340 196 382 q 360 361 293 361 q 550 297 486 361 q 614 163 614 232 q 581 43 614 94 q 485 -26 547 -8 q 441 28 469 -17 q 406 101 413 74 q 472 142 443 115 q 501 190 501 169 q 469 222 501 210 q 378 233 436 233 q 272 198 319 233 q 224 107 224 163 q 254 10 224 51 q 340 -60 285 -31 q 567 -146 440 -112 q 553 -200 565 -169 q 532 -246 542 -231 q 225 -122 356 -203 q 108 -14 151 -78 q 65 125 65 50 q 150 294 65 228 q 49 481 49 389 q 276 625 49 625 l 396 625 l 396 722 l -14 722 q -68 868 -68 789 l 669 868 q 724 722 724 801 l 560 722 l 560 558 q 534 503 560 533 q 492 474 508 474 z "},"़":{"ha":0,"x_min":-457,"x_max":-250,"o":"m -250 -157 q -295 -209 -250 -169 q -360 -249 -340 -249 q -418 -204 -379 -249 q -457 -140 -457 -160 q -412 -81 -457 -121 q -349 -42 -367 -42 q -290 -88 -331 -42 q -250 -157 -250 -135 z "},"ऽ":{"ha":742,"x_min":78,"x_max":744,"o":"m 449 708 q 439 707 449 708 q 411 693 429 706 q 393 651 393 681 q 422 587 393 621 q 503 512 450 553 q 587 444 557 471 q 658 372 617 418 q 744 179 744 278 q 684 37 744 81 q 533 -7 624 -7 q 286 75 408 -7 q 78 296 164 157 q 119 329 89 310 q 169 350 149 349 q 303 200 263 226 q 405 149 369 157 q 486 140 440 140 q 561 162 532 140 q 590 212 590 183 q 582 260 590 240 q 553 303 574 281 q 516 340 532 325 q 465 383 500 354 q 414 426 431 411 q 235 704 235 582 q 292 820 235 782 q 429 858 350 858 l 664 858 q 718 711 715 799 l 503 711 q 449 708 469 711 z "},"ा":{"ha":411,"x_min":-68,"x_max":479,"o":"m 479 722 l 289 722 l 289 -28 q 178 -8 233 -28 q 122 36 122 11 l 122 722 l -14 722 q -68 868 -68 789 l 425 868 q 479 722 479 801 z "},"ि":{"ha":411,"x_min":-68,"x_max":1067,"o":"m -68 868 l 121 868 q 56 1019 56 936 q 165 1201 56 1131 q 410 1271 274 1271 q 660 1238 546 1271 q 854 1153 774 1204 q 1067 972 1013 1054 q 1010 918 1051 944 q 744 1070 872 1022 q 449 1118 617 1118 q 206 986 206 1118 q 254 868 206 925 l 425 868 q 479 722 479 801 l 289 722 l 289 -28 q 178 -8 233 -28 q 122 36 122 11 l 122 722 l -14 722 q -68 868 -68 789 z "},"ी":{"ha":411,"x_min":-321,"x_max":478,"o":"m 478 722 l 289 722 l 289 -28 q 178 -8 233 -28 q 122 36 122 11 l 122 722 l -14 722 q -68 868 -68 789 l 147 868 q 48 1044 103 978 q -86 1111 -7 1111 q -163 1088 -132 1111 q -194 1011 -194 1064 q -178 925 -194 958 q -240 894 -211 903 q -321 1053 -321 964 q -266 1197 -321 1143 q -129 1251 -211 1251 q 19 1213 -47 1251 q 131 1114 85 1175 q 258 868 222 989 l 424 868 q 478 722 478 801 z "},"ु":{"ha":0,"x_min":-657,"x_max":10,"o":"m -393 -57 q -223 -4 -319 -4 q -58 -62 -126 -4 q 10 -214 10 -121 q -50 -362 10 -307 q -204 -418 -110 -418 q -462 -317 -335 -418 q -657 -92 -589 -215 q -624 -56 -651 -81 q -579 -28 -596 -32 q -232 -267 -417 -267 q -133 -244 -168 -267 q -99 -193 -99 -222 q -166 -143 -99 -143 q -306 -190 -233 -143 q -353 -133 -322 -176 q -393 -57 -383 -89 z "},"ू":{"ha":0,"x_min":-457,"x_max":210,"o":"m -54 -365 q -224 -418 -128 -418 q -389 -360 -321 -418 q -457 -208 -457 -301 q -397 -60 -457 -115 q -243 -4 -337 -4 q 15 -106 -112 -4 q 210 -331 142 -207 q 176 -366 204 -342 q 132 -394 149 -390 q -215 -156 -31 -156 q -314 -178 -279 -156 q -349 -229 -349 -200 q -281 -279 -349 -279 q -142 -232 -214 -279 q -94 -290 -125 -246 q -54 -365 -64 -333 z "},"ृ":{"ha":0,"x_min":-397,"x_max":1,"o":"m -283 -140 q -233 -187 -283 -187 q -157 -167 -201 -187 q -83 -117 -112 -147 q 1 -219 -26 -160 q -86 -285 -31 -258 q -210 -312 -142 -312 q -338 -267 -279 -312 q -397 -134 -397 -221 q -343 11 -397 -47 q -200 96 -289 69 q -156 42 -182 83 q -122 -28 -131 0 q -242 -84 -201 -51 q -283 -140 -283 -117 z "},"ॅ":{"ha":0,"x_min":-533,"x_max":81,"o":"m 81 1154 q -37 1017 44 1076 q -229 958 -119 958 q -418 1019 -339 958 q -533 1168 -497 1079 q -443 1222 -511 1190 q -256 1089 -369 1089 q -142 1128 -189 1089 q -57 1249 -96 1167 q 17 1208 -26 1238 q 81 1154 60 1178 z "},"ॆ":{"ha":0,"x_min":79,"x_max":788,"o":"m 690 1088 q 788 960 788 1043 q 743 824 788 876 l 650 831 q 688 900 688 863 q 624 962 688 938 q 479 996 561 986 q 305 1032 397 1006 q 174 1095 213 1058 q 110 1187 135 1132 q 79 1283 85 1242 l 142 1307 q 215 1212 168 1235 q 451 1150 263 1189 q 690 1088 640 1111 z "},"े":{"ha":0,"x_min":-776,"x_max":-146,"o":"m -524 1106 q -642 1091 -578 1106 q -729 1067 -706 1076 q -754 1131 -735 1075 q -776 1208 -774 1186 q -684 1234 -756 1218 q -556 1250 -612 1250 q -436 1218 -499 1250 q -328 1138 -374 1186 q -242 1031 -282 1090 q -146 835 -176 932 l -261 822 q -524 1106 -375 1106 z "},"ै":{"ha":0,"x_min":-704,"x_max":-143,"o":"m -704 1226 q -614 1266 -671 1247 q -497 1285 -557 1285 q -372 1237 -436 1285 q -264 1114 -308 1189 q -143 825 -179 974 l -249 821 q -341 916 -286 875 q -444 957 -396 957 q -542 933 -493 957 q -612 888 -592 908 q -649 940 -621 894 q -686 1013 -676 986 q -607 1060 -661 1038 q -503 1083 -553 1083 q -289 976 -410 1083 q -476 1147 -386 1147 q -636 1083 -546 1147 q -671 1144 -646 1093 q -704 1226 -696 1196 z "},"ॉ":{"ha":411,"x_min":-136,"x_max":479,"o":"m 479 722 l 289 722 l 289 -28 q 178 -8 233 -28 q 122 36 122 11 l 122 722 l -14 722 q -68 868 -68 789 l 425 868 q 479 722 479 801 m 149 947 q -136 1165 -47 947 q -74 1211 -118 1183 q 118 1078 3 1078 q 231 1117 185 1078 q 317 1238 278 1156 q 390 1197 347 1226 q 454 1143 433 1167 q 336 1006 418 1065 q 149 947 254 947 z "},"ॊ":{"ha":411,"x_min":-457,"x_max":479,"o":"m 479 722 l 289 722 l 289 -28 q 178 -8 233 -28 q 122 36 122 11 l 122 722 l -14 722 q -68 868 -68 789 l 133 868 q 151 915 151 889 q 88 978 151 954 q -57 1013 25 1003 q -231 1049 -139 1022 q -362 1112 -324 1075 q -426 1203 -401 1149 q -457 1300 -451 1258 q -427 1314 -456 1303 q -394 1324 -399 1325 q -317 1226 -369 1250 q -84 1165 -274 1204 q 154 1104 106 1126 q 251 972 251 1060 q 225 868 251 921 l 425 868 q 479 722 479 801 z "},"ो":{"ha":411,"x_min":-406,"x_max":479,"o":"m 479 722 l 289 722 l 289 -28 q 178 -8 233 -28 q 122 36 122 11 l 122 722 l -14 722 q -68 868 -68 789 l 90 868 q -153 1106 -12 1106 q -271 1091 -207 1106 q -358 1067 -335 1076 q -383 1131 -364 1075 q -406 1208 -403 1186 q -313 1234 -385 1218 q -180 1250 -242 1250 q -49 1210 -118 1250 q 72 1108 21 1171 q 214 868 167 989 l 425 868 q 479 722 479 801 z "},"ौ":{"ha":411,"x_min":-340,"x_max":479,"o":"m 479 722 l 289 722 l 289 -28 q 178 -8 233 -28 q 122 36 122 11 l 122 722 l -14 722 q -68 868 -68 789 l 76 868 q -85 957 -7 957 q -178 933 -129 957 q -249 888 -228 908 q -285 940 -257 894 q -322 1013 -312 986 q -243 1060 -297 1038 q -139 1083 -189 1083 q 75 976 -46 1083 q -112 1147 -22 1147 q -272 1083 -182 1147 q -307 1144 -282 1093 q -340 1226 -332 1196 q -250 1266 -307 1247 q -142 1285 -193 1285 q -41 1257 -92 1285 q 47 1186 10 1229 q 117 1086 85 1143 q 210 868 179 976 l 425 868 q 479 722 479 801 z "},"्":{"ha":0,"x_min":-400,"x_max":86,"o":"m -400 -96 q -302 -90 -358 -90 q -206 -106 -246 -90 q -48 -206 -133 -132 q 86 -340 38 -281 q 29 -394 68 -369 q -82 -294 -18 -344 q -187 -231 -146 -243 q -280 -218 -229 -218 q -372 -225 -331 -218 q -390 -162 -379 -211 q -400 -96 -400 -112 z "},"ॐ":{"ha":1578,"x_min":139,"x_max":1453,"o":"m 860 1130 q 882 1149 860 1130 q 922 1168 904 1168 q 976 1124 940 1168 q 1011 1065 1011 1081 q 968 1010 1011 1050 q 908 971 925 971 q 854 1015 892 971 q 817 1075 817 1058 q 860 1130 817 1092 m 938 756 q 643 918 781 756 q 693 981 663 958 q 882 899 790 899 q 1129 1039 1026 899 q 1192 985 1163 1019 q 1232 917 1221 950 q 1112 809 1193 863 q 938 756 1031 756 m 1343 428 q 1343 462 1343 428 q 1310 532 1343 496 q 1243 568 1276 568 q 1188 553 1210 568 q 1144 506 1165 539 q 1074 375 1113 457 q 1204 271 1126 271 q 1301 315 1258 271 q 1343 428 1343 360 m 286 757 q 501 839 392 839 q 677 783 610 839 q 744 619 744 726 q 653 457 744 511 q 776 364 728 432 q 850 318 817 318 q 925 392 883 318 q 964 469 936 413 q 1013 560 992 525 q 1064 638 1033 596 q 1219 722 1128 722 q 1381 628 1310 722 q 1453 398 1453 533 q 1388 185 1453 263 q 1233 108 1324 108 q 1019 272 1104 108 q 900 183 964 183 q 828 210 865 183 q 767 47 828 115 q 600 -22 706 -22 q 397 46 494 -22 q 139 401 226 167 q 224 449 169 436 q 373 215 294 299 q 551 131 451 131 q 647 160 611 131 q 682 242 682 190 q 652 331 682 293 q 572 369 622 369 q 488 351 521 369 q 439 415 465 368 q 407 489 413 461 q 574 563 524 517 q 625 656 625 610 q 565 699 625 699 q 371 608 469 699 q 286 757 304 676 z "},"॑":{"ha":0,"x_min":-239,"x_max":-132,"o":"m -239 1313 l -132 1313 l -132 981 l -239 981 l -239 1313 z "},"॒":{"ha":0,"x_min":-779,"x_max":-112,"o":"m -112 -312 l -779 -312 l -779 -210 l -112 -210 l -112 -312 z "},"॓":{"ha":447,"x_min":58,"x_max":368,"o":"m 58 1231 l 144 1300 l 368 1029 l 281 961 l 58 1231 z "},"॔":{"ha":444,"x_min":67,"x_max":376,"o":"m 289 1300 l 376 1231 l 153 961 l 67 1029 l 289 1300 z "},"क़":{"ha":1061,"x_min":-78,"x_max":1115,"o":"m 635 722 l 635 561 q 772 611 701 611 q 945 541 879 611 q 1011 356 1011 471 q 850 97 1011 189 q 747 217 792 132 q 850 309 804 254 q 896 408 896 364 q 824 490 896 490 q 635 364 732 490 l 635 -28 q 524 -8 579 -28 q 468 36 468 11 l 468 169 q 303 129 394 129 q 103 210 183 129 q 24 399 24 290 q 99 569 24 507 q 278 632 175 632 q 468 586 381 632 l 468 722 l -24 722 q -78 868 -78 789 l 1061 868 q 1115 722 1115 801 l 635 722 m 468 472 q 336 503 410 503 q 217 465 263 503 q 172 363 172 426 q 207 270 172 299 q 293 242 242 242 q 468 319 388 242 l 468 472 m 128 40 q 151 59 128 40 q 192 79 174 79 q 250 33 210 79 q 290 -36 290 -14 q 245 -88 290 -49 q 181 -128 200 -128 q 122 -83 161 -128 q 83 -19 83 -39 q 128 40 83 0 z "},"ख़":{"ha":1150,"x_min":-82,"x_max":1207,"o":"m 1207 722 l 1017 722 l 1017 -28 q 906 -8 961 -28 q 850 36 850 11 l 850 156 q 710 121 785 121 q 506 201 586 121 q 426 390 426 282 q 500 556 426 499 q 670 614 574 614 q 850 572 767 614 l 850 722 l 343 722 q 360 558 360 646 q 176 253 360 272 q 358 115 228 172 q 628 36 489 57 q 583 -93 614 -44 q 360 -37 468 -86 q 179 81 251 13 q 63 222 107 149 q 19 358 19 296 q 55 447 19 419 q 160 474 90 474 q 228 468 175 474 q 229 492 229 475 q 176 722 229 610 l -28 722 q -82 868 -82 789 l 1153 868 q 1207 722 1207 801 m 850 474 q 720 492 793 492 q 606 451 647 492 q 565 351 565 411 q 598 263 565 292 q 678 233 631 233 q 850 303 768 233 l 850 474 m -24 51 q -2 70 -24 51 q 39 90 21 90 q 97 44 57 90 q 138 -25 138 -3 q 92 -77 138 -37 q 28 -117 47 -117 q -31 -72 8 -117 q -69 -8 -69 -28 q -24 51 -69 11 z "},"ग़":{"ha":869,"x_min":-61,"x_max":926,"o":"m 926 722 l 736 722 l 736 -28 q 625 -8 681 -28 q 569 36 569 11 l 569 722 l 343 722 l 343 394 q 294 231 343 269 q 235 213 271 213 q 107 293 178 213 q 36 426 36 374 q 47 475 36 463 q 176 513 78 513 l 176 722 l -7 722 q -61 868 -61 789 l 872 868 q 926 722 926 801 m 169 52 q 191 72 169 52 q 232 92 214 92 q 290 45 250 92 q 331 -24 331 -1 q 285 -76 331 -36 q 221 -115 240 -115 q 163 -71 201 -115 q 124 -7 124 -26 q 169 52 124 13 z "},"ज़":{"ha":1083,"x_min":-68,"x_max":1150,"o":"m 1150 722 l 961 722 l 961 -28 q 850 -8 906 -28 q 794 36 794 11 l 794 443 l 583 443 q 664 236 664 350 q 614 110 664 154 q 483 65 564 65 q 333 108 403 65 q 211 225 264 151 q 58 575 114 365 q 157 611 104 606 q 272 338 197 457 q 436 219 346 219 q 526 301 526 219 q 422 507 526 379 q 447 555 428 526 q 481 589 467 583 l 794 589 l 794 722 l -14 722 q -68 868 -68 789 l 1096 868 q 1150 722 1150 801 m 472 -31 q 494 -11 472 -31 q 535 8 517 8 q 593 -38 553 8 q 633 -107 633 -85 q 588 -159 633 -119 q 524 -199 543 -199 q 465 -154 504 -199 q 426 -90 426 -110 q 472 -31 426 -71 z "},"ड़":{"ha":724,"x_min":-75,"x_max":826,"o":"m 586 497 l 451 500 q 294 479 344 500 q 243 407 243 458 q 269 356 243 356 q 385 385 281 356 q 539 414 489 414 q 667 334 613 414 q 722 186 722 254 q 641 22 722 88 q 444 -43 560 -43 q 221 19 328 -43 q 35 193 114 82 q 103 257 50 239 q 394 96 240 96 q 552 138 486 96 q 618 233 618 179 q 579 272 618 272 q 464 242 561 272 q 331 213 367 213 q 195 283 271 213 q 119 461 119 354 q 174 591 119 544 q 321 638 228 638 l 476 638 l 476 722 l -21 722 q -75 868 -75 789 l 772 868 q 826 722 826 801 l 643 722 l 643 579 q 586 497 632 532 m 366 -134 q 389 -114 366 -134 q 429 -94 411 -94 q 488 -141 447 -94 q 528 -210 528 -187 q 483 -262 528 -222 q 418 -301 438 -301 q 360 -257 399 -301 q 321 -193 321 -212 q 366 -134 321 -174 z "},"ढ़":{"ha":774,"x_min":-68,"x_max":821,"o":"m 394 140 l 401 140 q 354 269 354 199 q 404 387 354 340 q 535 433 454 433 q 664 386 615 433 q 713 261 713 339 q 621 87 713 154 q 385 19 529 19 q 140 109 240 19 q 40 350 40 199 q 128 544 40 463 q 367 625 215 625 q 431 622 410 625 l 431 722 l -14 722 q -68 868 -68 789 l 767 868 q 821 722 821 801 l 596 722 l 596 556 q 574 513 590 535 q 539 482 557 492 q 416 489 472 489 q 309 472 360 489 q 233 425 258 454 q 186 297 186 369 q 245 182 186 224 q 394 140 304 140 m 603 270 q 604 287 603 270 q 590 320 604 304 q 544 336 575 336 q 492 304 514 336 q 471 232 471 272 q 485 154 471 192 q 570 203 538 171 q 603 270 603 236 m 372 -76 q 394 -56 372 -76 q 435 -36 417 -36 q 493 -83 453 -36 q 533 -151 533 -129 q 488 -203 533 -164 q 424 -243 443 -243 q 365 -199 404 -243 q 326 -135 326 -154 q 372 -76 326 -115 z "},"फ़":{"ha":1169,"x_min":-106,"x_max":1188,"o":"m 667 722 l 667 528 q 848 588 749 588 q 1017 516 947 588 q 1086 339 1086 444 q 1032 149 1086 233 q 911 19 978 65 q 797 138 844 56 q 908 242 856 174 q 960 382 960 311 q 885 465 960 465 q 772 417 829 465 q 667 301 714 369 l 667 -28 q 556 -8 611 -28 q 500 36 500 11 l 500 242 q 344 206 428 206 q 133 319 201 206 q 65 610 65 433 l 65 722 l -51 722 q -106 868 -106 789 l 1133 868 q 1188 722 1188 801 l 667 722 m 238 722 l 238 596 q 256 377 238 438 q 325 317 274 317 q 500 425 413 317 l 500 722 l 238 722 m 202 73 q 225 93 202 73 q 265 113 247 113 q 324 66 283 113 q 364 -3 364 19 q 319 -55 364 -15 q 254 -94 274 -94 q 196 -50 235 -94 q 157 14 157 -6 q 202 73 157 33 z "},"य़":{"ha":832,"x_min":-131,"x_max":861,"o":"m 861 722 l 669 722 l 669 -28 q 558 -8 614 -28 q 503 36 503 11 l 503 167 q 333 121 422 121 q 176 153 243 121 q 68 236 108 185 q -24 454 -8 335 q 115 513 76 476 q 153 625 153 549 q 115 722 153 674 l -76 722 q -131 868 -131 789 l 807 868 q 861 722 861 801 m 503 722 l 264 722 q 311 589 311 661 q 119 353 311 401 q 309 271 182 271 q 503 347 436 271 l 503 722 m 126 17 q 148 37 126 17 q 189 57 171 57 q 247 10 207 57 q 288 -58 288 -36 q 242 -110 288 -71 q 178 -150 197 -150 q 119 -106 158 -150 q 81 -42 81 -61 q 126 17 81 -22 z "}}}
